G04*
G04 #@! TF.GenerationSoftware,Altium Limited,Altium Designer Agile,26.0.0 (14)*
G04*
G04 Layer_Color=32896*
%FSLAX25Y25*%
%MOIN*%
G70*
G04*
G04 #@! TF.SameCoordinates,7524BEC1-89ED-4D1E-BEAD-273B5B3E8E6B*
G04*
G04*
G04 #@! TF.FilePolarity,Positive*
G04*
G01*
G75*
%ADD15C,0.00591*%
%ADD16C,0.00500*%
D15*
X56102Y93602D02*
X63976D01*
X56102Y92815D02*
Y93602D01*
X63976Y92815D02*
Y93602D01*
X56102Y89665D02*
Y90453D01*
Y89665D02*
X63976D01*
Y90453D01*
X55055Y21079D02*
Y21579D01*
X64055D01*
X55055Y17579D02*
Y18079D01*
X59555Y17579D02*
Y21579D01*
X55055Y17579D02*
X64055D01*
Y21079D02*
Y21579D01*
Y17579D02*
Y18079D01*
X60138Y95260D02*
Y99260D01*
X55638Y95260D02*
Y95760D01*
X64638Y95260D02*
Y95760D01*
X55638Y95260D02*
X64638D01*
Y98760D02*
Y99260D01*
X55638Y98760D02*
Y99260D01*
X64638D01*
X56102Y27559D02*
X63976D01*
X56102Y26772D02*
Y27559D01*
X63976Y26772D02*
Y27559D01*
Y23622D02*
Y24409D01*
X56102Y23622D02*
Y24409D01*
Y23622D02*
X63976D01*
D16*
X251567Y19005D02*
Y17576D01*
X251472Y17291D01*
X251281Y17100D01*
X250996Y17005D01*
X250805D01*
X250519Y17100D01*
X250329Y17291D01*
X250234Y17576D01*
Y19005D01*
X248349Y18719D02*
X248539Y18910D01*
X248825Y19005D01*
X249205D01*
X249491Y18910D01*
X249682Y18719D01*
Y18529D01*
X249586Y18338D01*
X249491Y18243D01*
X249301Y18148D01*
X248729Y17957D01*
X248539Y17862D01*
X248444Y17767D01*
X248349Y17576D01*
Y17291D01*
X248539Y17100D01*
X248825Y17005D01*
X249205D01*
X249491Y17100D01*
X249682Y17291D01*
X247901Y19005D02*
Y17005D01*
Y19005D02*
X247044D01*
X246758Y18910D01*
X246663Y18814D01*
X246568Y18624D01*
Y18433D01*
X246663Y18243D01*
X246758Y18148D01*
X247044Y18053D01*
X247901D02*
X247044D01*
X246758Y17957D01*
X246663Y17862D01*
X246568Y17672D01*
Y17386D01*
X246663Y17196D01*
X246758Y17100D01*
X247044Y17005D01*
X247901D01*
X243216Y18719D02*
X243407Y18910D01*
X243692Y19005D01*
X244073D01*
X244359Y18910D01*
X244549Y18719D01*
Y18529D01*
X244454Y18338D01*
X244359Y18243D01*
X244168Y18148D01*
X243597Y17957D01*
X243407Y17862D01*
X243312Y17767D01*
X243216Y17576D01*
Y17291D01*
X243407Y17100D01*
X243692Y17005D01*
X244073D01*
X244359Y17100D01*
X244549Y17291D01*
X242769Y18338D02*
Y17386D01*
X242674Y17100D01*
X242483Y17005D01*
X242197D01*
X242007Y17100D01*
X241721Y17386D01*
Y18338D02*
Y17005D01*
X241198Y18338D02*
Y16339D01*
Y18053D02*
X241007Y18243D01*
X240817Y18338D01*
X240531D01*
X240341Y18243D01*
X240150Y18053D01*
X240055Y17767D01*
Y17576D01*
X240150Y17291D01*
X240341Y17100D01*
X240531Y17005D01*
X240817D01*
X241007Y17100D01*
X241198Y17291D01*
X239627Y17767D02*
X238484D01*
Y17957D01*
X238579Y18148D01*
X238674Y18243D01*
X238865Y18338D01*
X239151D01*
X239341Y18243D01*
X239531Y18053D01*
X239627Y17767D01*
Y17576D01*
X239531Y17291D01*
X239341Y17100D01*
X239151Y17005D01*
X238865D01*
X238674Y17100D01*
X238484Y17291D01*
X238055Y18338D02*
Y17005D01*
Y17767D02*
X237960Y18053D01*
X237770Y18243D01*
X237579Y18338D01*
X237294D01*
X235780Y18719D02*
X235970Y18910D01*
X236256Y19005D01*
X236637D01*
X236922Y18910D01*
X237113Y18719D01*
Y18529D01*
X237018Y18338D01*
X236922Y18243D01*
X236732Y18148D01*
X236161Y17957D01*
X235970Y17862D01*
X235875Y17767D01*
X235780Y17576D01*
Y17291D01*
X235970Y17100D01*
X236256Y17005D01*
X236637D01*
X236922Y17100D01*
X237113Y17291D01*
X235332Y18338D02*
Y16339D01*
Y18053D02*
X235142Y18243D01*
X234951Y18338D01*
X234666D01*
X234475Y18243D01*
X234285Y18053D01*
X234190Y17767D01*
Y17576D01*
X234285Y17291D01*
X234475Y17100D01*
X234666Y17005D01*
X234951D01*
X235142Y17100D01*
X235332Y17291D01*
X233761Y17767D02*
X232619D01*
Y17957D01*
X232714Y18148D01*
X232809Y18243D01*
X232999Y18338D01*
X233285D01*
X233476Y18243D01*
X233666Y18053D01*
X233761Y17767D01*
Y17576D01*
X233666Y17291D01*
X233476Y17100D01*
X233285Y17005D01*
X232999D01*
X232809Y17100D01*
X232619Y17291D01*
X232190Y17767D02*
X231048D01*
Y17957D01*
X231143Y18148D01*
X231238Y18243D01*
X231428Y18338D01*
X231714D01*
X231905Y18243D01*
X232095Y18053D01*
X232190Y17767D01*
Y17576D01*
X232095Y17291D01*
X231905Y17100D01*
X231714Y17005D01*
X231428D01*
X231238Y17100D01*
X231048Y17291D01*
X229476Y19005D02*
Y17005D01*
Y18053D02*
X229667Y18243D01*
X229857Y18338D01*
X230143D01*
X230333Y18243D01*
X230524Y18053D01*
X230619Y17767D01*
Y17576D01*
X230524Y17291D01*
X230333Y17100D01*
X230143Y17005D01*
X229857D01*
X229667Y17100D01*
X229476Y17291D01*
X227182Y19005D02*
X226134D01*
X226706Y18243D01*
X226420D01*
X226230Y18148D01*
X226134Y18053D01*
X226039Y17767D01*
Y17576D01*
X226134Y17291D01*
X226325Y17100D01*
X226610Y17005D01*
X226896D01*
X227182Y17100D01*
X227277Y17196D01*
X227372Y17386D01*
X225496Y17196D02*
X225592Y17100D01*
X225496Y17005D01*
X225401Y17100D01*
X225496Y17196D01*
X224963Y18624D02*
X224773Y18719D01*
X224487Y19005D01*
Y17005D01*
X221640Y19005D02*
Y17386D01*
X221545Y17100D01*
X221354Y17005D01*
X221164D01*
X221926Y18338D02*
X221259D01*
X220402D02*
X220593Y18243D01*
X220783Y18053D01*
X220878Y17767D01*
Y17576D01*
X220783Y17291D01*
X220593Y17100D01*
X220402Y17005D01*
X220117D01*
X219926Y17100D01*
X219736Y17291D01*
X219640Y17576D01*
Y17767D01*
X219736Y18053D01*
X219926Y18243D01*
X220117Y18338D01*
X220402D01*
X216203Y18529D02*
X216298Y18719D01*
X216489Y18910D01*
X216679Y19005D01*
X217060D01*
X217250Y18910D01*
X217441Y18719D01*
X217536Y18529D01*
X217631Y18243D01*
Y17767D01*
X217536Y17481D01*
X217441Y17291D01*
X217250Y17100D01*
X217060Y17005D01*
X216679D01*
X216489Y17100D01*
X216298Y17291D01*
X216203Y17481D01*
Y17767D01*
X216679D02*
X216203D01*
X215556Y19005D02*
X215460Y18910D01*
X215365Y19005D01*
X215460Y19100D01*
X215556Y19005D01*
X215460Y18338D02*
Y17005D01*
X213870Y18338D02*
Y16815D01*
X213966Y16529D01*
X214061Y16434D01*
X214251Y16339D01*
X214537D01*
X214727Y16434D01*
X213870Y18053D02*
X214061Y18243D01*
X214251Y18338D01*
X214537D01*
X214727Y18243D01*
X214918Y18053D01*
X215013Y17767D01*
Y17576D01*
X214918Y17291D01*
X214727Y17100D01*
X214537Y17005D01*
X214251D01*
X214061Y17100D01*
X213870Y17291D01*
X212194Y18338D02*
Y17005D01*
Y18053D02*
X212385Y18243D01*
X212575Y18338D01*
X212861D01*
X213051Y18243D01*
X213242Y18053D01*
X213337Y17767D01*
Y17576D01*
X213242Y17291D01*
X213051Y17100D01*
X212861Y17005D01*
X212575D01*
X212385Y17100D01*
X212194Y17291D01*
X211661Y19005D02*
Y17005D01*
Y18053D02*
X211471Y18243D01*
X211280Y18338D01*
X210995D01*
X210804Y18243D01*
X210614Y18053D01*
X210519Y17767D01*
Y17576D01*
X210614Y17291D01*
X210804Y17100D01*
X210995Y17005D01*
X211280D01*
X211471Y17100D01*
X211661Y17291D01*
X209900Y19005D02*
X209805Y18910D01*
X209709Y19005D01*
X209805Y19100D01*
X209900Y19005D01*
X209805Y18338D02*
Y17005D01*
X209071Y19005D02*
Y17386D01*
X208976Y17100D01*
X208786Y17005D01*
X208595D01*
X209357Y18338D02*
X208690D01*
X205501Y19005D02*
X206738D01*
Y17005D01*
X205501D01*
X206738Y18053D02*
X205977D01*
X204882Y19005D02*
Y17386D01*
X204786Y17100D01*
X204596Y17005D01*
X204406D01*
X205167Y18338D02*
X204501D01*
X204120Y19005D02*
Y17005D01*
Y17957D02*
X203834Y18243D01*
X203644Y18338D01*
X203358D01*
X203168Y18243D01*
X203073Y17957D01*
Y17005D01*
X202549Y17767D02*
X201406D01*
Y17957D01*
X201501Y18148D01*
X201597Y18243D01*
X201787Y18338D01*
X202073D01*
X202263Y18243D01*
X202454Y18053D01*
X202549Y17767D01*
Y17576D01*
X202454Y17291D01*
X202263Y17100D01*
X202073Y17005D01*
X201787D01*
X201597Y17100D01*
X201406Y17291D01*
X200978Y18338D02*
Y17005D01*
Y17767D02*
X200883Y18053D01*
X200692Y18243D01*
X200502Y18338D01*
X200216D01*
X200035D02*
Y17005D01*
Y17957D02*
X199750Y18243D01*
X199559Y18338D01*
X199273D01*
X199083Y18243D01*
X198988Y17957D01*
Y17005D01*
X198464Y17767D02*
X197321D01*
Y17957D01*
X197417Y18148D01*
X197512Y18243D01*
X197702Y18338D01*
X197988D01*
X198178Y18243D01*
X198369Y18053D01*
X198464Y17767D01*
Y17576D01*
X198369Y17291D01*
X198178Y17100D01*
X197988Y17005D01*
X197702D01*
X197512Y17100D01*
X197321Y17291D01*
X196607Y19005D02*
Y17386D01*
X196512Y17100D01*
X196322Y17005D01*
X196131D01*
X196893Y18338D02*
X196226D01*
X192846Y18529D02*
X192941Y18719D01*
X193132Y18910D01*
X193322Y19005D01*
X193703D01*
X193894Y18910D01*
X194084Y18719D01*
X194179Y18529D01*
X194274Y18243D01*
Y17767D01*
X194179Y17481D01*
X194084Y17291D01*
X193894Y17100D01*
X193703Y17005D01*
X193322D01*
X193132Y17100D01*
X192941Y17291D01*
X192846Y17481D01*
X191808Y18338D02*
X191999Y18243D01*
X192189Y18053D01*
X192284Y17767D01*
Y17576D01*
X192189Y17291D01*
X191999Y17100D01*
X191808Y17005D01*
X191523D01*
X191332Y17100D01*
X191142Y17291D01*
X191047Y17576D01*
Y17767D01*
X191142Y18053D01*
X191332Y18243D01*
X191523Y18338D01*
X191808D01*
X190609D02*
Y17005D01*
Y17957D02*
X190323Y18243D01*
X190132Y18338D01*
X189847D01*
X189656Y18243D01*
X189561Y17957D01*
Y17005D01*
X188752Y19005D02*
Y17386D01*
X188657Y17100D01*
X188466Y17005D01*
X188276D01*
X189038Y18338D02*
X188371D01*
X187990D02*
Y17005D01*
Y17767D02*
X187895Y18053D01*
X187705Y18243D01*
X187514Y18338D01*
X187228D01*
X186571D02*
X186762Y18243D01*
X186952Y18053D01*
X187048Y17767D01*
Y17576D01*
X186952Y17291D01*
X186762Y17100D01*
X186571Y17005D01*
X186286D01*
X186095Y17100D01*
X185905Y17291D01*
X185810Y17576D01*
Y17767D01*
X185905Y18053D01*
X186095Y18243D01*
X186286Y18338D01*
X186571D01*
X185372Y19005D02*
Y17005D01*
X184953Y19005D02*
Y17005D01*
X184534Y17767D02*
X183391D01*
Y17957D01*
X183486Y18148D01*
X183581Y18243D01*
X183772Y18338D01*
X184058D01*
X184248Y18243D01*
X184439Y18053D01*
X184534Y17767D01*
Y17576D01*
X184439Y17291D01*
X184248Y17100D01*
X184058Y17005D01*
X183772D01*
X183581Y17100D01*
X183391Y17291D01*
X182963Y18338D02*
Y17005D01*
Y17767D02*
X182867Y18053D01*
X182677Y18243D01*
X182486Y18338D01*
X182201D01*
X251567Y13755D02*
X250710D01*
X250424Y13850D01*
X250329Y13946D01*
X250234Y14136D01*
Y14422D01*
X250329Y14612D01*
X250424Y14707D01*
X250710Y14803D01*
X251567D01*
Y12803D01*
X248358Y14327D02*
X248453Y14517D01*
X248644Y14707D01*
X248834Y14803D01*
X249215D01*
X249406Y14707D01*
X249596Y14517D01*
X249691Y14327D01*
X249786Y14041D01*
Y13565D01*
X249691Y13279D01*
X249596Y13089D01*
X249406Y12898D01*
X249215Y12803D01*
X248834D01*
X248644Y12898D01*
X248453Y13089D01*
X248358Y13279D01*
X247796Y14803D02*
Y12803D01*
Y14803D02*
X246939D01*
X246654Y14707D01*
X246558Y14612D01*
X246463Y14422D01*
Y14231D01*
X246558Y14041D01*
X246654Y13946D01*
X246939Y13850D01*
X247796D02*
X246939D01*
X246654Y13755D01*
X246558Y13660D01*
X246463Y13470D01*
Y13184D01*
X246558Y12994D01*
X246654Y12898D01*
X246939Y12803D01*
X247796D01*
X244445Y14803D02*
Y12803D01*
Y14803D02*
X243588D01*
X243302Y14707D01*
X243207Y14612D01*
X243112Y14422D01*
Y14231D01*
X243207Y14041D01*
X243302Y13946D01*
X243588Y13850D01*
X244445D01*
X243778D02*
X243112Y12803D01*
X242664Y13565D02*
X241522D01*
Y13755D01*
X241617Y13946D01*
X241712Y14041D01*
X241902Y14136D01*
X242188D01*
X242378Y14041D01*
X242569Y13850D01*
X242664Y13565D01*
Y13374D01*
X242569Y13089D01*
X242378Y12898D01*
X242188Y12803D01*
X241902D01*
X241712Y12898D01*
X241522Y13089D01*
X241093Y14136D02*
X240522Y12803D01*
X239950Y14136D02*
X240522Y12803D01*
X238055Y14422D02*
X237865Y14517D01*
X237579Y14803D01*
Y12803D01*
X236494Y12994D02*
X236589Y12898D01*
X236494Y12803D01*
X236399Y12898D01*
X236494Y12994D01*
X235865Y14327D02*
Y14422D01*
X235770Y14612D01*
X235675Y14707D01*
X235485Y14803D01*
X235104D01*
X234913Y14707D01*
X234818Y14612D01*
X234723Y14422D01*
Y14231D01*
X234818Y14041D01*
X235009Y13755D01*
X235961Y12803D01*
X234628D01*
X251567Y10942D02*
Y8942D01*
Y10942D02*
X250900D01*
X250615Y10847D01*
X250424Y10656D01*
X250329Y10466D01*
X250234Y10180D01*
Y9704D01*
X250329Y9418D01*
X250424Y9228D01*
X250615Y9037D01*
X250900Y8942D01*
X251567D01*
X249786Y9704D02*
X248644D01*
Y9894D01*
X248739Y10085D01*
X248834Y10180D01*
X249025Y10275D01*
X249310D01*
X249501Y10180D01*
X249691Y9990D01*
X249786Y9704D01*
Y9513D01*
X249691Y9228D01*
X249501Y9037D01*
X249310Y8942D01*
X249025D01*
X248834Y9037D01*
X248644Y9228D01*
X247168Y9990D02*
X247263Y10180D01*
X247549Y10275D01*
X247834D01*
X248120Y10180D01*
X248215Y9990D01*
X248120Y9799D01*
X247930Y9704D01*
X247453Y9609D01*
X247263Y9513D01*
X247168Y9323D01*
Y9228D01*
X247263Y9037D01*
X247549Y8942D01*
X247834D01*
X248120Y9037D01*
X248215Y9228D01*
X246558Y10942D02*
X246463Y10847D01*
X246368Y10942D01*
X246463Y11037D01*
X246558Y10942D01*
X246463Y10275D02*
Y8942D01*
X244873Y10275D02*
Y8752D01*
X244968Y8466D01*
X245064Y8371D01*
X245254Y8276D01*
X245540D01*
X245730Y8371D01*
X244873Y9990D02*
X245064Y10180D01*
X245254Y10275D01*
X245540D01*
X245730Y10180D01*
X245920Y9990D01*
X246016Y9704D01*
Y9513D01*
X245920Y9228D01*
X245730Y9037D01*
X245540Y8942D01*
X245254D01*
X245064Y9037D01*
X244873Y9228D01*
X244340Y10275D02*
Y8942D01*
Y9894D02*
X244054Y10180D01*
X243864Y10275D01*
X243578D01*
X243388Y10180D01*
X243292Y9894D01*
Y8942D01*
X242769Y9704D02*
X241626D01*
Y9894D01*
X241721Y10085D01*
X241817Y10180D01*
X242007Y10275D01*
X242293D01*
X242483Y10180D01*
X242674Y9990D01*
X242769Y9704D01*
Y9513D01*
X242674Y9228D01*
X242483Y9037D01*
X242293Y8942D01*
X242007D01*
X241817Y9037D01*
X241626Y9228D01*
X240055Y10942D02*
Y8942D01*
Y9990D02*
X240246Y10180D01*
X240436Y10275D01*
X240722D01*
X240912Y10180D01*
X241103Y9990D01*
X241198Y9704D01*
Y9513D01*
X241103Y9228D01*
X240912Y9037D01*
X240722Y8942D01*
X240436D01*
X240246Y9037D01*
X240055Y9228D01*
X237951Y10942D02*
Y8942D01*
Y9990D02*
X237760Y10180D01*
X237570Y10275D01*
X237284D01*
X237094Y10180D01*
X236903Y9990D01*
X236808Y9704D01*
Y9513D01*
X236903Y9228D01*
X237094Y9037D01*
X237284Y8942D01*
X237570D01*
X237760Y9037D01*
X237951Y9228D01*
X236284Y10275D02*
X235713Y8942D01*
X235142Y10275D02*
X235713Y8942D01*
X235904Y8561D01*
X236094Y8371D01*
X236284Y8276D01*
X236380D01*
X232571Y10942D02*
Y8942D01*
X233238Y10942D02*
X231905D01*
X231666Y9704D02*
X230524D01*
Y9894D01*
X230619Y10085D01*
X230714Y10180D01*
X230905Y10275D01*
X231190D01*
X231381Y10180D01*
X231571Y9990D01*
X231666Y9704D01*
Y9513D01*
X231571Y9228D01*
X231381Y9037D01*
X231190Y8942D01*
X230905D01*
X230714Y9037D01*
X230524Y9228D01*
X228953Y10275D02*
Y8752D01*
X229048Y8466D01*
X229143Y8371D01*
X229334Y8276D01*
X229619D01*
X229810Y8371D01*
X228953Y9990D02*
X229143Y10180D01*
X229334Y10275D01*
X229619D01*
X229810Y10180D01*
X230000Y9990D01*
X230095Y9704D01*
Y9513D01*
X230000Y9228D01*
X229810Y9037D01*
X229619Y8942D01*
X229334D01*
X229143Y9037D01*
X228953Y9228D01*
X228419Y10275D02*
Y9323D01*
X228324Y9037D01*
X228134Y8942D01*
X227848D01*
X227658Y9037D01*
X227372Y9323D01*
Y10275D02*
Y8942D01*
X226848Y10942D02*
Y8942D01*
Y9894D02*
X226563Y10180D01*
X226372Y10275D01*
X226087D01*
X225896Y10180D01*
X225801Y9894D01*
Y8942D01*
X223706Y9894D02*
X222849D01*
X222564Y9990D01*
X222468Y10085D01*
X222373Y10275D01*
Y10561D01*
X222468Y10751D01*
X222564Y10847D01*
X222849Y10942D01*
X223706D01*
Y8942D01*
X221831Y9133D02*
X221926Y9037D01*
X221831Y8942D01*
X221735Y9037D01*
X221831Y9133D01*
X219726Y10942D02*
Y8942D01*
Y10942D02*
X218393Y8942D01*
Y10942D02*
Y8942D01*
X217841Y10275D02*
Y9323D01*
X217746Y9037D01*
X217555Y8942D01*
X217269D01*
X217079Y9037D01*
X216793Y9323D01*
Y10275D02*
Y8942D01*
X215127Y10275D02*
Y8752D01*
X215222Y8466D01*
X215318Y8371D01*
X215508Y8276D01*
X215794D01*
X215984Y8371D01*
X215127Y9990D02*
X215318Y10180D01*
X215508Y10275D01*
X215794D01*
X215984Y10180D01*
X216175Y9990D01*
X216270Y9704D01*
Y9513D01*
X216175Y9228D01*
X215984Y9037D01*
X215794Y8942D01*
X215508D01*
X215318Y9037D01*
X215127Y9228D01*
X214594Y10275D02*
Y8942D01*
Y9704D02*
X214499Y9990D01*
X214308Y10180D01*
X214118Y10275D01*
X213832D01*
X212509D02*
Y8942D01*
Y9990D02*
X212699Y10180D01*
X212890Y10275D01*
X213175D01*
X213366Y10180D01*
X213556Y9990D01*
X213651Y9704D01*
Y9513D01*
X213556Y9228D01*
X213366Y9037D01*
X213175Y8942D01*
X212890D01*
X212699Y9037D01*
X212509Y9228D01*
X211975Y10942D02*
Y8942D01*
Y9894D02*
X211690Y10180D01*
X211499Y10275D01*
X211214D01*
X211023Y10180D01*
X210928Y9894D01*
Y8942D01*
X209262Y10275D02*
Y8942D01*
Y9990D02*
X209452Y10180D01*
X209643Y10275D01*
X209928D01*
X210119Y10180D01*
X210309Y9990D01*
X210404Y9704D01*
Y9513D01*
X210309Y9228D01*
X210119Y9037D01*
X209928Y8942D01*
X209643D01*
X209452Y9037D01*
X209262Y9228D01*
X250142Y4831D02*
X250904Y6830D01*
X251665Y4831D01*
X251380Y5497D02*
X250428D01*
X248628Y5878D02*
X248723Y6069D01*
X249009Y6164D01*
X249294D01*
X249580Y6069D01*
X249675Y5878D01*
X249580Y5688D01*
X249390Y5593D01*
X248914Y5497D01*
X248723Y5402D01*
X248628Y5212D01*
Y5116D01*
X248723Y4926D01*
X249009Y4831D01*
X249294D01*
X249580Y4926D01*
X249675Y5116D01*
X247162Y5878D02*
X247257Y6069D01*
X247542Y6164D01*
X247828D01*
X248114Y6069D01*
X248209Y5878D01*
X248114Y5688D01*
X247923Y5593D01*
X247447Y5497D01*
X247257Y5402D01*
X247162Y5212D01*
Y5116D01*
X247257Y4926D01*
X247542Y4831D01*
X247828D01*
X248114Y4926D01*
X248209Y5116D01*
X246743Y5593D02*
X245600D01*
Y5783D01*
X245695Y5973D01*
X245790Y6069D01*
X245981Y6164D01*
X246267D01*
X246457Y6069D01*
X246647Y5878D01*
X246743Y5593D01*
Y5402D01*
X246647Y5116D01*
X246457Y4926D01*
X246267Y4831D01*
X245981D01*
X245790Y4926D01*
X245600Y5116D01*
X245171Y6164D02*
Y4831D01*
Y5783D02*
X244886Y6069D01*
X244695Y6164D01*
X244410D01*
X244219Y6069D01*
X244124Y5783D01*
Y4831D01*
Y5783D02*
X243839Y6069D01*
X243648Y6164D01*
X243362D01*
X243172Y6069D01*
X243077Y5783D01*
Y4831D01*
X242448Y6830D02*
Y4831D01*
Y5878D02*
X242258Y6069D01*
X242067Y6164D01*
X241782D01*
X241591Y6069D01*
X241401Y5878D01*
X241306Y5593D01*
Y5402D01*
X241401Y5116D01*
X241591Y4926D01*
X241782Y4831D01*
X242067D01*
X242258Y4926D01*
X242448Y5116D01*
X240877Y6830D02*
Y4831D01*
X240458Y5593D02*
X239316D01*
Y5783D01*
X239411Y5973D01*
X239506Y6069D01*
X239697Y6164D01*
X239982D01*
X240173Y6069D01*
X240363Y5878D01*
X240458Y5593D01*
Y5402D01*
X240363Y5116D01*
X240173Y4926D01*
X239982Y4831D01*
X239697D01*
X239506Y4926D01*
X239316Y5116D01*
X237744Y6830D02*
Y4831D01*
Y5878D02*
X237935Y6069D01*
X238125Y6164D01*
X238411D01*
X238601Y6069D01*
X238792Y5878D01*
X238887Y5593D01*
Y5402D01*
X238792Y5116D01*
X238601Y4926D01*
X238411Y4831D01*
X238125D01*
X237935Y4926D01*
X237744Y5116D01*
X235450Y6830D02*
X235355Y6735D01*
X235259Y6830D01*
X235355Y6926D01*
X235450Y6830D01*
X235355Y6164D02*
Y4831D01*
X234907Y6164D02*
Y4831D01*
Y5783D02*
X234621Y6069D01*
X234431Y6164D01*
X234145D01*
X233955Y6069D01*
X233860Y5783D01*
Y4831D01*
X231765Y6830D02*
Y4831D01*
X231346Y6164D02*
Y4831D01*
Y5783D02*
X231060Y6069D01*
X230870Y6164D01*
X230584D01*
X230394Y6069D01*
X230298Y5783D01*
Y4831D01*
X228632Y6830D02*
Y4831D01*
Y5878D02*
X228823Y6069D01*
X229013Y6164D01*
X229299D01*
X229489Y6069D01*
X229680Y5878D01*
X229775Y5593D01*
Y5402D01*
X229680Y5116D01*
X229489Y4926D01*
X229299Y4831D01*
X229013D01*
X228823Y4926D01*
X228632Y5116D01*
X227623Y6164D02*
X227813Y6069D01*
X228004Y5878D01*
X228099Y5593D01*
Y5402D01*
X228004Y5116D01*
X227813Y4926D01*
X227623Y4831D01*
X227337D01*
X227147Y4926D01*
X226956Y5116D01*
X226861Y5402D01*
Y5593D01*
X226956Y5878D01*
X227147Y6069D01*
X227337Y6164D01*
X227623D01*
X226423D02*
Y4831D01*
Y5783D02*
X226137Y6069D01*
X225947Y6164D01*
X225661D01*
X225471Y6069D01*
X225376Y5783D01*
Y4831D01*
X224852Y5593D02*
X223710D01*
Y5783D01*
X223805Y5973D01*
X223900Y6069D01*
X224090Y6164D01*
X224376D01*
X224566Y6069D01*
X224757Y5878D01*
X224852Y5593D01*
Y5402D01*
X224757Y5116D01*
X224566Y4926D01*
X224376Y4831D01*
X224090D01*
X223900Y4926D01*
X223710Y5116D01*
X222234Y5878D02*
X222329Y6069D01*
X222614Y6164D01*
X222900D01*
X223186Y6069D01*
X223281Y5878D01*
X223186Y5688D01*
X222995Y5593D01*
X222519Y5497D01*
X222329Y5402D01*
X222234Y5212D01*
Y5116D01*
X222329Y4926D01*
X222614Y4831D01*
X222900D01*
X223186Y4926D01*
X223281Y5116D01*
X221624Y6830D02*
X221529Y6735D01*
X221434Y6830D01*
X221529Y6926D01*
X221624Y6830D01*
X221529Y6164D02*
Y4831D01*
X219939Y6164D02*
Y4831D01*
Y5878D02*
X220129Y6069D01*
X220320Y6164D01*
X220605D01*
X220796Y6069D01*
X220986Y5878D01*
X221081Y5593D01*
Y5402D01*
X220986Y5116D01*
X220796Y4926D01*
X220605Y4831D01*
X220320D01*
X220129Y4926D01*
X219939Y5116D01*
X71833Y26376D02*
X71976Y26662D01*
X72262Y26947D01*
X72547Y27090D01*
X73119D01*
X73404Y26947D01*
X73690Y26662D01*
X73833Y26376D01*
X73975Y25948D01*
Y25234D01*
X73833Y24805D01*
X73690Y24519D01*
X73404Y24234D01*
X73119Y24091D01*
X72547D01*
X72262Y24234D01*
X71976Y24519D01*
X71833Y24805D01*
X70705Y27090D02*
X69134D01*
X69991Y25948D01*
X69562D01*
X69276Y25805D01*
X69134Y25662D01*
X68991Y25234D01*
Y24948D01*
X69134Y24519D01*
X69419Y24234D01*
X69848Y24091D01*
X70276D01*
X70705Y24234D01*
X70848Y24376D01*
X70990Y24662D01*
X66891Y27090D02*
X68320Y25091D01*
X66177D01*
X66891Y27090D02*
Y24091D01*
X71690Y92419D02*
X71833Y92705D01*
X72119Y92991D01*
X72404Y93133D01*
X72976D01*
X73261Y92991D01*
X73547Y92705D01*
X73690Y92419D01*
X73833Y91991D01*
Y91277D01*
X73690Y90848D01*
X73547Y90563D01*
X73261Y90277D01*
X72976Y90134D01*
X72404D01*
X72119Y90277D01*
X71833Y90563D01*
X71690Y90848D01*
X70562Y93133D02*
X68991D01*
X69848Y91991D01*
X69419D01*
X69134Y91848D01*
X68991Y91705D01*
X68848Y91277D01*
Y90991D01*
X68991Y90563D01*
X69276Y90277D01*
X69705Y90134D01*
X70134D01*
X70562Y90277D01*
X70705Y90420D01*
X70848Y90706D01*
X67891Y93133D02*
X66320D01*
X67177Y91991D01*
X66748D01*
X66463Y91848D01*
X66320Y91705D01*
X66177Y91277D01*
Y90991D01*
X66320Y90563D01*
X66606Y90277D01*
X67034Y90134D01*
X67463D01*
X67891Y90277D01*
X68034Y90420D01*
X68177Y90706D01*
X135782Y80240D02*
Y77241D01*
X136781Y80240D02*
X134782D01*
X134425Y78669D02*
X133139D01*
X132711Y78812D01*
X132568Y78954D01*
X132425Y79240D01*
Y79668D01*
X132568Y79954D01*
X132711Y80097D01*
X133139Y80240D01*
X134425D01*
Y77241D01*
X131611Y79526D02*
Y79668D01*
X131468Y79954D01*
X131325Y80097D01*
X131040Y80240D01*
X130468D01*
X130183Y80097D01*
X130040Y79954D01*
X129897Y79668D01*
Y79383D01*
X130040Y79097D01*
X130325Y78669D01*
X131754Y77241D01*
X129754D01*
X70705Y21078D02*
Y18079D01*
Y21078D02*
X69419D01*
X68991Y20936D01*
X68848Y20793D01*
X68705Y20507D01*
Y20222D01*
X68848Y19936D01*
X68991Y19793D01*
X69419Y19650D01*
X70705D01*
X69705D02*
X68705Y18079D01*
X66320Y20650D02*
X66463Y20936D01*
X66891Y21078D01*
X67177D01*
X67605Y20936D01*
X67891Y20507D01*
X68034Y19793D01*
Y19079D01*
X67891Y18507D01*
X67605Y18222D01*
X67177Y18079D01*
X67034D01*
X66606Y18222D01*
X66320Y18507D01*
X66177Y18936D01*
Y19079D01*
X66320Y19507D01*
X66606Y19793D01*
X67034Y19936D01*
X67177D01*
X67605Y19793D01*
X67891Y19507D01*
X68034Y19079D01*
X70990Y98760D02*
Y95760D01*
Y98760D02*
X69705D01*
X69276Y98617D01*
X69134Y98474D01*
X68991Y98188D01*
Y97903D01*
X69134Y97617D01*
X69276Y97474D01*
X69705Y97331D01*
X70990D01*
X69991D02*
X68991Y95760D01*
X66891Y98760D02*
X68320Y96760D01*
X66177D01*
X66891Y98760D02*
Y95760D01*
M02*
