G04*
G04 #@! TF.GenerationSoftware,Altium Limited,Altium Designer,25.7.1 (20)*
G04*
G04 Layer_Color=8388736*
%FSLAX25Y25*%
%MOIN*%
G70*
G04*
G04 #@! TF.SameCoordinates,A9B1DE4C-7A59-4FA5-9EB3-CEC3AB9D3762*
G04*
G04*
G04 #@! TF.FilePolarity,Negative*
G04*
G01*
G75*
G04:AMPARAMS|DCode=29|XSize=35.81mil|YSize=9.42mil|CornerRadius=4.71mil|HoleSize=0mil|Usage=FLASHONLY|Rotation=0.000|XOffset=0mil|YOffset=0mil|HoleType=Round|Shape=RoundedRectangle|*
%AMROUNDEDRECTD29*
21,1,0.03581,0.00000,0,0,0.0*
21,1,0.02639,0.00942,0,0,0.0*
1,1,0.00942,0.01320,0.00000*
1,1,0.00942,-0.01320,0.00000*
1,1,0.00942,-0.01320,0.00000*
1,1,0.00942,0.01320,0.00000*
%
%ADD29ROUNDEDRECTD29*%
G04:AMPARAMS|DCode=31|XSize=9.42mil|YSize=35.81mil|CornerRadius=4.71mil|HoleSize=0mil|Usage=FLASHONLY|Rotation=0.000|XOffset=0mil|YOffset=0mil|HoleType=Round|Shape=RoundedRectangle|*
%AMROUNDEDRECTD31*
21,1,0.00942,0.02639,0,0,0.0*
21,1,0.00000,0.03581,0,0,0.0*
1,1,0.00942,0.00000,-0.01320*
1,1,0.00942,0.00000,-0.01320*
1,1,0.00942,0.00000,0.01320*
1,1,0.00942,0.00000,0.01320*
%
%ADD31ROUNDEDRECTD31*%
%ADD36R,0.03581X0.00942*%
%ADD38R,0.16548X0.06706*%
%ADD39R,0.03320X0.03162*%
%ADD40R,0.03162X0.03753*%
%ADD41O,0.09461X0.03162*%
%ADD42C,0.07493*%
%ADD43R,0.07099X0.14580*%
%ADD44R,0.03162X0.03320*%
%ADD45R,0.03753X0.03162*%
%ADD46R,0.02769X0.01784*%
%ADD47R,0.02769X0.02572*%
%ADD48R,0.04343X0.01981*%
%ADD49R,0.04737X0.04343*%
G04:AMPARAMS|DCode=50|XSize=33.59mil|YSize=15.87mil|CornerRadius=4.98mil|HoleSize=0mil|Usage=FLASHONLY|Rotation=0.000|XOffset=0mil|YOffset=0mil|HoleType=Round|Shape=RoundedRectangle|*
%AMROUNDEDRECTD50*
21,1,0.03359,0.00591,0,0,0.0*
21,1,0.02362,0.01587,0,0,0.0*
1,1,0.00997,0.01181,-0.00295*
1,1,0.00997,-0.01181,-0.00295*
1,1,0.00997,-0.01181,0.00295*
1,1,0.00997,0.01181,0.00295*
%
%ADD50ROUNDEDRECTD50*%
%ADD51R,0.06312X0.05328*%
%ADD52R,0.04343X0.04737*%
%ADD53R,0.03950X0.03950*%
%ADD54R,0.21260X0.21260*%
%ADD55R,0.01981X0.04501*%
%ADD56C,0.13595*%
%ADD57C,0.10426*%
%ADD58C,0.06304*%
%ADD59C,0.06824*%
%ADD60R,0.06304X0.06304*%
%ADD61C,0.03162*%
%ADD62O,0.06312X0.03950*%
%ADD63C,0.03359*%
G36*
X243449Y73905D02*
X243453Y73992D01*
X243465Y74079D01*
X243480Y74165D01*
X243500Y74252D01*
X243528Y74335D01*
X243555Y74417D01*
X243590Y74500D01*
X243626Y74579D01*
X243669Y74654D01*
X243717Y74728D01*
X243764Y74803D01*
X243819Y74870D01*
X243874Y74937D01*
X243933Y75004D01*
X244000Y75063D01*
X244067Y75118D01*
X244134Y75173D01*
X244209Y75221D01*
X244280Y75268D01*
X244358Y75311D01*
X244437Y75346D01*
X244520Y75382D01*
X244602Y75410D01*
X244685Y75437D01*
X244772Y75457D01*
X244858Y75472D01*
X244945Y75484D01*
X245031Y75488D01*
X245118Y75492D01*
X245205Y75488D01*
X245291Y75484D01*
X245378Y75472D01*
X245465Y75457D01*
X245551Y75437D01*
X245634Y75410D01*
X245717Y75382D01*
X245799Y75346D01*
X245878Y75311D01*
X245953Y75268D01*
X246028Y75221D01*
X246102Y75173D01*
X246169Y75118D01*
X246236Y75063D01*
X246303Y75004D01*
X246362Y74937D01*
X246417Y74870D01*
X246472Y74803D01*
X246520Y74728D01*
X246567Y74654D01*
X246610Y74579D01*
X246646Y74500D01*
X246681Y74417D01*
X246709Y74335D01*
X246736Y74252D01*
X246756Y74165D01*
X246772Y74079D01*
X246783Y73992D01*
X246787Y73905D01*
X246791Y73819D01*
Y72638D01*
X246787Y72551D01*
X246783Y72465D01*
X246772Y72378D01*
X246756Y72291D01*
X246736Y72205D01*
X246709Y72122D01*
X246681Y72039D01*
X246646Y71957D01*
X246610Y71878D01*
X246567Y71799D01*
X246520Y71728D01*
X246472Y71654D01*
X246417Y71587D01*
X246362Y71520D01*
X246303Y71453D01*
X246236Y71394D01*
X246169Y71339D01*
X246102Y71284D01*
X246028Y71236D01*
X245953Y71189D01*
X245878Y71146D01*
X245799Y71110D01*
X245717Y71075D01*
X245634Y71047D01*
X245551Y71020D01*
X245465Y71000D01*
X245378Y70984D01*
X245291Y70973D01*
X245205Y70969D01*
X245118Y70965D01*
X245031Y70969D01*
X244945Y70973D01*
X244858Y70984D01*
X244772Y71000D01*
X244685Y71020D01*
X244602Y71047D01*
X244520Y71075D01*
X244437Y71110D01*
X244358Y71146D01*
X244280Y71189D01*
X244209Y71236D01*
X244134Y71284D01*
X244067Y71339D01*
X244000Y71394D01*
X243933Y71453D01*
X243874Y71520D01*
X243819Y71587D01*
X243764Y71654D01*
X243717Y71728D01*
X243669Y71799D01*
X243626Y71878D01*
X243590Y71957D01*
X243555Y72039D01*
X243528Y72122D01*
X243500Y72205D01*
X243480Y72291D01*
X243465Y72378D01*
X243453Y72465D01*
X243449Y72551D01*
X243445Y72638D01*
Y73819D01*
X243449Y73905D01*
D02*
G37*
D29*
X147249Y62008D02*
D03*
Y60039D02*
D03*
Y56102D02*
D03*
Y54134D02*
D03*
Y69882D02*
D03*
X120467Y48228D02*
D03*
Y54134D02*
D03*
Y60039D02*
D03*
Y65945D02*
D03*
X147249Y58071D02*
D03*
Y50197D02*
D03*
Y52165D02*
D03*
X120467D02*
D03*
Y50197D02*
D03*
Y58071D02*
D03*
Y56102D02*
D03*
Y63976D02*
D03*
Y62008D02*
D03*
Y67913D02*
D03*
X147249Y65945D02*
D03*
Y67913D02*
D03*
Y48228D02*
D03*
Y63976D02*
D03*
D31*
X126969Y72446D02*
D03*
X140748D02*
D03*
X142717D02*
D03*
X136811Y45664D02*
D03*
X125000D02*
D03*
X136811Y72446D02*
D03*
X138779D02*
D03*
X128937D02*
D03*
X130905D02*
D03*
X134843D02*
D03*
X138779Y45664D02*
D03*
X126969D02*
D03*
X123031D02*
D03*
X142717D02*
D03*
X144685Y72446D02*
D03*
X140748Y45664D02*
D03*
X125000Y72446D02*
D03*
X123031D02*
D03*
X144685Y45664D02*
D03*
X132874D02*
D03*
X130905D02*
D03*
X128937D02*
D03*
X134843D02*
D03*
X132874Y72446D02*
D03*
D36*
X120467Y69882D02*
D03*
D38*
X111221Y22441D02*
D03*
Y36614D02*
D03*
D39*
X132874Y85866D02*
D03*
Y89331D02*
D03*
X127953Y85866D02*
D03*
Y89331D02*
D03*
X123031Y85866D02*
D03*
Y89331D02*
D03*
X118110Y85866D02*
D03*
Y89331D02*
D03*
X108268Y85866D02*
D03*
Y89331D02*
D03*
X131496Y31161D02*
D03*
X141732D02*
D03*
Y85866D02*
D03*
X146653D02*
D03*
X126969Y100630D02*
D03*
X150591Y104095D02*
D03*
X146850Y31161D02*
D03*
X151969D02*
D03*
X136614D02*
D03*
X207087Y85197D02*
D03*
X126969Y104095D02*
D03*
X207087Y81732D02*
D03*
X150591Y100630D02*
D03*
X146850Y27697D02*
D03*
X151969D02*
D03*
X136614D02*
D03*
X131496D02*
D03*
X141732D02*
D03*
Y89331D02*
D03*
X146653D02*
D03*
D40*
X113189Y85335D02*
D03*
Y89862D02*
D03*
X172933Y100098D02*
D03*
X156890Y27165D02*
D03*
X151575Y85335D02*
D03*
X156890Y31693D02*
D03*
X218504Y18012D02*
D03*
X172933Y104626D02*
D03*
X207087Y91831D02*
D03*
Y96358D02*
D03*
X151575Y89862D02*
D03*
X218504Y13484D02*
D03*
D41*
X190354Y28169D02*
D03*
Y23169D02*
D03*
Y18169D02*
D03*
Y13169D02*
D03*
X209252Y28169D02*
D03*
Y23169D02*
D03*
Y18169D02*
D03*
Y13169D02*
D03*
D42*
X192913Y104331D02*
D03*
X127756Y7382D02*
D03*
X225197Y103543D02*
D03*
D43*
X67520Y9899D02*
D03*
X52165D02*
D03*
Y107221D02*
D03*
X67520D02*
D03*
D44*
X206453Y51657D02*
D03*
X209917D02*
D03*
Y46128D02*
D03*
X206453D02*
D03*
X69528Y96063D02*
D03*
X207244Y36220D02*
D03*
X159685Y75590D02*
D03*
X107047Y61417D02*
D03*
Y69291D02*
D03*
Y53543D02*
D03*
Y44685D02*
D03*
X159969Y47272D02*
D03*
X247992Y82972D02*
D03*
X103583Y61417D02*
D03*
Y69291D02*
D03*
Y53543D02*
D03*
Y44685D02*
D03*
X244528Y82972D02*
D03*
X203780Y36220D02*
D03*
X72992Y96063D02*
D03*
X163150Y75590D02*
D03*
X163434Y47272D02*
D03*
D45*
X205921Y57284D02*
D03*
X210449D02*
D03*
X205921Y64862D02*
D03*
X210449D02*
D03*
X163681Y70866D02*
D03*
X163878Y42421D02*
D03*
X159350D02*
D03*
X159153Y65945D02*
D03*
Y70866D02*
D03*
X191437Y36220D02*
D03*
X163681Y65945D02*
D03*
X195965Y36220D02*
D03*
D46*
X225295Y44291D02*
D03*
Y46260D02*
D03*
Y50197D02*
D03*
Y52165D02*
D03*
X222146D02*
D03*
Y50197D02*
D03*
Y46260D02*
D03*
Y44291D02*
D03*
X225295Y60039D02*
D03*
Y62008D02*
D03*
Y65945D02*
D03*
Y67913D02*
D03*
X222146D02*
D03*
Y65945D02*
D03*
Y62008D02*
D03*
Y60039D02*
D03*
D47*
X225295Y48228D02*
D03*
X222146D02*
D03*
X225295Y63976D02*
D03*
X222146D02*
D03*
D48*
X242913Y67913D02*
D03*
Y65945D02*
D03*
Y52165D02*
D03*
Y50197D02*
D03*
Y54134D02*
D03*
Y63976D02*
D03*
Y58071D02*
D03*
Y60039D02*
D03*
Y56102D02*
D03*
Y48228D02*
D03*
Y69882D02*
D03*
Y62008D02*
D03*
D49*
X188976Y95965D02*
D03*
X125591Y31496D02*
D03*
X213386Y96358D02*
D03*
X188976Y90650D02*
D03*
X213386Y91043D02*
D03*
X125591Y26181D02*
D03*
D50*
X196752Y94882D02*
D03*
Y93307D02*
D03*
X201673Y91732D02*
D03*
Y94882D02*
D03*
X196752Y91732D02*
D03*
X201673Y93307D02*
D03*
D51*
X134449Y99213D02*
D03*
X143110Y105512D02*
D03*
X134449D02*
D03*
X143110Y99213D02*
D03*
D52*
X104823Y14567D02*
D03*
X99508D02*
D03*
D53*
X166634Y105315D02*
D03*
Y99409D02*
D03*
D54*
X133858Y59055D02*
D03*
D55*
X199213Y93307D02*
D03*
D56*
X30315Y36555D02*
D03*
Y81555D02*
D03*
D57*
X42323Y89547D02*
D03*
Y28563D02*
D03*
D58*
X55315Y36535D02*
D03*
X65315Y71575D02*
D03*
X55315Y76535D02*
D03*
X65315Y51575D02*
D03*
X55315Y66535D02*
D03*
Y56535D02*
D03*
X65315Y61575D02*
D03*
Y41575D02*
D03*
X55315Y46535D02*
D03*
D59*
X11024Y42972D02*
D03*
Y75138D02*
D03*
Y85138D02*
D03*
Y32972D02*
D03*
D60*
X65315Y81575D02*
D03*
D61*
X250433Y49606D02*
D03*
Y52756D02*
D03*
Y65354D02*
D03*
Y68504D02*
D03*
X247677Y63779D02*
D03*
Y54331D02*
D03*
Y60630D02*
D03*
Y57480D02*
D03*
X250433Y62205D02*
D03*
X247677Y70079D02*
D03*
Y48031D02*
D03*
X250433Y55905D02*
D03*
D62*
X250000Y42795D02*
D03*
Y75315D02*
D03*
X267323Y41378D02*
D03*
Y76732D02*
D03*
D63*
X245118Y44882D02*
D03*
Y73228D02*
D03*
M02*
