G04*
G04 #@! TF.GenerationSoftware,Altium Limited,Altium Designer,25.7.1 (20)*
G04*
G04 Layer_Color=16711935*
%FSLAX25Y25*%
%MOIN*%
G70*
G04*
G04 #@! TF.SameCoordinates,A9B1DE4C-7A59-4FA5-9EB3-CEC3AB9D3762*
G04*
G04*
G04 #@! TF.FilePolarity,Negative*
G04*
G01*
G75*
%ADD42C,0.07493*%
%ADD44R,0.03162X0.03320*%
%ADD45R,0.03753X0.03162*%
%ADD56C,0.13595*%
%ADD57C,0.10426*%
%ADD58C,0.06304*%
%ADD59C,0.06824*%
%ADD60R,0.06304X0.06304*%
%ADD61C,0.03162*%
%ADD62O,0.06312X0.03950*%
%ADD63C,0.03359*%
G36*
X243449Y73905D02*
X243453Y73992D01*
X243465Y74079D01*
X243480Y74165D01*
X243500Y74252D01*
X243528Y74335D01*
X243555Y74417D01*
X243590Y74500D01*
X243626Y74579D01*
X243669Y74654D01*
X243717Y74728D01*
X243764Y74803D01*
X243819Y74870D01*
X243874Y74937D01*
X243933Y75004D01*
X244000Y75063D01*
X244067Y75118D01*
X244134Y75173D01*
X244209Y75221D01*
X244280Y75268D01*
X244358Y75311D01*
X244437Y75346D01*
X244520Y75382D01*
X244602Y75410D01*
X244685Y75437D01*
X244772Y75457D01*
X244858Y75472D01*
X244945Y75484D01*
X245031Y75488D01*
X245118Y75492D01*
X245205Y75488D01*
X245291Y75484D01*
X245378Y75472D01*
X245465Y75457D01*
X245551Y75437D01*
X245634Y75410D01*
X245717Y75382D01*
X245799Y75346D01*
X245878Y75311D01*
X245953Y75268D01*
X246028Y75221D01*
X246102Y75173D01*
X246169Y75118D01*
X246236Y75063D01*
X246303Y75004D01*
X246362Y74937D01*
X246417Y74870D01*
X246472Y74803D01*
X246520Y74728D01*
X246567Y74654D01*
X246610Y74579D01*
X246646Y74500D01*
X246681Y74417D01*
X246709Y74335D01*
X246736Y74252D01*
X246756Y74165D01*
X246772Y74079D01*
X246783Y73992D01*
X246787Y73905D01*
X246791Y73819D01*
Y72638D01*
X246787Y72551D01*
X246783Y72465D01*
X246772Y72378D01*
X246756Y72291D01*
X246736Y72205D01*
X246709Y72122D01*
X246681Y72039D01*
X246646Y71957D01*
X246610Y71878D01*
X246567Y71799D01*
X246520Y71728D01*
X246472Y71654D01*
X246417Y71587D01*
X246362Y71520D01*
X246303Y71453D01*
X246236Y71394D01*
X246169Y71339D01*
X246102Y71284D01*
X246028Y71236D01*
X245953Y71189D01*
X245878Y71146D01*
X245799Y71110D01*
X245717Y71075D01*
X245634Y71047D01*
X245551Y71020D01*
X245465Y71000D01*
X245378Y70984D01*
X245291Y70973D01*
X245205Y70969D01*
X245118Y70965D01*
X245031Y70969D01*
X244945Y70973D01*
X244858Y70984D01*
X244772Y71000D01*
X244685Y71020D01*
X244602Y71047D01*
X244520Y71075D01*
X244437Y71110D01*
X244358Y71146D01*
X244280Y71189D01*
X244209Y71236D01*
X244134Y71284D01*
X244067Y71339D01*
X244000Y71394D01*
X243933Y71453D01*
X243874Y71520D01*
X243819Y71587D01*
X243764Y71654D01*
X243717Y71728D01*
X243669Y71799D01*
X243626Y71878D01*
X243590Y71957D01*
X243555Y72039D01*
X243528Y72122D01*
X243500Y72205D01*
X243480Y72291D01*
X243465Y72378D01*
X243453Y72465D01*
X243449Y72551D01*
X243445Y72638D01*
Y73819D01*
X243449Y73905D01*
D02*
G37*
D42*
X124016Y78740D02*
D03*
D44*
X61772Y25591D02*
D03*
X58307D02*
D03*
Y91634D02*
D03*
X61772D02*
D03*
D45*
X57874Y97261D02*
D03*
X62402D02*
D03*
X57291Y19579D02*
D03*
X61819D02*
D03*
D56*
X30315Y36555D02*
D03*
Y81555D02*
D03*
D57*
X42323Y89547D02*
D03*
Y28563D02*
D03*
D58*
X55315Y36535D02*
D03*
X65315Y71575D02*
D03*
X55315Y76535D02*
D03*
X65315Y51575D02*
D03*
X55315Y66535D02*
D03*
Y56535D02*
D03*
X65315Y61575D02*
D03*
Y41575D02*
D03*
X55315Y46535D02*
D03*
D59*
X11024Y42972D02*
D03*
Y75138D02*
D03*
Y85138D02*
D03*
Y32972D02*
D03*
D60*
X65315Y81575D02*
D03*
D61*
X250433Y49606D02*
D03*
Y52756D02*
D03*
Y65354D02*
D03*
Y68504D02*
D03*
X247677Y63779D02*
D03*
Y54331D02*
D03*
Y60630D02*
D03*
Y57480D02*
D03*
X250433Y62205D02*
D03*
X247677Y70079D02*
D03*
Y48031D02*
D03*
X250433Y55905D02*
D03*
D62*
X250000Y42795D02*
D03*
Y75315D02*
D03*
X267323Y41378D02*
D03*
Y76732D02*
D03*
D63*
X245118Y44882D02*
D03*
Y73228D02*
D03*
M02*
