G04*
G04 #@! TF.GenerationSoftware,Altium Limited,Altium Designer Agile,26.0.0 (14)*
G04*
G04 Layer_Color=8421504*
%FSLAX25Y25*%
%MOIN*%
G70*
G04*
G04 #@! TF.SameCoordinates,7524BEC1-89ED-4D1E-BEAD-273B5B3E8E6B*
G04*
G04*
G04 #@! TF.FilePolarity,Positive*
G04*
G01*
G75*
%ADD18R,0.06723X0.06723*%
%ADD19R,0.02520X0.02362*%
%ADD20R,0.02362X0.02953*%
%ADD21O,0.08661X0.02362*%
%ADD22R,0.02953X0.02362*%
%ADD23C,0.06693*%
%ADD24R,0.03937X0.03543*%
%ADD25R,0.02362X0.02520*%
%ADD26R,0.06299X0.13780*%
%ADD27R,0.03975X0.00942*%
G04:AMPARAMS|DCode=28|XSize=39.75mil|YSize=9.42mil|CornerRadius=4.71mil|HoleSize=0mil|Usage=FLASHONLY|Rotation=0.000|XOffset=0mil|YOffset=0mil|HoleType=Round|Shape=RoundedRectangle|*
%AMROUNDEDRECTD28*
21,1,0.03975,0.00000,0,0,0.0*
21,1,0.03033,0.00942,0,0,0.0*
1,1,0.00942,0.01517,0.00000*
1,1,0.00942,-0.01517,0.00000*
1,1,0.00942,-0.01517,0.00000*
1,1,0.00942,0.01517,0.00000*
%
%ADD28ROUNDEDRECTD28*%
G04:AMPARAMS|DCode=29|XSize=9.42mil|YSize=39.75mil|CornerRadius=4.71mil|HoleSize=0mil|Usage=FLASHONLY|Rotation=0.000|XOffset=0mil|YOffset=0mil|HoleType=Round|Shape=RoundedRectangle|*
%AMROUNDEDRECTD29*
21,1,0.00942,0.03033,0,0,0.0*
21,1,0.00000,0.03975,0,0,0.0*
1,1,0.00942,0.00000,-0.01517*
1,1,0.00942,0.00000,-0.01517*
1,1,0.00942,0.00000,0.01517*
1,1,0.00942,0.00000,0.01517*
%
%ADD29ROUNDEDRECTD29*%
%ADD30R,0.03543X0.01181*%
%ADD31R,0.01968X0.00984*%
%ADD32R,0.01968X0.01772*%
%ADD33R,0.05512X0.04528*%
G04:AMPARAMS|DCode=34|XSize=25.59mil|YSize=7.87mil|CornerRadius=0.98mil|HoleSize=0mil|Usage=FLASHONLY|Rotation=0.000|XOffset=0mil|YOffset=0mil|HoleType=Round|Shape=RoundedRectangle|*
%AMROUNDEDRECTD34*
21,1,0.02559,0.00591,0,0,0.0*
21,1,0.02362,0.00787,0,0,0.0*
1,1,0.00197,0.01181,-0.00295*
1,1,0.00197,-0.01181,-0.00295*
1,1,0.00197,-0.01181,0.00295*
1,1,0.00197,0.01181,0.00295*
%
%ADD34ROUNDEDRECTD34*%
%ADD35R,0.03543X0.03937*%
%ADD36R,0.15748X0.05906*%
%ADD37R,0.03150X0.03150*%
G36*
X199496Y91764D02*
X198929D01*
Y94850D01*
X199496D01*
Y91764D01*
D02*
G37*
D18*
X129194Y63719D02*
D03*
X138522D02*
D03*
X129194Y54391D02*
D03*
X138522D02*
D03*
D19*
X131496Y27697D02*
D03*
Y31161D02*
D03*
X118110Y89331D02*
D03*
Y85866D02*
D03*
X127953Y89331D02*
D03*
Y85866D02*
D03*
X132874Y89331D02*
D03*
Y85866D02*
D03*
X123031Y89331D02*
D03*
Y85866D02*
D03*
X108268D02*
D03*
Y89331D02*
D03*
X150591Y104095D02*
D03*
Y100630D02*
D03*
X126969Y100630D02*
D03*
Y104095D02*
D03*
X151969Y31161D02*
D03*
Y27697D02*
D03*
X146850Y31161D02*
D03*
Y27697D02*
D03*
X136614Y31161D02*
D03*
Y27697D02*
D03*
X141732Y85866D02*
D03*
Y89331D02*
D03*
X207087Y85197D02*
D03*
Y81732D02*
D03*
X141732Y31161D02*
D03*
Y27697D02*
D03*
X146653Y85866D02*
D03*
Y89331D02*
D03*
D20*
X218504Y13484D02*
D03*
Y18012D02*
D03*
X113189Y89862D02*
D03*
Y85335D02*
D03*
X207087Y91831D02*
D03*
Y96358D02*
D03*
X172933Y100098D02*
D03*
Y104626D02*
D03*
X151575Y85335D02*
D03*
Y89862D02*
D03*
X156890Y27165D02*
D03*
Y31693D02*
D03*
D21*
X209252Y13169D02*
D03*
Y18169D02*
D03*
Y23169D02*
D03*
Y28169D02*
D03*
X190354Y13169D02*
D03*
Y18169D02*
D03*
Y23169D02*
D03*
Y28169D02*
D03*
D22*
X210490Y64370D02*
D03*
X205962D02*
D03*
X205921Y57284D02*
D03*
X210449D02*
D03*
X163681Y70866D02*
D03*
X159153D02*
D03*
X163878Y42421D02*
D03*
X159350D02*
D03*
X191437Y36220D02*
D03*
X195965D02*
D03*
X159153Y65945D02*
D03*
X163681D02*
D03*
D23*
X225197Y104331D02*
D03*
X192913D02*
D03*
X127756Y7382D02*
D03*
D24*
X188976Y90650D02*
D03*
Y95965D02*
D03*
X125591Y31496D02*
D03*
Y26181D02*
D03*
X213386Y96358D02*
D03*
Y91043D02*
D03*
D25*
X72992Y96063D02*
D03*
X69528D02*
D03*
X207244Y36220D02*
D03*
X203780D02*
D03*
X209917Y46126D02*
D03*
X206453D02*
D03*
Y51657D02*
D03*
X209917D02*
D03*
X107047Y61417D02*
D03*
X103583D02*
D03*
X107047Y69291D02*
D03*
X103583D02*
D03*
X159969Y47272D02*
D03*
X163434D02*
D03*
X247992Y82972D02*
D03*
X244528D02*
D03*
X107047Y44685D02*
D03*
X103583D02*
D03*
X159685Y75590D02*
D03*
X163150D02*
D03*
X107047Y53543D02*
D03*
X103583D02*
D03*
D26*
X52165Y107220D02*
D03*
X67520D02*
D03*
Y9899D02*
D03*
X52165D02*
D03*
D27*
X120271Y69882D02*
D03*
D28*
Y67913D02*
D03*
Y65945D02*
D03*
Y63976D02*
D03*
Y62008D02*
D03*
Y60039D02*
D03*
Y58071D02*
D03*
Y56102D02*
D03*
Y54134D02*
D03*
Y52165D02*
D03*
Y50197D02*
D03*
Y48228D02*
D03*
X147446D02*
D03*
Y50197D02*
D03*
Y52165D02*
D03*
Y54134D02*
D03*
Y56102D02*
D03*
Y58071D02*
D03*
Y60039D02*
D03*
Y62008D02*
D03*
Y63976D02*
D03*
Y65945D02*
D03*
Y67913D02*
D03*
Y69882D02*
D03*
D29*
X123031Y45467D02*
D03*
X125000D02*
D03*
X126969D02*
D03*
X128937D02*
D03*
X130905D02*
D03*
X132874D02*
D03*
X134843D02*
D03*
X136811D02*
D03*
X138779D02*
D03*
X140748D02*
D03*
X142717D02*
D03*
X144685D02*
D03*
Y72643D02*
D03*
X142717D02*
D03*
X140748D02*
D03*
X138779D02*
D03*
X136811D02*
D03*
X134843D02*
D03*
X132874D02*
D03*
X130905D02*
D03*
X128937D02*
D03*
X126969D02*
D03*
X125000D02*
D03*
X123031D02*
D03*
D30*
X242913Y67913D02*
D03*
Y65945D02*
D03*
Y52165D02*
D03*
Y50197D02*
D03*
Y54134D02*
D03*
Y63976D02*
D03*
Y58071D02*
D03*
Y60039D02*
D03*
Y56102D02*
D03*
Y48228D02*
D03*
Y69882D02*
D03*
Y62008D02*
D03*
D31*
X222146Y67716D02*
D03*
Y65748D02*
D03*
Y61811D02*
D03*
Y59842D02*
D03*
X225295D02*
D03*
Y61811D02*
D03*
Y65748D02*
D03*
Y67716D02*
D03*
X222146Y52165D02*
D03*
Y50197D02*
D03*
Y46260D02*
D03*
Y44291D02*
D03*
X225295D02*
D03*
Y46260D02*
D03*
Y50197D02*
D03*
Y52165D02*
D03*
D32*
X222146Y63779D02*
D03*
X225295D02*
D03*
X222146Y48228D02*
D03*
X225295D02*
D03*
D33*
X134449Y99213D02*
D03*
X143110Y105512D02*
D03*
X134449D02*
D03*
X143110Y99213D02*
D03*
D34*
X196752Y94882D02*
D03*
Y93307D02*
D03*
X201673Y91732D02*
D03*
Y94882D02*
D03*
X196752Y91732D02*
D03*
X201673Y93307D02*
D03*
D35*
X104823Y14567D02*
D03*
X99508D02*
D03*
D36*
X111221Y22441D02*
D03*
Y36614D02*
D03*
D37*
X166634Y105315D02*
D03*
Y99409D02*
D03*
M02*
