G04*
G04 #@! TF.GenerationSoftware,Altium Limited,Altium Designer,25.7.1 (20)*
G04*
G04 Layer_Physical_Order=1*
G04 Layer_Color=255*
%FSLAX25Y25*%
%MOIN*%
G70*
G04*
G04 #@! TF.SameCoordinates,A9B1DE4C-7A59-4FA5-9EB3-CEC3AB9D3762*
G04*
G04*
G04 #@! TF.FilePolarity,Positive*
G04*
G01*
G75*
%ADD12C,0.00787*%
%ADD15C,0.00500*%
%ADD19R,0.15748X0.05906*%
%ADD20R,0.02520X0.02362*%
%ADD21R,0.02362X0.02953*%
%ADD22O,0.08661X0.02362*%
%ADD23C,0.06693*%
%ADD24R,0.06299X0.13780*%
%ADD25R,0.02362X0.02520*%
%ADD26R,0.02953X0.02362*%
%ADD27R,0.01968X0.00984*%
%ADD28R,0.01968X0.01772*%
G04:AMPARAMS|DCode=29|XSize=35.81mil|YSize=9.42mil|CornerRadius=4.71mil|HoleSize=0mil|Usage=FLASHONLY|Rotation=0.000|XOffset=0mil|YOffset=0mil|HoleType=Round|Shape=RoundedRectangle|*
%AMROUNDEDRECTD29*
21,1,0.03581,0.00000,0,0,0.0*
21,1,0.02639,0.00942,0,0,0.0*
1,1,0.00942,0.01320,0.00000*
1,1,0.00942,-0.01320,0.00000*
1,1,0.00942,-0.01320,0.00000*
1,1,0.00942,0.01320,0.00000*
%
%ADD29ROUNDEDRECTD29*%
%ADD30R,0.03543X0.01181*%
G04:AMPARAMS|DCode=31|XSize=9.42mil|YSize=35.81mil|CornerRadius=4.71mil|HoleSize=0mil|Usage=FLASHONLY|Rotation=0.000|XOffset=0mil|YOffset=0mil|HoleType=Round|Shape=RoundedRectangle|*
%AMROUNDEDRECTD31*
21,1,0.00942,0.02639,0,0,0.0*
21,1,0.00000,0.03581,0,0,0.0*
1,1,0.00942,0.00000,-0.01320*
1,1,0.00942,0.00000,-0.01320*
1,1,0.00942,0.00000,0.01320*
1,1,0.00942,0.00000,0.01320*
%
%ADD31ROUNDEDRECTD31*%
%ADD32R,0.03937X0.03543*%
G04:AMPARAMS|DCode=33|XSize=25.59mil|YSize=7.87mil|CornerRadius=0.98mil|HoleSize=0mil|Usage=FLASHONLY|Rotation=0.000|XOffset=0mil|YOffset=0mil|HoleType=Round|Shape=RoundedRectangle|*
%AMROUNDEDRECTD33*
21,1,0.02559,0.00591,0,0,0.0*
21,1,0.02362,0.00787,0,0,0.0*
1,1,0.00197,0.01181,-0.00295*
1,1,0.00197,-0.01181,-0.00295*
1,1,0.00197,-0.01181,0.00295*
1,1,0.00197,0.01181,0.00295*
%
%ADD33ROUNDEDRECTD33*%
%ADD34R,0.05512X0.04528*%
%ADD35R,0.03543X0.03937*%
%ADD36R,0.03581X0.00942*%
%ADD37R,0.03150X0.03150*%
%ADD54R,0.21260X0.21260*%
%ADD64C,0.00589*%
%ADD65R,0.01181X0.03701*%
%ADD66C,0.00811*%
%ADD67C,0.01000*%
%ADD68C,0.00811*%
%ADD69C,0.00511*%
%ADD70C,0.12795*%
%ADD71C,0.09626*%
%ADD72C,0.05504*%
%ADD73C,0.06024*%
%ADD74R,0.05504X0.05504*%
%ADD75C,0.02362*%
%ADD76O,0.05512X0.03150*%
%ADD77C,0.02559*%
%ADD78C,0.01968*%
G36*
X59842Y82677D02*
X47638D01*
Y41732D01*
X59842D01*
Y0D01*
X11811D01*
X11037Y-0D01*
X9502Y202D01*
X8006Y603D01*
X6576Y1195D01*
X5235Y1969D01*
X4007Y2912D01*
X2912Y4007D01*
X1969Y5235D01*
X1195Y6576D01*
X603Y8006D01*
X202Y9502D01*
X-0Y11037D01*
X0Y11811D01*
Y11811D01*
Y106299D01*
X-0Y107073D01*
X202Y108608D01*
X603Y110104D01*
X1195Y111534D01*
X1969Y112875D01*
X2912Y114103D01*
X4007Y115198D01*
X5235Y116141D01*
X6576Y116915D01*
X8006Y117507D01*
X9502Y117908D01*
X11037Y118110D01*
X11811Y118110D01*
X11811Y118110D01*
X59842D01*
Y82677D01*
D02*
G37*
G36*
X145862Y106224D02*
X145886Y106158D01*
X145925Y106098D01*
X145980Y106047D01*
X146051Y106004D01*
X146138Y105968D01*
X146240Y105941D01*
X146358Y105921D01*
X146492Y105909D01*
X146642Y105905D01*
Y105118D01*
X146492Y105114D01*
X146358Y105102D01*
X146240Y105083D01*
X146138Y105055D01*
X146051Y105020D01*
X145980Y104976D01*
X145925Y104925D01*
X145886Y104866D01*
X145862Y104799D01*
X145854Y104724D01*
Y106299D01*
X145862Y106224D01*
D02*
G37*
G36*
X168193Y106049D02*
X168218Y105980D01*
X168259Y105919D01*
X168316Y105867D01*
X168391Y105822D01*
X168481Y105786D01*
X168588Y105757D01*
X168712Y105737D01*
X168852Y105725D01*
X169008Y105721D01*
Y104909D01*
X168852Y104905D01*
X168712Y104893D01*
X168588Y104873D01*
X168481Y104844D01*
X168391Y104808D01*
X168316Y104763D01*
X168259Y104710D01*
X168218Y104650D01*
X168193Y104581D01*
X168185Y104504D01*
Y106126D01*
X168193Y106049D01*
D02*
G37*
G36*
X171776Y103815D02*
X171768Y103892D01*
X171743Y103961D01*
X171702Y104022D01*
X171644Y104074D01*
X171570Y104119D01*
X171480Y104155D01*
X171372Y104184D01*
X171249Y104204D01*
X171109Y104216D01*
X170953Y104220D01*
Y105032D01*
X171109Y105036D01*
X171249Y105048D01*
X171372Y105068D01*
X171480Y105097D01*
X171570Y105133D01*
X171644Y105178D01*
X171702Y105230D01*
X171743Y105291D01*
X171768Y105360D01*
X171776Y105437D01*
Y103815D01*
D02*
G37*
G36*
X149355Y103512D02*
X149349Y103548D01*
X149331Y103580D01*
X149301Y103608D01*
X149259Y103633D01*
X149206Y103654D01*
X149141Y103671D01*
X149063Y103684D01*
X148974Y103693D01*
X148760Y103701D01*
Y104488D01*
X148873Y104490D01*
X149063Y104505D01*
X149141Y104518D01*
X149206Y104535D01*
X149259Y104556D01*
X149301Y104581D01*
X149331Y104609D01*
X149349Y104641D01*
X149355Y104677D01*
Y103512D01*
D02*
G37*
G36*
X141480Y103272D02*
X141420Y103315D01*
X141348Y103336D01*
X141265Y103335D01*
X141171Y103312D01*
X141065Y103266D01*
X140948Y103198D01*
X140820Y103108D01*
X140680Y102995D01*
X140366Y102703D01*
X139810Y103260D01*
X139967Y103423D01*
X140214Y103714D01*
X140304Y103842D01*
X140372Y103959D01*
X140418Y104065D01*
X140442Y104159D01*
X140443Y104242D01*
X140422Y104313D01*
X140378Y104374D01*
X141480Y103272D01*
D02*
G37*
G36*
X128211Y101257D02*
X128232Y101208D01*
X128267Y101164D01*
X128315Y101127D01*
X128378Y101095D01*
X128454Y101070D01*
X128544Y101049D01*
X128648Y101035D01*
X128766Y101026D01*
X128898Y101024D01*
Y100236D01*
X128766Y100233D01*
X128544Y100210D01*
X128454Y100190D01*
X128378Y100164D01*
X128315Y100133D01*
X128267Y100095D01*
X128232Y100052D01*
X128211Y100003D01*
X128204Y99949D01*
Y101311D01*
X128211Y101257D01*
D02*
G37*
G36*
X131717Y98425D02*
X131709Y98500D01*
X131685Y98567D01*
X131645Y98626D01*
X131589Y98677D01*
X131517Y98721D01*
X131429Y98756D01*
X131325Y98783D01*
X131205Y98803D01*
X131069Y98815D01*
X130918Y98819D01*
Y99606D01*
X131069Y99610D01*
X131205Y99622D01*
X131325Y99642D01*
X131429Y99669D01*
X131517Y99705D01*
X131589Y99748D01*
X131645Y99799D01*
X131685Y99858D01*
X131709Y99925D01*
X131717Y100000D01*
Y98425D01*
D02*
G37*
G36*
X135161Y96965D02*
X135094Y96941D01*
X135035Y96901D01*
X134984Y96845D01*
X134941Y96773D01*
X134906Y96685D01*
X134878Y96581D01*
X134858Y96461D01*
X134846Y96325D01*
X134843Y96173D01*
X134055D01*
X134051Y96325D01*
X134039Y96461D01*
X134020Y96581D01*
X133992Y96685D01*
X133957Y96773D01*
X133913Y96845D01*
X133862Y96901D01*
X133803Y96941D01*
X133736Y96965D01*
X133661Y96973D01*
X135236D01*
X135161Y96965D01*
D02*
G37*
G36*
X198031Y92913D02*
X191445D01*
Y92921D01*
X186508D01*
Y92913D01*
X185827D01*
Y83071D01*
X181102Y78347D01*
X161417D01*
Y73228D01*
X157480D01*
X153667Y69415D01*
X150886D01*
X150537Y69346D01*
X150456Y69291D01*
X145276D01*
Y70353D01*
X145385Y70426D01*
X145600Y70747D01*
X145675Y71126D01*
Y72297D01*
X145705Y72446D01*
Y75070D01*
X146781Y76146D01*
X149508D01*
X149898Y76223D01*
X150129Y76378D01*
X151181D01*
X153051Y78248D01*
Y83358D01*
X153256D01*
Y86221D01*
X170866Y86221D01*
Y102362D01*
X176279D01*
Y110236D01*
X198031D01*
Y92913D01*
D02*
G37*
G36*
X262152Y117908D02*
X263647Y117507D01*
X265078Y116915D01*
X266418Y116141D01*
X267647Y115198D01*
X268742Y114103D01*
X269684Y112875D01*
X270458Y111534D01*
X271051Y110104D01*
X271451Y108608D01*
X271654Y107073D01*
Y106299D01*
Y87137D01*
X271300Y86846D01*
X246457D01*
X246066Y86769D01*
X245736Y86548D01*
X245515Y86217D01*
X245437Y85827D01*
Y74862D01*
X244793D01*
X244193Y74613D01*
X243733Y74154D01*
X243484Y73553D01*
Y72903D01*
X243733Y72303D01*
X244193Y71843D01*
X244793Y71595D01*
X245443D01*
X246044Y71843D01*
X246419Y72218D01*
X247212Y71425D01*
X247543Y71204D01*
X247933Y71126D01*
X250660D01*
X251168Y70619D01*
X251146Y70561D01*
X250767Y70185D01*
X250099D01*
X249481Y69929D01*
X249008Y69456D01*
X248752Y68838D01*
Y68170D01*
X249008Y67552D01*
X249310Y67250D01*
X249426Y66929D01*
X249310Y66608D01*
X249008Y66307D01*
X248752Y65689D01*
X248252Y65361D01*
X248011Y65461D01*
X247343D01*
X246725Y65205D01*
X246322Y64801D01*
X245185D01*
Y69004D01*
X240642D01*
Y68676D01*
X240607Y68675D01*
X240499Y68629D01*
X240260Y68582D01*
X240150Y68508D01*
X239476D01*
Y68678D01*
X239220Y69295D01*
X238748Y69768D01*
X238130Y70024D01*
X237461D01*
X236843Y69768D01*
X236445Y69370D01*
X236389Y69337D01*
X236337Y69268D01*
X236300Y69227D01*
X236262Y69193D01*
X236225Y69165D01*
X236187Y69143D01*
X236146Y69124D01*
X236100Y69109D01*
X236049Y69097D01*
X235990Y69090D01*
X235901Y69086D01*
X235863Y69069D01*
X235823Y69077D01*
X235802Y69063D01*
X235397D01*
X235044Y68993D01*
X234744Y68792D01*
X234460Y68508D01*
X227221D01*
X226964Y68680D01*
X226780Y68717D01*
Y68906D01*
X224394D01*
X224323Y68935D01*
X224255Y68906D01*
X224181Y68916D01*
X223811Y68906D01*
X223630D01*
X223260Y68916D01*
X223186Y68906D01*
X223118Y68935D01*
X223047Y68906D01*
X221058D01*
X219790Y70173D01*
X219491Y70373D01*
X219137Y70443D01*
X200736D01*
X200383Y70373D01*
X200083Y70173D01*
X192551Y62640D01*
X192058D01*
X191869Y62603D01*
X151387D01*
X151337Y63103D01*
X151497Y63134D01*
X151687Y63261D01*
X151795Y63301D01*
X151889Y63383D01*
X151954Y63392D01*
X152225Y63279D01*
X152893D01*
X153511Y63535D01*
X153984Y64008D01*
X154240Y64626D01*
Y65097D01*
X154734Y65310D01*
X154744Y65301D01*
X155039Y65103D01*
X155388Y65034D01*
X156835D01*
X156888Y65010D01*
X157023Y65007D01*
X157122Y64998D01*
X157177Y64989D01*
Y64264D01*
X161130D01*
Y67626D01*
X157177D01*
Y66901D01*
X157122Y66892D01*
X157023Y66883D01*
X156888Y66880D01*
X156835Y66856D01*
X155765D01*
X155365Y67256D01*
X155368Y67815D01*
X155410Y67901D01*
X156836Y69327D01*
X157177Y69185D01*
Y69185D01*
X161130D01*
Y72221D01*
X161205Y72244D01*
X161705Y71875D01*
Y69185D01*
X165657D01*
Y69339D01*
X165676Y69383D01*
X165707Y69435D01*
X165726Y69460D01*
X166157Y69625D01*
X166203Y69608D01*
X166371Y69441D01*
X166988Y69185D01*
X167657D01*
X168275Y69441D01*
X168748Y69914D01*
X169004Y70532D01*
Y71201D01*
X168748Y71818D01*
X168275Y72291D01*
X167657Y72547D01*
X166988D01*
X166371Y72291D01*
X166203Y72124D01*
X166157Y72107D01*
X165726Y72272D01*
X165707Y72298D01*
X165676Y72350D01*
X165657Y72393D01*
Y72547D01*
X162155D01*
X161883Y73047D01*
X161959Y73228D01*
Y77805D01*
X181102D01*
X181102Y77805D01*
X181485Y77964D01*
X181485Y77964D01*
X186209Y82688D01*
X186368Y83071D01*
X186368Y83071D01*
Y92372D01*
X186508D01*
X186527Y92380D01*
X191426D01*
X191445Y92372D01*
X195551D01*
X195571Y92364D01*
X197933D01*
X197953Y92372D01*
X198031D01*
X198414Y92531D01*
X198573Y92913D01*
Y92992D01*
X198581Y93012D01*
Y93602D01*
X198573Y93622D01*
Y94567D01*
X198581Y94587D01*
Y95177D01*
X198573Y95197D01*
Y110236D01*
X198414Y110619D01*
X198031Y110777D01*
X176279D01*
X175897Y110619D01*
X175738Y110236D01*
Y102903D01*
X174614D01*
Y106602D01*
X171252D01*
Y105597D01*
X171182Y105585D01*
X171079Y105576D01*
X170939Y105573D01*
X170886Y105549D01*
X170560D01*
X170141Y105968D01*
X169842Y106168D01*
X169488Y106238D01*
X169074D01*
X169022Y106262D01*
X168882Y106265D01*
X168779Y106274D01*
X168709Y106286D01*
Y107390D01*
X164559D01*
Y103240D01*
X168709D01*
Y104143D01*
X169209Y104289D01*
X169524Y103973D01*
X169824Y103773D01*
X170177Y103703D01*
X170886D01*
X170939Y103679D01*
X171079Y103676D01*
X171182Y103667D01*
X171252Y103655D01*
Y102903D01*
X170866D01*
X170483Y102745D01*
X170325Y102362D01*
Y86762D01*
X153256Y86762D01*
Y87311D01*
X150907D01*
X150430Y87386D01*
X150342Y87535D01*
X150276Y87694D01*
X150240Y87709D01*
X150220Y87743D01*
X149839Y88030D01*
X149672Y88074D01*
X149513Y88140D01*
X139764D01*
X139691Y88188D01*
Y98524D01*
X139691Y98524D01*
Y101296D01*
X140682Y102287D01*
X140735Y102307D01*
X141034Y102586D01*
X141146Y102675D01*
X141240Y102742D01*
X141251Y102748D01*
X141438D01*
X141480Y102731D01*
X141521Y102748D01*
X141524D01*
X141567Y102738D01*
X141583Y102748D01*
X146366D01*
Y104555D01*
X146426Y104565D01*
X146523Y104574D01*
X146656Y104577D01*
X146709Y104601D01*
X146965D01*
X148116Y103450D01*
X148411Y103253D01*
X148635Y103208D01*
X148741Y103160D01*
X148831Y103157D01*
Y102413D01*
X152350D01*
Y105776D01*
X148831D01*
Y105776D01*
X148503Y105640D01*
X147987Y106156D01*
X147691Y106354D01*
X147343Y106423D01*
X146709D01*
X146656Y106447D01*
X146523Y106450D01*
X146426Y106458D01*
X146366Y106469D01*
Y108276D01*
X139854D01*
Y104477D01*
X139844Y104460D01*
X139854Y104417D01*
Y104415D01*
X139837Y104374D01*
X139854Y104332D01*
Y104145D01*
X139848Y104134D01*
X139786Y104045D01*
X139566Y103786D01*
X139420Y103636D01*
X139399Y103581D01*
X138135Y102318D01*
X138091Y102251D01*
X137705Y101976D01*
X131193D01*
Y100169D01*
X131138Y100159D01*
X131039Y100151D01*
X130903Y100147D01*
X130851Y100124D01*
X130692D01*
X129542Y101274D01*
X129246Y101472D01*
X129017Y101517D01*
X128910Y101565D01*
X128792Y101567D01*
X128728Y101572D01*
Y102311D01*
X125209D01*
Y98949D01*
X128728D01*
Y98949D01*
X129126Y99113D01*
X129671Y98568D01*
X129966Y98371D01*
X130315Y98301D01*
X130851D01*
X130903Y98278D01*
X131039Y98274D01*
X131138Y98266D01*
X131193Y98257D01*
Y96449D01*
X133493D01*
X133502Y96394D01*
X133511Y96295D01*
X133514Y96159D01*
X133538Y96106D01*
Y94563D01*
X133607Y94214D01*
X133805Y93918D01*
X135900Y91823D01*
Y86976D01*
X135438Y86784D01*
X134635Y87587D01*
X134252Y87746D01*
X134252Y87746D01*
X126016D01*
X125746Y87634D01*
X125475Y87746D01*
X121063D01*
X120680Y87587D01*
X120658Y87587D01*
X120276Y87746D01*
X116142D01*
X115759Y87587D01*
X115601Y87205D01*
Y81570D01*
X115125Y81338D01*
X113959Y82504D01*
Y83286D01*
X113986Y83345D01*
X113986Y83358D01*
X114870D01*
Y87311D01*
X111508D01*
Y83358D01*
X112392D01*
X112392Y83345D01*
X112419Y83286D01*
Y82185D01*
X112477Y81890D01*
X112644Y81640D01*
X119042Y75243D01*
X119292Y75076D01*
X119587Y75017D01*
X122257D01*
X122409Y74517D01*
X122331Y74466D01*
X122117Y74144D01*
X122041Y73765D01*
Y73242D01*
X122038Y73242D01*
X121979Y73216D01*
X118621D01*
X109038Y82799D01*
Y84113D01*
X109064Y84172D01*
X109065Y84185D01*
X110028D01*
Y87547D01*
X106508D01*
Y84185D01*
X107471D01*
X107471Y84172D01*
X107497Y84113D01*
Y82480D01*
X107556Y82186D01*
X107723Y81936D01*
X117757Y71901D01*
X118007Y71734D01*
X118302Y71675D01*
X121979D01*
X122038Y71649D01*
X122041Y71649D01*
Y71126D01*
X121817Y70853D01*
X118177D01*
Y70542D01*
X118117Y70541D01*
X118002Y70490D01*
X117821Y70454D01*
X117558Y70278D01*
X117480Y70200D01*
X116836D01*
X109927Y77108D01*
X109665Y77284D01*
X109355Y77345D01*
X96305D01*
X96305Y77345D01*
X92756D01*
X92752Y77345D01*
X92412Y77485D01*
X92323Y77700D01*
X92283Y78184D01*
X92283D01*
X92174Y79013D01*
X91854Y79786D01*
X91345Y80450D01*
X90681Y80959D01*
X89908Y81280D01*
X89078Y81389D01*
X89078D01*
X89078D01*
Y81389D01*
X88249Y81280D01*
X87476Y80959D01*
X86812Y80450D01*
X86303Y79786D01*
X85983Y79013D01*
X85873Y78184D01*
X85885D01*
Y74469D01*
X85886Y74465D01*
X85745Y74125D01*
X85405Y73984D01*
X85401Y73985D01*
X85396Y73984D01*
X85056Y74125D01*
X84916Y74465D01*
X84916Y74469D01*
Y78184D01*
X84928D01*
X84819Y79013D01*
X84499Y79786D01*
X83990Y80450D01*
X83326Y80959D01*
X82553Y81280D01*
X81723Y81389D01*
X81723D01*
X81723D01*
Y81389D01*
X80894Y81280D01*
X80121Y80959D01*
X79457Y80450D01*
X78948Y79786D01*
X78628Y79013D01*
X78518Y78184D01*
X78530D01*
Y74469D01*
X78531Y74465D01*
X78390Y74125D01*
X78050Y73984D01*
X78046Y73985D01*
X78041Y73984D01*
X77701Y74125D01*
X77560Y74465D01*
X77561Y74469D01*
Y78184D01*
X77573D01*
X77464Y79013D01*
X77144Y79786D01*
X76634Y80450D01*
X75971Y80959D01*
X75198Y81280D01*
X74368Y81389D01*
X74368D01*
X74368D01*
Y81389D01*
X73539Y81280D01*
X72766Y80959D01*
X72102Y80450D01*
X71592Y79786D01*
X71272Y79013D01*
X71163Y78184D01*
X71163D01*
X71124Y77700D01*
X71035Y77485D01*
X70695Y77345D01*
X70691Y77345D01*
X69852D01*
X69852Y77345D01*
X59797D01*
X59753Y77369D01*
X59624Y77381D01*
X59512Y77410D01*
X59365Y77469D01*
X59189Y77561D01*
X58987Y77687D01*
X58772Y77842D01*
X57961Y78548D01*
X57663Y78844D01*
X57663Y78844D01*
X57663Y78844D01*
X57662Y78846D01*
X57563Y78886D01*
X57312Y79138D01*
X56570Y79566D01*
X55743Y79787D01*
X54887D01*
X54060Y79566D01*
X53318Y79138D01*
X52713Y78532D01*
X52285Y77791D01*
X52063Y76964D01*
Y76107D01*
X52285Y75280D01*
X52713Y74539D01*
X53318Y73933D01*
X54060Y73505D01*
X54887Y73283D01*
X55743D01*
X56570Y73505D01*
X57312Y73933D01*
X57563Y74185D01*
X57662Y74225D01*
X57968Y74529D01*
X58248Y74791D01*
X58767Y75226D01*
X58987Y75384D01*
X59189Y75510D01*
X59365Y75602D01*
X59512Y75661D01*
X59624Y75690D01*
X59753Y75702D01*
X59797Y75726D01*
X64175D01*
X64268Y75651D01*
X64532Y75237D01*
X64480Y75126D01*
X64475Y75014D01*
X64465Y74942D01*
X64450Y74886D01*
X64433Y74843D01*
X64415Y74810D01*
X64395Y74784D01*
X64370Y74760D01*
X64337Y74735D01*
X64292Y74710D01*
X64206Y74675D01*
X64164Y74633D01*
X64060Y74605D01*
X63318Y74177D01*
X62713Y73572D01*
X62285Y72830D01*
X62063Y72003D01*
Y71147D01*
X62285Y70320D01*
X62713Y69578D01*
X63318Y68973D01*
X64060Y68545D01*
X64442Y68442D01*
X64376Y67942D01*
X61271D01*
X60961Y67880D01*
X60698Y67705D01*
X60339Y67345D01*
X59797D01*
X59753Y67369D01*
X59624Y67381D01*
X59512Y67410D01*
X59365Y67469D01*
X59189Y67561D01*
X58987Y67687D01*
X58772Y67842D01*
X57961Y68548D01*
X57663Y68844D01*
X57663Y68844D01*
X57663Y68844D01*
X57662Y68846D01*
X57563Y68886D01*
X57312Y69138D01*
X56570Y69566D01*
X55743Y69787D01*
X54887D01*
X54060Y69566D01*
X53318Y69138D01*
X52713Y68532D01*
X52285Y67791D01*
X52063Y66964D01*
Y66107D01*
X52285Y65280D01*
X52713Y64539D01*
X53318Y63933D01*
X54060Y63505D01*
X54887Y63283D01*
X55743D01*
X56570Y63505D01*
X57312Y63933D01*
X57563Y64185D01*
X57662Y64225D01*
X57968Y64529D01*
X58248Y64791D01*
X58767Y65225D01*
X58987Y65383D01*
X59189Y65510D01*
X59365Y65602D01*
X59512Y65661D01*
X59554Y65672D01*
X59716Y65537D01*
X59858Y65302D01*
X59873Y65262D01*
X59874Y65225D01*
X59820Y64951D01*
Y63721D01*
X58818Y62719D01*
X51279D01*
X50970Y62658D01*
X50707Y62482D01*
X49034Y60809D01*
X48858Y60546D01*
X48796Y60236D01*
Y52756D01*
X48858Y52446D01*
X49034Y52183D01*
X50215Y51002D01*
X50477Y50827D01*
X50787Y50765D01*
X60833D01*
X60877Y50742D01*
X61005Y50729D01*
X61118Y50700D01*
X61264Y50641D01*
X61441Y50549D01*
X61642Y50423D01*
X61858Y50268D01*
X62669Y49562D01*
X62967Y49266D01*
X62967Y49266D01*
X62967Y49266D01*
X62968Y49264D01*
X63067Y49224D01*
X63318Y48973D01*
X64060Y48544D01*
X64887Y48323D01*
X65743D01*
X66570Y48544D01*
X67312Y48973D01*
X67917Y49578D01*
X68345Y50320D01*
X68567Y51147D01*
Y52003D01*
X68345Y52830D01*
X67917Y53572D01*
X67312Y54177D01*
X66570Y54605D01*
X65743Y54827D01*
X64887D01*
X64060Y54605D01*
X63318Y54177D01*
X63067Y53926D01*
X62968Y53885D01*
X62662Y53581D01*
X62382Y53319D01*
X61862Y52885D01*
X61642Y52727D01*
X61441Y52600D01*
X61264Y52508D01*
X61118Y52450D01*
X61005Y52420D01*
X60877Y52408D01*
X60833Y52385D01*
X51123D01*
X50416Y53091D01*
Y59901D01*
X51615Y61099D01*
X59153D01*
X59464Y61161D01*
X59726Y61337D01*
X61203Y62813D01*
X61378Y63076D01*
X61440Y63386D01*
Y64616D01*
X62057Y65233D01*
X64472D01*
X64538Y64733D01*
X64060Y64605D01*
X63318Y64177D01*
X62713Y63572D01*
X62285Y62830D01*
X62063Y62003D01*
Y61147D01*
X62285Y60320D01*
X62713Y59578D01*
X63318Y58973D01*
X64060Y58544D01*
X64147Y58521D01*
X64185Y58483D01*
X64239Y58459D01*
X64253Y58451D01*
X64261Y58444D01*
X64268Y58437D01*
X64277Y58424D01*
X64287Y58402D01*
X64299Y58367D01*
X64310Y58317D01*
X64319Y58251D01*
X64322Y58149D01*
X64374Y58036D01*
X64409Y57859D01*
X64419Y57845D01*
X64151Y57345D01*
X59797D01*
X59753Y57369D01*
X59624Y57381D01*
X59512Y57410D01*
X59365Y57469D01*
X59189Y57561D01*
X58987Y57687D01*
X58772Y57842D01*
X57961Y58548D01*
X57663Y58845D01*
X57663Y58845D01*
X57663Y58845D01*
X57662Y58846D01*
X57563Y58886D01*
X57312Y59138D01*
X56570Y59566D01*
X55743Y59787D01*
X54887D01*
X54060Y59566D01*
X53318Y59138D01*
X52713Y58532D01*
X52285Y57791D01*
X52063Y56964D01*
Y56107D01*
X52285Y55280D01*
X52713Y54539D01*
X53318Y53933D01*
X54060Y53505D01*
X54887Y53284D01*
X55743D01*
X56570Y53505D01*
X57312Y53933D01*
X57563Y54185D01*
X57662Y54225D01*
X57968Y54529D01*
X58248Y54791D01*
X58767Y55225D01*
X58987Y55383D01*
X59189Y55510D01*
X59365Y55602D01*
X59512Y55661D01*
X59624Y55690D01*
X59753Y55702D01*
X59797Y55726D01*
X73684D01*
X74067Y55717D01*
Y55717D01*
X74897Y55826D01*
X75670Y56146D01*
X76333Y56656D01*
X76843Y57319D01*
X77163Y58092D01*
X77272Y58922D01*
X77260D01*
Y59437D01*
X77259Y59442D01*
X77400Y59782D01*
X77740Y59923D01*
X77745Y59922D01*
X77749Y59923D01*
X78089Y59782D01*
X78230Y59442D01*
X78229Y59437D01*
Y54681D01*
X78217D01*
X78326Y53851D01*
X78647Y53078D01*
X79156Y52414D01*
X79820Y51905D01*
X80593Y51585D01*
X81422Y51476D01*
X81422D01*
X81422D01*
Y51476D01*
X82252Y51585D01*
X83025Y51905D01*
X83689Y52414D01*
X84198Y53078D01*
X84518Y53851D01*
X84627Y54681D01*
X84615D01*
Y59437D01*
X84615Y59442D01*
X84755Y59782D01*
X85096Y59923D01*
X85100Y59922D01*
X85104Y59923D01*
X85444Y59782D01*
X85585Y59442D01*
X85584Y59437D01*
Y54681D01*
X85572D01*
X85682Y53851D01*
X86002Y53078D01*
X86511Y52414D01*
X87175Y51905D01*
X87948Y51585D01*
X88777Y51476D01*
X88777D01*
X88778D01*
Y51476D01*
X89607Y51585D01*
X90380Y51905D01*
X91044Y52414D01*
X91553Y53078D01*
X91873Y53851D01*
X91982Y54681D01*
X91971D01*
Y58988D01*
X91970Y58992D01*
X92015Y59102D01*
X92473Y59291D01*
X92841Y59137D01*
X92928Y58922D01*
X92928D01*
X93037Y58092D01*
X93357Y57319D01*
X93866Y56656D01*
X94530Y56146D01*
X95303Y55826D01*
X96133Y55717D01*
Y55729D01*
X105055D01*
X105069Y55709D01*
Y51279D01*
X105095Y51218D01*
X104761Y50718D01*
X103310D01*
X103310Y50718D01*
X97101D01*
Y50730D01*
X96272Y50620D01*
X95499Y50300D01*
X94835Y49791D01*
X94326Y49127D01*
X94006Y48354D01*
X93896Y47524D01*
X93908D01*
Y45086D01*
X93909Y45082D01*
X93768Y44742D01*
X93428Y44601D01*
X93424Y44602D01*
X93419Y44601D01*
X93079Y44742D01*
X92938Y45082D01*
X92939Y45086D01*
Y47838D01*
X92951D01*
X92842Y48668D01*
X92522Y49441D01*
X92012Y50104D01*
X91349Y50614D01*
X90576Y50934D01*
X89746Y51043D01*
X89746D01*
X89746D01*
Y51043D01*
X88917Y50934D01*
X88144Y50614D01*
X87480Y50104D01*
X86971Y49441D01*
X86650Y48668D01*
X86541Y47838D01*
X86553D01*
Y45086D01*
X86554Y45082D01*
X86413Y44742D01*
X86073Y44601D01*
X86069Y44602D01*
X86064Y44601D01*
X85724Y44742D01*
X85583Y45082D01*
X85584Y45086D01*
Y47838D01*
X85596D01*
X85487Y48668D01*
X85167Y49441D01*
X84657Y50104D01*
X83994Y50614D01*
X83220Y50934D01*
X82391Y51043D01*
X82391D01*
X82391D01*
Y51043D01*
X81561Y50934D01*
X80788Y50614D01*
X80125Y50104D01*
X79615Y49441D01*
X79295Y48668D01*
X79186Y47838D01*
X79198D01*
Y45086D01*
X79199Y45082D01*
X79058Y44742D01*
X78718Y44601D01*
X78713Y44602D01*
X78709Y44601D01*
X78369Y44742D01*
X78228Y45082D01*
X78229Y45086D01*
Y47838D01*
X78241D01*
X78132Y48668D01*
X77811Y49441D01*
X77302Y50104D01*
X76638Y50614D01*
X75865Y50934D01*
X75036Y51043D01*
X75036D01*
X75036D01*
Y51043D01*
X74206Y50934D01*
X73433Y50614D01*
X72770Y50104D01*
X72260Y49441D01*
X71940Y48668D01*
X71831Y47838D01*
X71831D01*
X71589Y47438D01*
X71363Y47344D01*
X71358Y47345D01*
X70520D01*
X70519Y47345D01*
X59797D01*
X59753Y47369D01*
X59624Y47381D01*
X59512Y47410D01*
X59365Y47469D01*
X59189Y47561D01*
X58987Y47687D01*
X58772Y47842D01*
X57961Y48548D01*
X57663Y48845D01*
X57663Y48845D01*
X57663Y48845D01*
X57662Y48846D01*
X57563Y48886D01*
X57312Y49138D01*
X56570Y49566D01*
X55743Y49787D01*
X54887D01*
X54060Y49566D01*
X53318Y49138D01*
X52713Y48532D01*
X52285Y47791D01*
X52063Y46964D01*
Y46107D01*
X52285Y45280D01*
X52713Y44539D01*
X53318Y43933D01*
X54060Y43505D01*
X54887Y43284D01*
X55743D01*
X56570Y43505D01*
X57312Y43933D01*
X57563Y44185D01*
X57662Y44225D01*
X57968Y44529D01*
X58248Y44791D01*
X58767Y45226D01*
X58987Y45384D01*
X59189Y45510D01*
X59365Y45602D01*
X59512Y45661D01*
X59624Y45690D01*
X59753Y45702D01*
X59797Y45726D01*
X64175D01*
X64268Y45651D01*
X64532Y45237D01*
X64480Y45126D01*
X64475Y45014D01*
X64465Y44942D01*
X64450Y44886D01*
X64433Y44843D01*
X64415Y44810D01*
X64395Y44784D01*
X64370Y44760D01*
X64337Y44735D01*
X64292Y44710D01*
X64206Y44675D01*
X64164Y44633D01*
X64060Y44605D01*
X63318Y44177D01*
X62713Y43572D01*
X62285Y42830D01*
X62063Y42003D01*
Y41147D01*
X62285Y40320D01*
X62713Y39578D01*
X63318Y38973D01*
X64060Y38544D01*
X64887Y38323D01*
X65743D01*
X66570Y38544D01*
X67312Y38973D01*
X67917Y39578D01*
X68345Y40320D01*
X68567Y41147D01*
Y42003D01*
X68345Y42830D01*
X67917Y43572D01*
X67352Y44137D01*
X67372Y44313D01*
X67516Y44637D01*
X71358D01*
Y44625D01*
X72188Y44734D01*
X72961Y45054D01*
X73624Y45564D01*
X74134Y46227D01*
X74454Y47000D01*
X74563Y47830D01*
X74563D01*
X74805Y48230D01*
X75032Y48323D01*
X75036Y48323D01*
X75040Y48323D01*
X75380Y48182D01*
X75521Y47842D01*
X75520Y47838D01*
Y45086D01*
X75508D01*
X75618Y44256D01*
X75938Y43483D01*
X76447Y42820D01*
X77111Y42310D01*
X77884Y41990D01*
X78713Y41881D01*
X78713D01*
X78713D01*
Y41881D01*
X79543Y41990D01*
X80316Y42310D01*
X80980Y42820D01*
X81489Y43483D01*
X81809Y44256D01*
X81918Y45086D01*
X81906D01*
Y47838D01*
X81906Y47842D01*
X82047Y48182D01*
X82387Y48323D01*
X82391Y48323D01*
X82395Y48323D01*
X82735Y48182D01*
X82876Y47842D01*
X82875Y47838D01*
Y45086D01*
X82864D01*
X82973Y44256D01*
X83293Y43483D01*
X83802Y42820D01*
X84466Y42310D01*
X85239Y41990D01*
X86068Y41881D01*
X86068D01*
X86069D01*
Y41881D01*
X86898Y41990D01*
X87671Y42310D01*
X88335Y42820D01*
X88844Y43483D01*
X89164Y44256D01*
X89274Y45086D01*
X89262D01*
Y47838D01*
X89261Y47842D01*
X89402Y48182D01*
X89742Y48323D01*
X89746Y48323D01*
X89750Y48323D01*
X90091Y48182D01*
X90231Y47842D01*
X90231Y47838D01*
Y45086D01*
X90219D01*
X90328Y44256D01*
X90648Y43483D01*
X91157Y42820D01*
X91821Y42310D01*
X92594Y41990D01*
X93424Y41881D01*
X93424D01*
X93424D01*
Y41881D01*
X94253Y41990D01*
X95026Y42310D01*
X95690Y42820D01*
X96199Y43483D01*
X96520Y44256D01*
X96629Y45086D01*
X96617D01*
Y47524D01*
X96616Y47529D01*
X96757Y47869D01*
X97097Y48010D01*
X97101Y48009D01*
X111068D01*
X111336Y47509D01*
X111323Y47490D01*
X105512D01*
X105129Y47332D01*
X104971Y46949D01*
Y42520D01*
X105129Y42137D01*
X105512Y41978D01*
X105493Y41486D01*
X103937D01*
X103937Y41486D01*
X103554Y41328D01*
X101979Y39753D01*
X101979Y39753D01*
X101821Y39370D01*
X101821Y39370D01*
Y31496D01*
X101865Y31389D01*
X101954Y31004D01*
X101865Y30619D01*
X101821Y30512D01*
Y2953D01*
X101979Y2570D01*
X102362Y2412D01*
X134252D01*
X134635Y2570D01*
X134793Y2953D01*
Y19685D01*
X134635Y20068D01*
X134252Y20226D01*
X122982D01*
Y28888D01*
X133169D01*
X133452Y29005D01*
X133735Y28888D01*
X138583D01*
X138965Y29046D01*
X139071Y29301D01*
X139544Y29358D01*
X139591Y29350D01*
X139676Y29145D01*
X140059Y28986D01*
X143266D01*
X143366Y29028D01*
X143473D01*
X143798Y29115D01*
X144149Y29045D01*
X144291Y28986D01*
X153937D01*
X154183Y28822D01*
Y24409D01*
X154342Y24027D01*
X154724Y23868D01*
X173622D01*
X174005Y24027D01*
X174163Y24409D01*
X174163Y36390D01*
X175716Y37943D01*
X188978Y37943D01*
X189461Y37443D01*
Y34539D01*
X190481D01*
X190490Y34484D01*
X190499Y34385D01*
X190502Y34250D01*
X190526Y34197D01*
Y33547D01*
X189021Y32042D01*
X188823Y31746D01*
X188754Y31398D01*
Y30203D01*
X188731Y30150D01*
X188727Y30015D01*
X188718Y29915D01*
X188713Y29883D01*
X187205D01*
X186549Y29753D01*
X186072Y29434D01*
X186066Y29433D01*
X186063Y29428D01*
X185993Y29381D01*
X185866Y29191D01*
X185860Y29190D01*
X185779Y29173D01*
X185496Y29147D01*
X185321Y29144D01*
X185267Y29120D01*
X184751D01*
X184702Y29143D01*
X184698Y29142D01*
X184695Y29143D01*
X184615Y29146D01*
X184558Y29151D01*
X184509Y29160D01*
X184467Y29170D01*
X184431Y29183D01*
X184399Y29197D01*
X184372Y29212D01*
X184347Y29229D01*
X184324Y29249D01*
X184284Y29289D01*
X184186Y29330D01*
X184010Y29506D01*
X183465Y29732D01*
X182874D01*
X182328Y29506D01*
X181911Y29089D01*
X181685Y28543D01*
Y27953D01*
X181911Y27407D01*
X182328Y26990D01*
X182874Y26764D01*
X183465D01*
X184010Y26990D01*
X184115Y27095D01*
X184198Y27122D01*
X184243Y27161D01*
X184273Y27183D01*
X184304Y27202D01*
X184338Y27219D01*
X184376Y27234D01*
X184418Y27247D01*
X184466Y27258D01*
X184519Y27266D01*
X184578Y27272D01*
X184659Y27274D01*
X184712Y27297D01*
X185226D01*
X185276Y27274D01*
X185282Y27276D01*
X185288Y27274D01*
X185471Y27270D01*
X185617Y27261D01*
X185735Y27246D01*
X185810Y27231D01*
X185910Y27081D01*
X185917Y27061D01*
X185926Y27057D01*
X185993Y26957D01*
X186549Y26586D01*
X187205Y26455D01*
X193504D01*
X194160Y26586D01*
X194716Y26957D01*
X195088Y27513D01*
X195218Y28169D01*
X195088Y28825D01*
X194716Y29381D01*
X194160Y29753D01*
X193504Y29883D01*
X190618D01*
X190612Y29915D01*
X190604Y30015D01*
X190600Y30150D01*
X190577Y30203D01*
Y31020D01*
X192081Y32525D01*
X192279Y32821D01*
X192348Y33169D01*
Y34197D01*
X192372Y34250D01*
X192375Y34385D01*
X192384Y34484D01*
X192393Y34539D01*
X193413D01*
X193413Y37902D01*
X193896Y37943D01*
X204471Y37943D01*
X204919Y37494D01*
Y34575D01*
X204872Y34461D01*
Y32015D01*
X203358Y30501D01*
X203357Y30501D01*
X203199Y30118D01*
X203199Y30118D01*
Y26083D01*
X203358Y25700D01*
X203740Y25541D01*
X216043D01*
X216426Y25700D01*
X216584Y26083D01*
Y40650D01*
X216584Y40650D01*
X216426Y41032D01*
X213965Y43493D01*
X213965Y43493D01*
X213583Y43652D01*
X213583Y43651D01*
X175716Y43652D01*
X174103Y45265D01*
X173721Y45423D01*
X173720Y45423D01*
X161992D01*
X161959Y45472D01*
Y49602D01*
X195014D01*
X195367Y49672D01*
X195667Y49872D01*
X205239Y59445D01*
X208424D01*
X208472Y58965D01*
X208472D01*
Y55602D01*
X212425D01*
Y56313D01*
X212495Y56324D01*
X212599Y56333D01*
X212739Y56337D01*
X212791Y56360D01*
X219696D01*
X220607Y55449D01*
X220906Y55249D01*
X221260Y55179D01*
X240282D01*
X240336Y55155D01*
X240479Y55154D01*
X240642Y55145D01*
Y52874D01*
X240440Y52834D01*
X240330Y52760D01*
X239575D01*
Y52874D01*
X239319Y53492D01*
X238846Y53965D01*
X238228Y54220D01*
X237559D01*
X236941Y53965D01*
X236469Y53492D01*
X236213Y52874D01*
Y52760D01*
X227221D01*
X226964Y52932D01*
X226780Y52969D01*
Y53158D01*
X224394D01*
X224323Y53187D01*
X224255Y53158D01*
X224181Y53168D01*
X223811Y53158D01*
X223630D01*
X223260Y53168D01*
X223186Y53158D01*
X223118Y53187D01*
X223047Y53158D01*
X220661D01*
Y52969D01*
X220477Y52932D01*
X220177Y52732D01*
X219923Y52478D01*
X216510D01*
X216156Y52408D01*
X215857Y52207D01*
X214121Y50471D01*
X211598D01*
Y53416D01*
X208634D01*
X208236Y53416D01*
X207736Y53416D01*
X204772D01*
Y51713D01*
X204272Y51506D01*
X204102Y51676D01*
X203484Y51932D01*
X202815D01*
X202197Y51676D01*
X201725Y51203D01*
X201468Y50585D01*
Y49916D01*
X201725Y49298D01*
X202130Y48892D01*
X201725Y48486D01*
X201468Y47868D01*
Y47199D01*
X201725Y46582D01*
X202197Y46109D01*
X202815Y45853D01*
X203484D01*
X204102Y46109D01*
X204272Y46279D01*
X204772Y46071D01*
Y44368D01*
X207736D01*
X208134Y44368D01*
X208634Y44368D01*
X211598D01*
Y47313D01*
X215046D01*
X215400Y47383D01*
X215699Y47584D01*
X217435Y49320D01*
X220351D01*
X220398Y49288D01*
X220661Y49236D01*
Y49205D01*
X223047D01*
X223118Y49176D01*
X223186Y49204D01*
X223260Y49194D01*
X223630Y49205D01*
X223811D01*
X224181Y49194D01*
X224255Y49204D01*
X224323Y49176D01*
X224394Y49205D01*
X226780D01*
Y49393D01*
X226964Y49430D01*
X227221Y49602D01*
X236213D01*
Y49488D01*
X236469Y48871D01*
X236941Y48398D01*
X237559Y48142D01*
X238228D01*
X238846Y48398D01*
X239319Y48871D01*
X239575Y49488D01*
Y49602D01*
X240330D01*
X240440Y49529D01*
X240642Y49488D01*
Y49106D01*
X245185D01*
Y53309D01*
X246322D01*
X246725Y52906D01*
X247343Y52650D01*
X248011D01*
X248252Y52749D01*
X248752Y52421D01*
X249008Y51804D01*
X249310Y51502D01*
X249426Y51181D01*
X249310Y50860D01*
X249008Y50559D01*
X248752Y49941D01*
Y49272D01*
X249008Y48654D01*
X249481Y48181D01*
X249738Y48075D01*
X249638Y47575D01*
X248506D01*
X248116Y47497D01*
X247809Y47370D01*
X247728D01*
X247338Y47292D01*
X247007Y47071D01*
X246123Y46187D01*
X246044Y46267D01*
X245443Y46516D01*
X244793D01*
X244193Y46267D01*
X243733Y45807D01*
X243484Y45207D01*
Y44557D01*
X243733Y43956D01*
X244193Y43497D01*
X244793Y43248D01*
X245443D01*
X245732Y43055D01*
Y31299D01*
X245810Y30909D01*
X246031Y30578D01*
X246362Y30357D01*
X246752Y30280D01*
X271654D01*
X271654Y30280D01*
Y11811D01*
Y11037D01*
X271451Y9502D01*
X271051Y8006D01*
X270458Y6576D01*
X269684Y5235D01*
X268742Y4007D01*
X267647Y2912D01*
X266418Y1969D01*
X265078Y1195D01*
X263647Y603D01*
X262152Y202D01*
X260617Y0D01*
X60384D01*
Y41732D01*
X60225Y42115D01*
X59842Y42274D01*
X48179D01*
Y82136D01*
X59842D01*
X60225Y82294D01*
X60384Y82677D01*
Y118110D01*
X260617D01*
X262152Y117908D01*
D02*
G37*
G36*
X108730Y84692D02*
X108687Y84677D01*
X108649Y84651D01*
X108615Y84615D01*
X108587Y84569D01*
X108564Y84513D01*
X108546Y84447D01*
X108534Y84370D01*
X108526Y84283D01*
X108523Y84186D01*
X108012D01*
X108010Y84283D01*
X108002Y84370D01*
X107989Y84447D01*
X107971Y84513D01*
X107948Y84569D01*
X107920Y84615D01*
X107887Y84651D01*
X107849Y84677D01*
X107805Y84692D01*
X107757Y84697D01*
X108779D01*
X108730Y84692D01*
D02*
G37*
G36*
X113652Y83865D02*
X113608Y83850D01*
X113570Y83824D01*
X113537Y83789D01*
X113508Y83742D01*
X113485Y83686D01*
X113468Y83620D01*
X113455Y83543D01*
X113447Y83456D01*
X113444Y83359D01*
X112933D01*
X112931Y83456D01*
X112923Y83543D01*
X112910Y83620D01*
X112892Y83686D01*
X112870Y83742D01*
X112841Y83789D01*
X112808Y83824D01*
X112770Y83850D01*
X112726Y83865D01*
X112678Y83870D01*
X113700D01*
X113652Y83865D01*
D02*
G37*
G36*
X152480Y83872D02*
X152395Y83842D01*
X152320Y83791D01*
X152255Y83720D01*
X152200Y83629D01*
X152155Y83518D01*
X152120Y83386D01*
X152095Y83235D01*
X152080Y83062D01*
X152075Y82870D01*
X151075D01*
X151070Y83062D01*
X151055Y83235D01*
X151030Y83386D01*
X150995Y83518D01*
X150950Y83629D01*
X150895Y83720D01*
X150830Y83791D01*
X150755Y83842D01*
X150670Y83872D01*
X150575Y83882D01*
X152575D01*
X152480Y83872D01*
D02*
G37*
G36*
X89423Y78528D02*
X89512Y78314D01*
X89551Y77830D01*
X89551D01*
X89660Y77000D01*
X89980Y76227D01*
X90490Y75564D01*
X91154Y75054D01*
X91926Y74734D01*
X92756Y74625D01*
Y74637D01*
X108568D01*
X111040Y72165D01*
X111021Y72087D01*
X110795Y71703D01*
X105413Y71703D01*
X105031Y71544D01*
X104872Y71161D01*
Y67520D01*
X104941Y67353D01*
X104661Y66853D01*
X95178D01*
X95174Y66852D01*
X94834Y66993D01*
X94693Y67333D01*
X94694Y67338D01*
Y69668D01*
X94719D01*
X94557Y70483D01*
X94096Y71174D01*
X93405Y71635D01*
X92590Y71797D01*
X92590D01*
X92590D01*
Y71797D01*
X91775Y71635D01*
X91084Y71174D01*
X90622Y70483D01*
X90460Y69668D01*
X90485D01*
Y68427D01*
X90486Y68422D01*
X90345Y68082D01*
X90005Y67941D01*
X90001Y67942D01*
X89996Y67941D01*
X89656Y68082D01*
X89516Y68422D01*
X89516Y68427D01*
Y69710D01*
X89542D01*
X89380Y70525D01*
X88918Y71216D01*
X88227Y71677D01*
X87891Y71744D01*
X87787Y71958D01*
X87731Y72286D01*
X88176Y72867D01*
X88497Y73640D01*
X88606Y74469D01*
X88594D01*
Y78184D01*
X88593Y78188D01*
X88734Y78528D01*
X89074Y78669D01*
X89078Y78668D01*
X89083Y78669D01*
X89423Y78528D01*
D02*
G37*
G36*
X74713D02*
X74853Y78188D01*
X74853Y78184D01*
Y74469D01*
X74841D01*
X74950Y73640D01*
X75270Y72867D01*
X75779Y72203D01*
X75947Y72075D01*
X75927Y71460D01*
X75551Y71209D01*
X75089Y70518D01*
X74927Y69703D01*
X74953D01*
Y68427D01*
X74953Y68422D01*
X74813Y68082D01*
X74472Y67941D01*
X74468Y67942D01*
X74464Y67941D01*
X74124Y68082D01*
X73983Y68422D01*
X73984Y68427D01*
Y71500D01*
X74009D01*
X73847Y72315D01*
X73385Y73006D01*
X72694Y73468D01*
X71879Y73630D01*
X71879D01*
X71879D01*
Y73630D01*
X71064Y73468D01*
X70373Y73006D01*
X69912Y72315D01*
X69750Y71500D01*
X69775D01*
Y68427D01*
X69776Y68422D01*
X69635Y68082D01*
X69295Y67941D01*
X69291Y67942D01*
X66254D01*
X66188Y68442D01*
X66570Y68545D01*
X67312Y68973D01*
X67917Y69578D01*
X68345Y70320D01*
X68567Y71147D01*
Y72003D01*
X68345Y72830D01*
X67917Y73572D01*
X67352Y74137D01*
X67372Y74313D01*
X67516Y74637D01*
X70691D01*
Y74625D01*
X71520Y74734D01*
X72293Y75054D01*
X72957Y75564D01*
X73466Y76227D01*
X73786Y77000D01*
X73896Y77830D01*
X73896D01*
X73935Y78314D01*
X73976Y78412D01*
X74486Y78622D01*
X74713Y78528D01*
D02*
G37*
G36*
X57592Y78152D02*
X58436Y77417D01*
X58686Y77238D01*
X58920Y77091D01*
X59139Y76977D01*
X59342Y76895D01*
X59530Y76846D01*
X59702Y76830D01*
Y76241D01*
X59530Y76225D01*
X59342Y76176D01*
X59139Y76094D01*
X58920Y75980D01*
X58686Y75833D01*
X58436Y75653D01*
X57889Y75197D01*
X57592Y74919D01*
X57280Y74609D01*
Y78462D01*
X57592Y78152D01*
D02*
G37*
G36*
X65615Y74964D02*
X65634Y74836D01*
X65664Y74718D01*
X65707Y74610D01*
X65762Y74512D01*
X65829Y74424D01*
X65908Y74347D01*
X66000Y74279D01*
X66103Y74221D01*
X66219Y74174D01*
X64411D01*
X64527Y74221D01*
X64630Y74279D01*
X64722Y74347D01*
X64801Y74424D01*
X64868Y74512D01*
X64923Y74610D01*
X64966Y74718D01*
X64996Y74836D01*
X65014Y74964D01*
X65021Y75102D01*
X65609D01*
X65615Y74964D01*
D02*
G37*
G36*
X139212Y73944D02*
X138347D01*
X138355Y73963D01*
X138361Y73997D01*
X138367Y74045D01*
X138376Y74185D01*
X138386Y74790D01*
X139173D01*
X139212Y73944D01*
D02*
G37*
G36*
X137243D02*
X136379D01*
X136386Y73963D01*
X136393Y73997D01*
X136398Y74045D01*
X136408Y74185D01*
X136417Y74790D01*
X137205D01*
X137243Y73944D01*
D02*
G37*
G36*
X125257Y74570D02*
X125271Y74405D01*
X125284Y74328D01*
X125300Y74255D01*
X125319Y74186D01*
X125342Y74120D01*
X125369Y74058D01*
X125399Y73999D01*
X125432Y73944D01*
X124568D01*
X124601Y73999D01*
X124631Y74058D01*
X124658Y74120D01*
X124681Y74186D01*
X124700Y74255D01*
X124716Y74328D01*
X124729Y74405D01*
X124743Y74570D01*
X124744Y74658D01*
X125256D01*
X125257Y74570D01*
D02*
G37*
G36*
X122575Y71935D02*
X122570Y71983D01*
X122555Y72027D01*
X122528Y72065D01*
X122492Y72098D01*
X122445Y72126D01*
X122387Y72149D01*
X122319Y72167D01*
X122241Y72180D01*
X122152Y72188D01*
X122052Y72190D01*
Y72701D01*
X122152Y72704D01*
X122241Y72712D01*
X122319Y72724D01*
X122387Y72742D01*
X122445Y72765D01*
X122492Y72793D01*
X122528Y72827D01*
X122555Y72865D01*
X122570Y72908D01*
X122575Y72957D01*
Y71935D01*
D02*
G37*
G36*
X149894Y87311D02*
Y83358D01*
X150000D01*
Y79099D01*
X149085Y78185D01*
X146358D01*
X145968Y78107D01*
X145637Y77886D01*
X143964Y76213D01*
X143743Y75882D01*
X143730Y75817D01*
X143602Y75689D01*
Y70669D01*
X139981D01*
X139770Y71126D01*
Y73765D01*
X139764Y73795D01*
Y87598D01*
X149513D01*
X149894Y87311D01*
D02*
G37*
G36*
X135728Y85728D02*
Y70669D01*
X134283D01*
X133864Y71126D01*
Y73765D01*
X133789Y74144D01*
X133574Y74466D01*
X133253Y74680D01*
X132874Y74756D01*
X132495Y74680D01*
X132174Y74466D01*
X131959Y74144D01*
X131884Y73765D01*
Y71126D01*
X131465Y70669D01*
X130315D01*
Y79956D01*
X129275Y80996D01*
X127474Y80996D01*
X126016Y82453D01*
Y87205D01*
X134252D01*
X135728Y85728D01*
D02*
G37*
G36*
X125475Y82453D02*
X125475Y82453D01*
X125587Y82182D01*
X125591Y82175D01*
Y81988D01*
X127165Y80413D01*
X129035D01*
X129429Y80020D01*
Y70669D01*
X128445D01*
Y77854D01*
X127362Y78937D01*
X124114D01*
X121063Y81988D01*
Y87205D01*
X125475D01*
Y82453D01*
D02*
G37*
G36*
X120276Y82076D02*
X120254Y82054D01*
X120665Y81643D01*
X120680Y81605D01*
X123732Y78554D01*
X123769Y78539D01*
X123950Y78358D01*
X126859D01*
X127854Y77362D01*
Y76378D01*
Y70867D01*
X127657Y70669D01*
X126083D01*
Y76279D01*
X125689Y76673D01*
X120866D01*
X116142Y81398D01*
Y87205D01*
X120276D01*
Y82076D01*
D02*
G37*
G36*
X157701Y70460D02*
X157696Y70481D01*
X157680Y70500D01*
X157655Y70517D01*
X157619Y70531D01*
X157572Y70543D01*
X157515Y70553D01*
X157448Y70561D01*
X157283Y70570D01*
X157185Y70571D01*
Y71358D01*
X157283Y71359D01*
X157515Y71376D01*
X157572Y71386D01*
X157619Y71398D01*
X157655Y71412D01*
X157680Y71429D01*
X157696Y71448D01*
X157701Y71469D01*
Y70460D01*
D02*
G37*
G36*
X165155Y71771D02*
X165185Y71686D01*
X165235Y71611D01*
X165305Y71546D01*
X165395Y71491D01*
X165506Y71446D01*
X165636Y71411D01*
X165786Y71386D01*
X165810Y71384D01*
X165887Y71396D01*
X165989Y71418D01*
X166085Y71448D01*
X166176Y71484D01*
X166261Y71526D01*
X166340Y71575D01*
X166412Y71631D01*
X166479Y71693D01*
Y70039D01*
X166412Y70101D01*
X166340Y70157D01*
X166261Y70206D01*
X166176Y70249D01*
X166085Y70284D01*
X165989Y70314D01*
X165887Y70337D01*
X165810Y70348D01*
X165786Y70346D01*
X165636Y70321D01*
X165506Y70286D01*
X165395Y70241D01*
X165305Y70186D01*
X165235Y70121D01*
X165185Y70046D01*
X165155Y69961D01*
X165146Y69866D01*
Y71866D01*
X165155Y71771D01*
D02*
G37*
G36*
X118689Y69423D02*
X118131Y69411D01*
Y70000D01*
X118238Y70002D01*
X118335Y70010D01*
X118420Y70023D01*
X118494Y70042D01*
X118556Y70066D01*
X118608Y70095D01*
X118648Y70129D01*
X118677Y70169D01*
X118694Y70214D01*
X118701Y70264D01*
X118689Y69423D01*
D02*
G37*
G36*
X224323Y67433D02*
X224315Y67447D01*
X224291Y67460D01*
X224250Y67471D01*
X224193Y67481D01*
X224120Y67489D01*
X223804Y67505D01*
X223748Y67505D01*
X223191Y67471D01*
X223150Y67460D01*
X223126Y67447D01*
X223118Y67433D01*
Y68393D01*
X223126Y68379D01*
X223150Y68367D01*
X223191Y68356D01*
X223248Y68346D01*
X223321Y68338D01*
X223637Y68322D01*
X223693Y68322D01*
X224250Y68356D01*
X224291Y68367D01*
X224315Y68379D01*
X224323Y68393D01*
Y67433D01*
D02*
G37*
G36*
X148767Y68338D02*
X148800Y68332D01*
X148848Y68326D01*
X148988Y68317D01*
X149593Y68307D01*
Y67520D01*
X148748Y67481D01*
Y68346D01*
X148767Y68338D01*
D02*
G37*
G36*
X118969Y67481D02*
X118905Y67520D01*
X118838Y67555D01*
X118767Y67586D01*
X118692Y67613D01*
X118612Y67635D01*
X118529Y67654D01*
X118443Y67668D01*
X118257Y67685D01*
X118159Y67687D01*
X118275Y68275D01*
X118388Y68276D01*
X118807Y68301D01*
X118862Y68310D01*
X118907Y68320D01*
X118943Y68332D01*
X118969Y68346D01*
Y67481D01*
D02*
G37*
G36*
X237107Y67383D02*
X237009Y67450D01*
X236909Y67510D01*
X236809Y67562D01*
X236707Y67608D01*
X236605Y67646D01*
X236501Y67678D01*
X236396Y67702D01*
X236290Y67720D01*
X236183Y67730D01*
X236075Y67734D01*
X235923Y68545D01*
X236036Y68550D01*
X236144Y68564D01*
X236247Y68587D01*
X236344Y68620D01*
X236437Y68662D01*
X236524Y68713D01*
X236606Y68774D01*
X236683Y68844D01*
X236755Y68923D01*
X236822Y69012D01*
X237107Y67383D01*
D02*
G37*
G36*
X241154Y67335D02*
X241148Y67333D01*
X241132Y67330D01*
X241105Y67329D01*
X240614Y67323D01*
Y68134D01*
X240718Y68135D01*
X240966Y68156D01*
X241027Y68168D01*
X241077Y68183D01*
X241115Y68200D01*
X241143Y68220D01*
X241160Y68243D01*
X241166Y68269D01*
X241154Y67335D01*
D02*
G37*
G36*
X224323Y65465D02*
X224315Y65479D01*
X224291Y65491D01*
X224250Y65503D01*
X224193Y65512D01*
X224120Y65521D01*
X223804Y65536D01*
X223748Y65537D01*
X223191Y65503D01*
X223150Y65491D01*
X223126Y65479D01*
X223118Y65465D01*
Y66425D01*
X223126Y66411D01*
X223150Y66398D01*
X223191Y66387D01*
X223248Y66377D01*
X223321Y66369D01*
X223637Y66353D01*
X223693Y66353D01*
X224250Y66387D01*
X224291Y66398D01*
X224315Y66411D01*
X224323Y66425D01*
Y65465D01*
D02*
G37*
G36*
X241154Y66523D02*
X241166Y65590D01*
X241160Y65615D01*
X241143Y65638D01*
X241115Y65658D01*
X241077Y65676D01*
X241027Y65690D01*
X240966Y65703D01*
X240895Y65712D01*
X240718Y65723D01*
X240614Y65724D01*
Y66535D01*
X241154Y66523D01*
D02*
G37*
G36*
X148767Y66370D02*
X148800Y66363D01*
X148848Y66357D01*
X148988Y66348D01*
X149593Y66339D01*
Y65551D01*
X148748Y65513D01*
Y66377D01*
X148767Y66370D01*
D02*
G37*
G36*
X110925Y71161D02*
X115453Y66634D01*
X122244D01*
Y65256D01*
X113015D01*
X111655Y66616D01*
X111392Y66792D01*
X111227Y66825D01*
X110531Y67520D01*
X105413D01*
Y71161D01*
X110925Y71161D01*
D02*
G37*
G36*
X157701Y65158D02*
X157693Y65232D01*
X157669Y65299D01*
X157629Y65358D01*
X157573Y65409D01*
X157501Y65453D01*
X157413Y65488D01*
X157309Y65516D01*
X157190Y65535D01*
X157054Y65547D01*
X156902Y65551D01*
Y66339D01*
X157054Y66343D01*
X157190Y66354D01*
X157309Y66374D01*
X157413Y66402D01*
X157501Y66437D01*
X157573Y66480D01*
X157629Y66531D01*
X157669Y66590D01*
X157693Y66658D01*
X157701Y66732D01*
Y65158D01*
D02*
G37*
G36*
X236890Y64868D02*
X236813Y64953D01*
X236733Y65028D01*
X236649Y65095D01*
X236560Y65153D01*
X236468Y65202D01*
X236372Y65242D01*
X236272Y65273D01*
X236168Y65295D01*
X236060Y65309D01*
X235948Y65313D01*
X236016Y66124D01*
X236125Y66128D01*
X236233Y66140D01*
X236338Y66160D01*
X236442Y66187D01*
X236543Y66223D01*
X236643Y66266D01*
X236740Y66317D01*
X236835Y66375D01*
X236928Y66442D01*
X237019Y66517D01*
X236890Y64868D01*
D02*
G37*
G36*
X57592Y68152D02*
X58436Y67417D01*
X58686Y67238D01*
X58920Y67091D01*
X59139Y66977D01*
X59342Y66895D01*
X59530Y66846D01*
X59702Y66830D01*
Y66241D01*
X59530Y66225D01*
X59342Y66176D01*
X59139Y66094D01*
X58920Y65980D01*
X58686Y65833D01*
X58436Y65654D01*
X57889Y65197D01*
X57592Y64919D01*
X57280Y64609D01*
Y68462D01*
X57592Y68152D01*
D02*
G37*
G36*
X152027Y63906D02*
X151974Y63928D01*
X151919Y63940D01*
X151864Y63943D01*
X151806Y63936D01*
X151747Y63920D01*
X151686Y63894D01*
X151624Y63859D01*
X151560Y63815D01*
X151494Y63761D01*
X151427Y63698D01*
X150891Y64276D01*
X150982Y64369D01*
X151197Y64622D01*
X151251Y64699D01*
X151295Y64771D01*
X151330Y64839D01*
X151356Y64903D01*
X151372Y64962D01*
X151379Y65018D01*
X152027Y63906D01*
D02*
G37*
G36*
X148767Y64401D02*
X148800Y64395D01*
X148848Y64389D01*
X148988Y64380D01*
X149593Y64370D01*
Y63583D01*
X148748Y63544D01*
Y64409D01*
X148767Y64401D01*
D02*
G37*
G36*
X224323Y61528D02*
X224315Y61542D01*
X224291Y61554D01*
X224250Y61566D01*
X224193Y61575D01*
X224120Y61584D01*
X223804Y61599D01*
X223748Y61600D01*
X223191Y61566D01*
X223150Y61554D01*
X223126Y61542D01*
X223118Y61528D01*
Y62488D01*
X223126Y62474D01*
X223150Y62461D01*
X223191Y62450D01*
X223248Y62440D01*
X223321Y62432D01*
X223637Y62416D01*
X223693Y62416D01*
X224250Y62450D01*
X224291Y62461D01*
X224315Y62474D01*
X224323Y62488D01*
Y61528D01*
D02*
G37*
G36*
X219580Y65917D02*
X219758Y65798D01*
X220177Y65378D01*
X220477Y65178D01*
X220661Y65141D01*
Y64953D01*
X223047D01*
X223118Y64924D01*
X223186Y64952D01*
X223260Y64942D01*
X223630Y64953D01*
X223811D01*
X224181Y64942D01*
X224255Y64952D01*
X224323Y64924D01*
X224394Y64953D01*
X226780D01*
Y65141D01*
X226964Y65178D01*
X227221Y65350D01*
X234460D01*
X234744Y65066D01*
X235044Y64866D01*
X235397Y64795D01*
X235861D01*
X235903Y64774D01*
X235915Y64778D01*
X235926Y64772D01*
X236016Y64769D01*
X236078Y64761D01*
X236135Y64749D01*
X236187Y64733D01*
X236237Y64712D01*
X236284Y64687D01*
X236332Y64656D01*
X236379Y64618D01*
X236427Y64573D01*
X236489Y64505D01*
X236585Y64459D01*
X236843Y64201D01*
X237461Y63946D01*
X238130D01*
X238748Y64201D01*
X239220Y64674D01*
X239476Y65292D01*
Y65350D01*
X240150D01*
X240260Y65277D01*
X240499Y65229D01*
X240607Y65183D01*
X240642Y65183D01*
Y61000D01*
X240474Y60988D01*
X240336Y60986D01*
X240282Y60963D01*
X240115D01*
X239992Y61086D01*
X239692Y61286D01*
X239339Y61357D01*
X238051D01*
X238039Y61385D01*
X237566Y61858D01*
X236949Y62114D01*
X236280D01*
X235662Y61858D01*
X235189Y61385D01*
X235071Y61100D01*
X234481Y60982D01*
X233131Y62332D01*
X232832Y62532D01*
X232478Y62603D01*
X227221D01*
X226964Y62774D01*
X226780Y62811D01*
Y63000D01*
X224394D01*
X224323Y63029D01*
X224255Y63001D01*
X224181Y63010D01*
X223811Y63000D01*
X223630D01*
X223260Y63010D01*
X223186Y63001D01*
X223118Y63029D01*
X223047Y63000D01*
X220661D01*
Y62811D01*
X220477Y62774D01*
X220220Y62603D01*
X204313D01*
X203960Y62532D01*
X203660Y62332D01*
X194088Y52760D01*
X149666D01*
X149453Y53260D01*
X149722Y53539D01*
X182502D01*
X182855Y53609D01*
X183155Y53809D01*
X184184Y54838D01*
X191429D01*
Y54725D01*
X191685Y54107D01*
X192158Y53634D01*
X192776Y53378D01*
X193445D01*
X194062Y53634D01*
X194535Y54107D01*
X194791Y54725D01*
Y55393D01*
X194535Y56011D01*
X194129Y56417D01*
X194535Y56823D01*
X194791Y57441D01*
Y58110D01*
X194535Y58728D01*
X194119Y59144D01*
X194076Y59422D01*
X194094Y59729D01*
X194130Y59753D01*
X201662Y67285D01*
X218212D01*
X219580Y65917D01*
D02*
G37*
G36*
X224323Y59559D02*
X224315Y59573D01*
X224291Y59586D01*
X224250Y59597D01*
X224193Y59607D01*
X224120Y59615D01*
X223804Y59631D01*
X223748Y59631D01*
X223191Y59597D01*
X223150Y59586D01*
X223126Y59573D01*
X223118Y59559D01*
Y60519D01*
X223126Y60505D01*
X223150Y60493D01*
X223191Y60482D01*
X223248Y60472D01*
X223321Y60464D01*
X223637Y60448D01*
X223693Y60447D01*
X224250Y60482D01*
X224291Y60493D01*
X224315Y60505D01*
X224323Y60519D01*
Y59559D01*
D02*
G37*
G36*
X241154Y59461D02*
X241146Y59494D01*
X241121Y59523D01*
X241081Y59549D01*
X241024Y59571D01*
X240951Y59591D01*
X240862Y59606D01*
X240756Y59618D01*
X240496Y59632D01*
X240342Y59634D01*
Y60445D01*
X240496Y60447D01*
X240862Y60473D01*
X240951Y60488D01*
X241024Y60507D01*
X241081Y60530D01*
X241121Y60556D01*
X241146Y60585D01*
X241154Y60618D01*
Y59461D01*
D02*
G37*
G36*
X244679Y60442D02*
X244698Y60404D01*
X244730Y60370D01*
X244774Y60341D01*
X244830Y60316D01*
X244900Y60296D01*
X244982Y60280D01*
X245076Y60269D01*
X245183Y60262D01*
X245303Y60260D01*
Y59449D01*
X244673Y59461D01*
Y60484D01*
X244679Y60442D01*
D02*
G37*
G36*
X233158Y57839D02*
X233458Y57639D01*
X233811Y57569D01*
X236600D01*
X236629Y57526D01*
X236362Y57026D01*
X221642D01*
X220732Y57936D01*
X220432Y58137D01*
X220079Y58207D01*
X212791D01*
X212739Y58230D01*
X212599Y58234D01*
X212495Y58243D01*
X212425Y58254D01*
Y58965D01*
X212425D01*
X212474Y59445D01*
X220220D01*
X220477Y59273D01*
X220661Y59236D01*
Y59047D01*
X223047D01*
X223118Y59018D01*
X223186Y59046D01*
X223260Y59037D01*
X223630Y59047D01*
X223811D01*
X224181Y59037D01*
X224255Y59046D01*
X224323Y59018D01*
X224394Y59047D01*
X226780D01*
Y59253D01*
X226878Y59273D01*
X227135Y59445D01*
X231553D01*
X233158Y57839D01*
D02*
G37*
G36*
X112205Y61221D02*
X118579D01*
X118769Y61093D01*
X119148Y61018D01*
X121787D01*
X122244Y60599D01*
Y59480D01*
X121787Y59061D01*
X119148D01*
X118769Y58986D01*
X118579Y58858D01*
X105315D01*
Y63681D01*
X109744Y63681D01*
X112205Y61221D01*
D02*
G37*
G36*
X93134Y64382D02*
X93397Y64206D01*
X93707Y64145D01*
X104425D01*
X104774Y63681D01*
Y58858D01*
X104407Y58438D01*
X96133D01*
X96128Y58437D01*
X95832Y58559D01*
X95660Y58988D01*
X95660D01*
X95551Y59818D01*
X95231Y60591D01*
X94721Y61254D01*
X94058Y61764D01*
X93285Y62084D01*
X92455Y62193D01*
X92455D01*
X92455D01*
Y62193D01*
X91625Y62084D01*
X90852Y61764D01*
X90189Y61254D01*
X89679Y60591D01*
X89359Y59818D01*
X89250Y58988D01*
X89262D01*
Y54681D01*
X89263Y54676D01*
X89122Y54336D01*
X88782Y54195D01*
X88778Y54196D01*
X88773Y54195D01*
X88433Y54336D01*
X88292Y54676D01*
X88293Y54681D01*
Y59437D01*
X88305D01*
X88196Y60267D01*
X87875Y61040D01*
X87366Y61704D01*
X86702Y62213D01*
X85929Y62533D01*
X85100Y62642D01*
X85100D01*
X85100D01*
Y62642D01*
X84270Y62533D01*
X83497Y62213D01*
X82834Y61704D01*
X82324Y61040D01*
X82004Y60267D01*
X81895Y59437D01*
X81907D01*
Y54681D01*
X81908Y54676D01*
X81767Y54336D01*
X81427Y54195D01*
X81422Y54196D01*
X81418Y54195D01*
X81078Y54336D01*
X80937Y54676D01*
X80938Y54681D01*
Y59437D01*
X80950D01*
X80840Y60267D01*
X80520Y61040D01*
X80011Y61704D01*
X79347Y62213D01*
X78574Y62533D01*
X77745Y62642D01*
X77745D01*
X77745D01*
Y62642D01*
X76915Y62533D01*
X76142Y62213D01*
X75479Y61704D01*
X74969Y61040D01*
X74649Y60267D01*
X74540Y59437D01*
X74552D01*
Y58922D01*
X74553Y58918D01*
X74412Y58578D01*
X74072Y58437D01*
X74067Y58438D01*
X73237D01*
X73220Y58434D01*
X67379D01*
X67245Y58934D01*
X67312Y58973D01*
X67917Y59578D01*
X68345Y60320D01*
X68567Y61147D01*
Y62003D01*
X68345Y62830D01*
X67917Y63572D01*
X67312Y64177D01*
X66570Y64605D01*
X66092Y64733D01*
X66158Y65233D01*
X92283D01*
X93134Y64382D01*
D02*
G37*
G36*
X65930Y58893D02*
X65839Y58865D01*
X65758Y58829D01*
X65686Y58781D01*
X65624Y58724D01*
X65571Y58657D01*
X65528Y58579D01*
X65495Y58492D01*
X65471Y58394D01*
X65457Y58287D01*
X65452Y58169D01*
X64863D01*
X64858Y58294D01*
X64844Y58409D01*
X64821Y58514D01*
X64789Y58609D01*
X64747Y58695D01*
X64695Y58772D01*
X64635Y58838D01*
X64565Y58895D01*
X64486Y58943D01*
X64397Y58980D01*
X65930Y58893D01*
D02*
G37*
G36*
X239591Y59044D02*
X239660Y58964D01*
X239735Y58893D01*
X239815Y58831D01*
X239901Y58779D01*
X239992Y58737D01*
X240089Y58704D01*
X240191Y58680D01*
X240299Y58666D01*
X240413Y58661D01*
X240412Y58660D01*
X241154Y58649D01*
Y57492D01*
X241146Y57560D01*
X241121Y57621D01*
X241081Y57675D01*
X241024Y57721D01*
X240951Y57761D01*
X240862Y57793D01*
X240756Y57818D01*
X240634Y57836D01*
X240496Y57846D01*
X240342Y57850D01*
Y58340D01*
X240235Y57850D01*
X240127Y57847D01*
X240021Y57837D01*
X239915Y57820D01*
X239810Y57796D01*
X239705Y57766D01*
X239602Y57729D01*
X239499Y57685D01*
X239397Y57635D01*
X239296Y57577D01*
X239196Y57513D01*
X239527Y59133D01*
X239591Y59044D01*
D02*
G37*
G36*
X246760Y58977D02*
X246845Y58910D01*
X246934Y58851D01*
X247027Y58799D01*
X247124Y58756D01*
X247224Y58721D01*
X247329Y58694D01*
X247437Y58675D01*
X247549Y58664D01*
X247665Y58661D01*
X246496Y57492D01*
X246493Y57608D01*
X246482Y57720D01*
X246463Y57829D01*
X246436Y57933D01*
X246401Y58034D01*
X246358Y58130D01*
X246307Y58223D01*
X246248Y58312D01*
X246180Y58398D01*
X246105Y58479D01*
X246678Y59053D01*
X246760Y58977D01*
D02*
G37*
G36*
X191902Y58945D02*
X191685Y58728D01*
X191429Y58110D01*
Y57996D01*
X183258D01*
X182904Y57926D01*
X182605Y57726D01*
X181576Y56697D01*
X158711D01*
Y59445D01*
X191695D01*
X191902Y58945D01*
D02*
G37*
G36*
X158169Y56697D02*
X149339D01*
X149269Y56802D01*
X148948Y57017D01*
X148569Y57092D01*
X145929D01*
X145472Y57511D01*
Y58630D01*
X145929Y59049D01*
X148569D01*
X148948Y59125D01*
X149269Y59339D01*
X149339Y59445D01*
X158169D01*
Y56697D01*
D02*
G37*
G36*
X211909Y58018D02*
X211934Y57949D01*
X211975Y57888D01*
X212033Y57835D01*
X212107Y57790D01*
X212198Y57754D01*
X212305Y57726D01*
X212428Y57705D01*
X212568Y57693D01*
X212724Y57689D01*
Y56878D01*
X212568Y56874D01*
X212428Y56862D01*
X212305Y56841D01*
X212198Y56813D01*
X212107Y56776D01*
X212033Y56732D01*
X211975Y56679D01*
X211934Y56618D01*
X211909Y56549D01*
X211901Y56472D01*
Y58095D01*
X211909Y58018D01*
D02*
G37*
G36*
X241154Y55524D02*
X241146Y55557D01*
X241121Y55586D01*
X241081Y55612D01*
X241024Y55634D01*
X240951Y55654D01*
X240862Y55669D01*
X240756Y55681D01*
X240496Y55695D01*
X240342Y55697D01*
Y56508D01*
X240496Y56510D01*
X240862Y56536D01*
X240951Y56551D01*
X241024Y56570D01*
X241081Y56593D01*
X241121Y56619D01*
X241146Y56648D01*
X241154Y56681D01*
Y55524D01*
D02*
G37*
G36*
X57592Y58152D02*
X58436Y57417D01*
X58686Y57238D01*
X58920Y57091D01*
X59139Y56977D01*
X59342Y56895D01*
X59530Y56846D01*
X59702Y56830D01*
Y56241D01*
X59530Y56225D01*
X59342Y56176D01*
X59139Y56094D01*
X58920Y55980D01*
X58686Y55833D01*
X58436Y55654D01*
X57889Y55197D01*
X57592Y54919D01*
X57280Y54609D01*
Y58462D01*
X57592Y58152D01*
D02*
G37*
G36*
X224323Y51685D02*
X224315Y51699D01*
X224291Y51712D01*
X224250Y51723D01*
X224193Y51733D01*
X224120Y51741D01*
X223804Y51757D01*
X223748Y51757D01*
X223191Y51723D01*
X223150Y51712D01*
X223126Y51699D01*
X223118Y51685D01*
Y52645D01*
X223126Y52631D01*
X223150Y52619D01*
X223191Y52608D01*
X223248Y52598D01*
X223321Y52590D01*
X223637Y52574D01*
X223693Y52573D01*
X224250Y52608D01*
X224291Y52619D01*
X224315Y52631D01*
X224323Y52645D01*
Y51685D01*
D02*
G37*
G36*
X118504Y55118D02*
X119119D01*
X119148Y55112D01*
X121787D01*
X122244Y54901D01*
Y53248D01*
X118799D01*
X118110Y52559D01*
X113091D01*
X111811Y51279D01*
X105610D01*
Y55709D01*
X117913D01*
X118504Y55118D01*
D02*
G37*
G36*
X224323Y49717D02*
X224315Y49731D01*
X224291Y49744D01*
X224250Y49755D01*
X224193Y49764D01*
X224120Y49773D01*
X223804Y49788D01*
X223748Y49789D01*
X223191Y49755D01*
X223150Y49744D01*
X223126Y49731D01*
X223118Y49717D01*
Y50677D01*
X223126Y50663D01*
X223150Y50650D01*
X223191Y50639D01*
X223248Y50629D01*
X223321Y50621D01*
X223637Y50605D01*
X223693Y50605D01*
X224250Y50639D01*
X224291Y50650D01*
X224315Y50663D01*
X224323Y50677D01*
Y49717D01*
D02*
G37*
G36*
X63350Y49648D02*
X63038Y49959D01*
X62194Y50693D01*
X61944Y50872D01*
X61710Y51019D01*
X61491Y51134D01*
X61288Y51215D01*
X61100Y51264D01*
X60928Y51280D01*
Y51869D01*
X61100Y51885D01*
X61288Y51934D01*
X61491Y52016D01*
X61710Y52130D01*
X61944Y52277D01*
X62194Y52457D01*
X62741Y52914D01*
X63038Y53191D01*
X63350Y53501D01*
Y49648D01*
D02*
G37*
G36*
X161417Y45472D02*
X154200D01*
X152626Y47047D01*
X149031D01*
X148984Y47095D01*
X148366Y47350D01*
X147697D01*
X147079Y47095D01*
X147032Y47047D01*
X145662D01*
X145600Y47363D01*
X145385Y47684D01*
X145229Y47788D01*
Y49219D01*
X145584Y49276D01*
X145929Y49207D01*
X148569D01*
X148948Y49282D01*
X149269Y49497D01*
X149339Y49602D01*
X161417D01*
Y45472D01*
D02*
G37*
G36*
X124621Y70212D02*
X125000Y70136D01*
X125379Y70212D01*
X125556Y70330D01*
X125700Y70287D01*
X126083Y70128D01*
X127657D01*
X128062Y70287D01*
X128445Y70128D01*
X129429D01*
X129812Y70287D01*
X129932Y70287D01*
X130315Y70128D01*
X131465D01*
X131477Y70133D01*
X131489Y70129D01*
X131666Y70211D01*
X131848Y70287D01*
X132315Y70332D01*
X132495Y70212D01*
X132874Y70136D01*
X133253Y70212D01*
X133433Y70332D01*
X133900Y70287D01*
X134082Y70211D01*
X134259Y70129D01*
X134271Y70133D01*
X134283Y70128D01*
X135728D01*
X136111Y70287D01*
X136255Y70330D01*
X136432Y70212D01*
X136811Y70136D01*
X137190Y70212D01*
X137511Y70426D01*
X138080D01*
X138401Y70212D01*
X138779Y70136D01*
X139158Y70212D01*
X139598Y70287D01*
X139691Y70248D01*
X139794Y70161D01*
X139891Y70165D01*
X139981Y70128D01*
X143602D01*
X143985Y70287D01*
X144129Y70330D01*
X144306Y70212D01*
X144685Y70136D01*
X144734Y70096D01*
Y69291D01*
X144893Y68909D01*
X145028Y68312D01*
X145015Y68292D01*
X144939Y67913D01*
X145015Y67535D01*
X145229Y67213D01*
Y66645D01*
X145015Y66324D01*
X144939Y65945D01*
X145015Y65566D01*
X145229Y65245D01*
Y64676D01*
X145015Y64355D01*
X144939Y63976D01*
X145015Y63598D01*
X145229Y63276D01*
Y62708D01*
X145015Y62387D01*
X144939Y62008D01*
X145015Y61629D01*
X145229Y61308D01*
Y60739D01*
X145015Y60418D01*
X144939Y60039D01*
X145015Y59661D01*
X145135Y59480D01*
X145090Y59013D01*
X145015Y58832D01*
X144932Y58654D01*
X144936Y58642D01*
X144931Y58630D01*
Y57511D01*
X144936Y57500D01*
X144932Y57488D01*
X145015Y57310D01*
X145090Y57129D01*
X145135Y56662D01*
X145015Y56481D01*
X144939Y56102D01*
X145015Y55724D01*
X145229Y55402D01*
Y54834D01*
X145015Y54513D01*
X144939Y54134D01*
X145015Y53755D01*
X145229Y53434D01*
Y52865D01*
X145015Y52544D01*
X144939Y52165D01*
X145015Y51787D01*
X145229Y51465D01*
Y50897D01*
X145015Y50576D01*
X144939Y50197D01*
X145015Y49818D01*
X144791Y49536D01*
X144752Y49373D01*
X144688Y49219D01*
Y47977D01*
X144685Y47974D01*
X144306Y47899D01*
X143985Y47684D01*
X143417D01*
X143095Y47899D01*
X142717Y47974D01*
X142338Y47899D01*
X142016Y47684D01*
X141448D01*
X141127Y47899D01*
X140748Y47974D01*
X140369Y47899D01*
X139929Y47824D01*
X139837Y47862D01*
X139734Y47949D01*
X139636Y47945D01*
X139547Y47982D01*
X137826D01*
X137575Y47878D01*
X137285Y47998D01*
X136319D01*
X135936Y47839D01*
X135377Y47795D01*
X135221Y47899D01*
X134843Y47974D01*
X134464Y47899D01*
X134142Y47684D01*
X133574D01*
X133253Y47899D01*
X132874Y47974D01*
X132495Y47899D01*
X132174Y47684D01*
X131606D01*
X131284Y47899D01*
X130905Y47974D01*
X130527Y47899D01*
X130205Y47684D01*
X129637D01*
X129316Y47899D01*
X128937Y47974D01*
X128558Y47899D01*
X128410Y47800D01*
X127834Y47884D01*
X127451Y48043D01*
X126504D01*
X126315Y47965D01*
X126176Y47909D01*
X126170Y47922D01*
X125787Y48081D01*
X124294D01*
X124007Y47962D01*
X123721Y48081D01*
X122898D01*
X122777Y48228D01*
X122702Y48607D01*
X122687Y48630D01*
Y48877D01*
X122682Y48888D01*
X122686Y48900D01*
X122604Y49078D01*
X122528Y49260D01*
X122641Y49726D01*
X122702Y49818D01*
X122777Y50197D01*
X122702Y50576D01*
X122487Y50897D01*
Y51465D01*
X122702Y51787D01*
X122777Y52165D01*
X122702Y52544D01*
X122583Y52722D01*
X122627Y52865D01*
X122785Y53248D01*
Y54901D01*
X122748Y54991D01*
X122752Y55088D01*
X122665Y55191D01*
X122627Y55284D01*
X122702Y55724D01*
X122777Y56102D01*
X122702Y56481D01*
X122487Y56802D01*
Y57371D01*
X122702Y57692D01*
X122777Y58071D01*
X122702Y58450D01*
X122581Y58630D01*
X122627Y59097D01*
X122702Y59279D01*
X122785Y59456D01*
X122781Y59468D01*
X122785Y59480D01*
Y60599D01*
X122781Y60611D01*
X122785Y60622D01*
X122702Y60800D01*
X122627Y60982D01*
X122581Y61448D01*
X122702Y61629D01*
X122777Y62008D01*
X122702Y62387D01*
X122487Y62708D01*
Y63276D01*
X122702Y63598D01*
X122777Y63976D01*
X122702Y64355D01*
X122698Y64361D01*
X122627Y64873D01*
X122785Y65256D01*
Y66634D01*
X122627Y67017D01*
X122698Y67528D01*
X122702Y67535D01*
X122777Y67913D01*
X122702Y68292D01*
X122623Y68411D01*
X122758Y68911D01*
X122758D01*
Y69912D01*
X123031Y70136D01*
X123410Y70212D01*
X123732Y70426D01*
X124300D01*
X124621Y70212D01*
D02*
G37*
G36*
X145149Y46382D02*
X145173Y46315D01*
X145213Y46256D01*
X145269Y46205D01*
X145341Y46161D01*
X145429Y46126D01*
X145533Y46098D01*
X145653Y46079D01*
X145789Y46067D01*
X145940Y46063D01*
Y45276D01*
X145789Y45272D01*
X145653Y45260D01*
X145533Y45240D01*
X145429Y45213D01*
X145341Y45177D01*
X145269Y45134D01*
X145213Y45083D01*
X145173Y45024D01*
X145149Y44957D01*
X145141Y44882D01*
Y46457D01*
X145149Y46382D01*
D02*
G37*
G36*
X147188Y44842D02*
X147102Y44925D01*
X147013Y44998D01*
X146922Y45063D01*
X146828Y45120D01*
X146731Y45167D01*
X146632Y45206D01*
X146530Y45237D01*
X146426Y45258D01*
X146319Y45271D01*
X146209Y45276D01*
Y46063D01*
X146319Y46067D01*
X146426Y46080D01*
X146530Y46102D01*
X146632Y46132D01*
X146731Y46171D01*
X146828Y46219D01*
X146922Y46275D01*
X147013Y46340D01*
X147102Y46414D01*
X147188Y46496D01*
Y44842D01*
D02*
G37*
G36*
X57592Y48152D02*
X58436Y47417D01*
X58686Y47238D01*
X58920Y47091D01*
X59139Y46977D01*
X59342Y46895D01*
X59530Y46846D01*
X59702Y46830D01*
Y46241D01*
X59530Y46225D01*
X59342Y46176D01*
X59139Y46094D01*
X58920Y45980D01*
X58686Y45833D01*
X58436Y45654D01*
X57889Y45197D01*
X57592Y44919D01*
X57280Y44609D01*
Y48462D01*
X57592Y48152D01*
D02*
G37*
G36*
X65615Y44964D02*
X65634Y44836D01*
X65664Y44718D01*
X65707Y44610D01*
X65762Y44512D01*
X65829Y44424D01*
X65908Y44347D01*
X66000Y44279D01*
X66103Y44221D01*
X66219Y44174D01*
X64411D01*
X64527Y44221D01*
X64630Y44279D01*
X64722Y44347D01*
X64801Y44424D01*
X64868Y44512D01*
X64923Y44610D01*
X64966Y44718D01*
X64996Y44836D01*
X65014Y44964D01*
X65021Y45102D01*
X65609D01*
X65615Y44964D01*
D02*
G37*
G36*
X153818Y45090D02*
X154200Y44931D01*
X154200Y44931D01*
X161040D01*
X161073Y44882D01*
Y44102D01*
X157374D01*
Y43377D01*
X157319Y43368D01*
X157220Y43360D01*
X157085Y43356D01*
X157032Y43332D01*
X155807D01*
X155458Y43263D01*
X155163Y43066D01*
X154347Y42250D01*
X145259D01*
X144635Y42874D01*
X144646Y42976D01*
X144832Y43384D01*
X145064Y43430D01*
X145385Y43645D01*
X145600Y43966D01*
X145675Y44345D01*
Y44578D01*
X146162Y44747D01*
X146188Y44735D01*
X146275Y44731D01*
X146338Y44724D01*
X146398Y44711D01*
X146455Y44694D01*
X146512Y44672D01*
X146569Y44644D01*
X146625Y44610D01*
X146683Y44569D01*
X146742Y44520D01*
X146814Y44451D01*
X146909Y44414D01*
X147079Y44244D01*
X147697Y43988D01*
X148366D01*
X148984Y44244D01*
X149457Y44717D01*
X149713Y45335D01*
Y46004D01*
X149677Y46090D01*
X149954Y46506D01*
X152401D01*
X153818Y45090D01*
D02*
G37*
G36*
X135240Y44109D02*
X135209Y44050D01*
X135182Y43988D01*
X135158Y43922D01*
X135138Y43853D01*
X135122Y43780D01*
X135109Y43705D01*
X135094Y43545D01*
X135092Y43460D01*
X134592D01*
X134591Y43545D01*
X134576Y43705D01*
X134563Y43780D01*
X134547Y43853D01*
X134527Y43922D01*
X134503Y43988D01*
X134476Y44050D01*
X134445Y44109D01*
X134410Y44166D01*
X135275D01*
X135240Y44109D01*
D02*
G37*
G36*
X133272D02*
X133241Y44050D01*
X133213Y43988D01*
X133190Y43922D01*
X133170Y43853D01*
X133153Y43780D01*
X133140Y43705D01*
X133126Y43545D01*
X133124Y43460D01*
X132624D01*
X132622Y43545D01*
X132608Y43705D01*
X132595Y43780D01*
X132578Y43853D01*
X132558Y43922D01*
X132535Y43988D01*
X132507Y44050D01*
X132476Y44109D01*
X132442Y44166D01*
X133306D01*
X133272Y44109D01*
D02*
G37*
G36*
X129335D02*
X129304Y44050D01*
X129276Y43988D01*
X129253Y43922D01*
X129233Y43853D01*
X129216Y43780D01*
X129203Y43705D01*
X129189Y43545D01*
X129187Y43460D01*
X128687D01*
X128685Y43545D01*
X128671Y43705D01*
X128658Y43780D01*
X128641Y43853D01*
X128621Y43922D01*
X128598Y43988D01*
X128570Y44050D01*
X128539Y44109D01*
X128505Y44166D01*
X129369D01*
X129335Y44109D01*
D02*
G37*
G36*
X129171Y43333D02*
X129362Y43169D01*
X129400Y43144D01*
X129433Y43124D01*
X129463Y43111D01*
X129489Y43104D01*
X129511Y43104D01*
X128871Y42757D01*
X128883Y42776D01*
X128891Y42797D01*
X128893Y42821D01*
X128890Y42846D01*
X128881Y42872D01*
X128868Y42901D01*
X128849Y42932D01*
X128824Y42965D01*
X128795Y42999D01*
X128760Y43036D01*
X129114Y43389D01*
X129171Y43333D01*
D02*
G37*
G36*
X119148Y49207D02*
X121787D01*
X122146Y48877D01*
Y47951D01*
X121943Y47816D01*
X121913Y47770D01*
X121861Y47749D01*
X121801Y47603D01*
X121713Y47471D01*
X121724Y47417D01*
X121703Y47366D01*
Y44636D01*
X119587Y42520D01*
X105512D01*
Y46949D01*
X112008D01*
X114272Y49213D01*
X119119D01*
X119148Y49207D01*
D02*
G37*
G36*
X157898Y41634D02*
X157890Y41709D01*
X157866Y41776D01*
X157826Y41835D01*
X157770Y41886D01*
X157698Y41929D01*
X157610Y41965D01*
X157506Y41992D01*
X157386Y42012D01*
X157250Y42024D01*
X157099Y42028D01*
Y42815D01*
X157250Y42819D01*
X157386Y42831D01*
X157506Y42850D01*
X157610Y42878D01*
X157698Y42913D01*
X157770Y42957D01*
X157826Y43008D01*
X157866Y43067D01*
X157890Y43134D01*
X157898Y43209D01*
Y41634D01*
D02*
G37*
G36*
X130901Y40295D02*
X130905Y40215D01*
X130917Y40133D01*
X130938Y40050D01*
X130967Y39965D01*
X131005Y39879D01*
X131051Y39791D01*
X131105Y39702D01*
X131167Y39611D01*
X131317Y39425D01*
X129943Y39527D01*
X130030Y39604D01*
X130108Y39683D01*
X130176Y39762D01*
X130236Y39841D01*
X130286Y39922D01*
X130327Y40003D01*
X130360Y40084D01*
X130383Y40167D01*
X130396Y40250D01*
X130401Y40334D01*
X130901Y40295D01*
D02*
G37*
G36*
X136808Y39760D02*
X136821Y39678D01*
X136844Y39595D01*
X136876Y39513D01*
X136917Y39432D01*
X136967Y39351D01*
X137026Y39270D01*
X137094Y39190D01*
X137172Y39111D01*
X137258Y39032D01*
X135883Y38946D01*
X135963Y39039D01*
X136097Y39220D01*
X136152Y39309D01*
X136198Y39396D01*
X136236Y39482D01*
X136265Y39566D01*
X136286Y39649D01*
X136299Y39731D01*
X136303Y39812D01*
X136803Y39844D01*
X136808Y39760D01*
D02*
G37*
G36*
X133916Y39442D02*
X133929Y39360D01*
X133951Y39277D01*
X133982Y39194D01*
X134021Y39110D01*
X134070Y39026D01*
X134126Y38941D01*
X134192Y38856D01*
X134267Y38771D01*
X134350Y38685D01*
X132973D01*
X133056Y38771D01*
X133131Y38856D01*
X133196Y38941D01*
X133253Y39026D01*
X133302Y39110D01*
X133341Y39194D01*
X133372Y39277D01*
X133394Y39360D01*
X133407Y39442D01*
X133411Y39524D01*
X133911D01*
X133916Y39442D01*
D02*
G37*
G36*
X192150Y35055D02*
X192083Y35031D01*
X192024Y34991D01*
X191972Y34936D01*
X191929Y34863D01*
X191894Y34776D01*
X191866Y34672D01*
X191847Y34552D01*
X191835Y34416D01*
X191831Y34264D01*
X191043D01*
X191039Y34416D01*
X191028Y34552D01*
X191008Y34672D01*
X190980Y34776D01*
X190945Y34863D01*
X190902Y34936D01*
X190850Y34991D01*
X190791Y35031D01*
X190724Y35055D01*
X190650Y35063D01*
X192224D01*
X192150Y35055D01*
D02*
G37*
G36*
X157287Y33795D02*
X157299Y33661D01*
X157319Y33543D01*
X157346Y33441D01*
X157382Y33354D01*
X157425Y33283D01*
X157476Y33228D01*
X157535Y33189D01*
X157602Y33165D01*
X157677Y33157D01*
X156102D01*
X156177Y33165D01*
X156244Y33189D01*
X156303Y33228D01*
X156354Y33283D01*
X156398Y33354D01*
X156433Y33441D01*
X156461Y33543D01*
X156480Y33661D01*
X156492Y33795D01*
X156496Y33945D01*
X157283D01*
X157287Y33795D01*
D02*
G37*
G36*
X123721Y36319D02*
X122441Y35039D01*
Y31496D01*
X102362D01*
Y39370D01*
X103937Y40945D01*
X120079D01*
X122244Y43110D01*
Y47366D01*
X122487Y47528D01*
X122495Y47539D01*
X123721D01*
X123721Y36319D01*
D02*
G37*
G36*
X271654Y85473D02*
X271654Y74902D01*
X271654Y31299D01*
X246752D01*
Y45207D01*
X246703Y45325D01*
X247728Y46350D01*
X248011D01*
X248506Y46555D01*
X251279D01*
X252461Y47736D01*
Y70768D01*
X251083Y72146D01*
X247933D01*
X246752Y73327D01*
Y73553D01*
X246503Y74154D01*
X246457Y74200D01*
Y85827D01*
X271300D01*
X271654Y85473D01*
D02*
G37*
G36*
X157085Y41486D02*
X157220Y41483D01*
X157319Y41474D01*
X157374Y41465D01*
Y40740D01*
X161073D01*
Y30167D01*
X158571D01*
Y33669D01*
X157846D01*
X157836Y33729D01*
X157828Y33826D01*
X157825Y33959D01*
X157801Y34012D01*
Y37598D01*
X157732Y37947D01*
X157534Y38243D01*
X155558Y40219D01*
X155426Y40551D01*
X155558Y40883D01*
X156184Y41510D01*
X157032D01*
X157085Y41486D01*
D02*
G37*
G36*
X139758Y46984D02*
Y44345D01*
X139764Y44316D01*
Y43209D01*
X140115Y42858D01*
X140133Y42830D01*
X143844Y39119D01*
X143871Y39101D01*
X144193Y38780D01*
X151870D01*
X153937Y36713D01*
Y29528D01*
X144291D01*
Y36811D01*
X137826Y43277D01*
Y47441D01*
X139547D01*
X139758Y46984D01*
D02*
G37*
G36*
X137285Y42637D02*
X143307Y36614D01*
Y29626D01*
X143266Y29528D01*
X140059D01*
Y38385D01*
X136319Y42125D01*
Y47457D01*
X137285D01*
Y42637D01*
D02*
G37*
G36*
X127451Y38198D02*
X129724Y35925D01*
X138583D01*
Y29429D01*
X133735D01*
Y34183D01*
X133217D01*
X133169Y34203D01*
X129535D01*
X126499Y37239D01*
Y47004D01*
X126504Y47502D01*
X127451D01*
Y38198D01*
D02*
G37*
G36*
X125787Y37037D02*
X129163Y33661D01*
X133169D01*
Y29429D01*
X122933D01*
Y31378D01*
X122982Y31496D01*
Y34498D01*
X124294Y35809D01*
Y47539D01*
X125787D01*
Y37037D01*
D02*
G37*
G36*
X190063Y29984D02*
X190075Y29848D01*
X190094Y29728D01*
X190122Y29624D01*
X190157Y29536D01*
X190201Y29464D01*
X190252Y29408D01*
X190311Y29368D01*
X190378Y29344D01*
X190453Y29337D01*
X188878D01*
X188953Y29344D01*
X189020Y29368D01*
X189079Y29408D01*
X189130Y29464D01*
X189173Y29536D01*
X189209Y29624D01*
X189236Y29728D01*
X189256Y29848D01*
X189268Y29984D01*
X189272Y30136D01*
X190059D01*
X190063Y29984D01*
D02*
G37*
G36*
X183957Y28850D02*
X184019Y28798D01*
X184086Y28752D01*
X184157Y28712D01*
X184232Y28679D01*
X184312Y28651D01*
X184397Y28630D01*
X184486Y28615D01*
X184580Y28605D01*
X184678Y28602D01*
X184644Y27815D01*
X184546Y27812D01*
X184452Y27804D01*
X184362Y27789D01*
X184276Y27770D01*
X184195Y27744D01*
X184116Y27713D01*
X184043Y27676D01*
X183972Y27634D01*
X183906Y27585D01*
X183844Y27531D01*
X183899Y28908D01*
X183957Y28850D01*
D02*
G37*
G36*
X186315Y27429D02*
X186307Y27502D01*
X186279Y27568D01*
X186229Y27626D01*
X186159Y27676D01*
X186068Y27718D01*
X185956Y27753D01*
X185823Y27780D01*
X185669Y27799D01*
X185494Y27811D01*
X185299Y27815D01*
X185331Y28602D01*
X185527Y28606D01*
X185857Y28637D01*
X185992Y28664D01*
X186107Y28699D01*
X186201Y28741D01*
X186275Y28792D01*
X186328Y28850D01*
X186362Y28915D01*
X186375Y28989D01*
X186315Y27429D01*
D02*
G37*
G36*
X175492Y43110D02*
X213583Y43110D01*
X216043Y40650D01*
Y26083D01*
X203740D01*
Y30118D01*
X205413Y31791D01*
Y34461D01*
X205461D01*
Y37980D01*
X205413D01*
Y38091D01*
X205020Y38484D01*
X175492Y38484D01*
X173622Y36614D01*
X173622Y24409D01*
X154724D01*
Y29604D01*
X154777Y29626D01*
X161614D01*
Y44882D01*
X173721D01*
X175492Y43110D01*
D02*
G37*
G36*
X122392Y29429D02*
X122441Y29311D01*
Y19685D01*
X134252D01*
Y2953D01*
X102362D01*
Y30512D01*
X122392D01*
Y29429D01*
D02*
G37*
%LPC*%
G36*
X11486Y88650D02*
X10561D01*
X9668Y88410D01*
X8867Y87948D01*
X8213Y87294D01*
X7751Y86493D01*
X7512Y85600D01*
Y84676D01*
X7751Y83782D01*
X8213Y82981D01*
X8867Y82328D01*
X9668Y81865D01*
X10561Y81626D01*
X11486D01*
X12379Y81865D01*
X13180Y82328D01*
X13834Y82981D01*
X14296Y83782D01*
X14535Y84676D01*
Y85600D01*
X14296Y86493D01*
X13834Y87294D01*
X13180Y87948D01*
X12379Y88410D01*
X11486Y88650D01*
D02*
G37*
G36*
X30980Y88307D02*
X29650D01*
X28346Y88048D01*
X27117Y87539D01*
X26011Y86800D01*
X25070Y85859D01*
X24331Y84753D01*
X23822Y83525D01*
X23563Y82220D01*
Y80890D01*
X23822Y79586D01*
X24331Y78357D01*
X25070Y77251D01*
X26011Y76310D01*
X27117Y75572D01*
X28346Y75063D01*
X29650Y74803D01*
X30980D01*
X32284Y75063D01*
X33513Y75572D01*
X34619Y76310D01*
X35560Y77251D01*
X36298Y78357D01*
X36808Y79586D01*
X37067Y80890D01*
Y82220D01*
X36808Y83525D01*
X36298Y84753D01*
X35560Y85859D01*
X34619Y86800D01*
X33513Y87539D01*
X32284Y88048D01*
X30980Y88307D01*
D02*
G37*
G36*
X11486Y78650D02*
X10561D01*
X9668Y78410D01*
X8867Y77948D01*
X8213Y77294D01*
X7751Y76493D01*
X7512Y75600D01*
Y74676D01*
X7751Y73782D01*
X8213Y72982D01*
X8867Y72328D01*
X9668Y71865D01*
X10561Y71626D01*
X11486D01*
X12379Y71865D01*
X13180Y72328D01*
X13834Y72982D01*
X14296Y73782D01*
X14535Y74676D01*
Y75600D01*
X14296Y76493D01*
X13834Y77294D01*
X13180Y77948D01*
X12379Y78410D01*
X11486Y78650D01*
D02*
G37*
G36*
Y46484D02*
X10561D01*
X9668Y46245D01*
X8867Y45783D01*
X8213Y45129D01*
X7751Y44328D01*
X7512Y43435D01*
Y42510D01*
X7751Y41617D01*
X8213Y40816D01*
X8867Y40162D01*
X9668Y39700D01*
X10561Y39461D01*
X11486D01*
X12379Y39700D01*
X13180Y40162D01*
X13834Y40816D01*
X14296Y41617D01*
X14535Y42510D01*
Y43435D01*
X14296Y44328D01*
X13834Y45129D01*
X13180Y45783D01*
X12379Y46245D01*
X11486Y46484D01*
D02*
G37*
G36*
X30980Y43307D02*
X29650D01*
X28346Y43048D01*
X27117Y42539D01*
X26011Y41800D01*
X25070Y40859D01*
X24331Y39753D01*
X23822Y38525D01*
X23563Y37220D01*
Y35890D01*
X23822Y34586D01*
X24331Y33357D01*
X25070Y32251D01*
X26011Y31310D01*
X27117Y30572D01*
X28346Y30063D01*
X29650Y29803D01*
X30980D01*
X32284Y30063D01*
X33513Y30572D01*
X34619Y31310D01*
X35560Y32251D01*
X36298Y33357D01*
X36808Y34586D01*
X37067Y35890D01*
Y37220D01*
X36808Y38525D01*
X36298Y39753D01*
X35560Y40859D01*
X34619Y41800D01*
X33513Y42539D01*
X32284Y43048D01*
X30980Y43307D01*
D02*
G37*
G36*
X11486Y36484D02*
X10561D01*
X9668Y36245D01*
X8867Y35783D01*
X8213Y35129D01*
X7751Y34328D01*
X7512Y33435D01*
Y32510D01*
X7751Y31617D01*
X8213Y30816D01*
X8867Y30162D01*
X9668Y29700D01*
X10561Y29461D01*
X11486D01*
X12379Y29700D01*
X13180Y30162D01*
X13834Y30816D01*
X14296Y31617D01*
X14535Y32510D01*
Y33435D01*
X14296Y34328D01*
X13834Y35129D01*
X13180Y35783D01*
X12379Y36245D01*
X11486Y36484D01*
D02*
G37*
G36*
X71209Y97823D02*
X67847D01*
Y94303D01*
X68557D01*
X68568Y94233D01*
X68577Y94130D01*
X68581Y93990D01*
X68604Y93937D01*
Y93532D01*
X64662Y89590D01*
X64462Y89290D01*
X64392Y88937D01*
Y85193D01*
X64368Y85140D01*
X64365Y85000D01*
X64356Y84897D01*
X64344Y84827D01*
X62063D01*
Y78323D01*
X68567D01*
Y84827D01*
X66286D01*
X66274Y84897D01*
X66265Y85000D01*
X66262Y85140D01*
X66238Y85193D01*
Y88555D01*
X70180Y92497D01*
X70381Y92796D01*
X70451Y93150D01*
Y93937D01*
X70474Y93990D01*
X70478Y94130D01*
X70487Y94233D01*
X70498Y94303D01*
X71209D01*
Y97823D01*
D02*
G37*
G36*
X235236Y110777D02*
X235236Y110777D01*
X200394D01*
X200011Y110619D01*
X199853Y110236D01*
Y95197D01*
X199844Y95177D01*
Y94587D01*
X199853Y94567D01*
Y94316D01*
X199874Y94265D01*
X199863Y94210D01*
X199951Y94079D01*
X199996Y93969D01*
X199844Y93602D01*
Y93012D01*
X200034Y92554D01*
X200034Y92486D01*
X199844Y92028D01*
Y91437D01*
X200034Y90979D01*
X200492Y90789D01*
X202854D01*
X202902Y90809D01*
X205040D01*
X205092Y90786D01*
X205232Y90782D01*
X205335Y90773D01*
X205405Y90762D01*
Y89854D01*
X206116D01*
X206127Y89784D01*
X206136Y89681D01*
X206140Y89541D01*
X206163Y89489D01*
Y87244D01*
X206140Y87191D01*
X206136Y87054D01*
X206127Y86954D01*
X206115Y86879D01*
X206115Y86878D01*
X205327D01*
Y83516D01*
X208846D01*
Y86878D01*
X208058D01*
X208058Y86879D01*
X208046Y86954D01*
X208037Y87054D01*
X208033Y87191D01*
X208010Y87244D01*
Y89489D01*
X208033Y89541D01*
X208037Y89681D01*
X208046Y89784D01*
X208057Y89854D01*
X208768D01*
Y93553D01*
X225049D01*
Y77953D01*
X225049Y77953D01*
X225208Y77570D01*
X226487Y76291D01*
X226870Y76132D01*
X226870Y76132D01*
X235706D01*
X235706Y76132D01*
X236089Y76291D01*
X236089Y76291D01*
X237587Y77789D01*
X237746Y78172D01*
X237746Y78172D01*
Y108268D01*
X237746Y108268D01*
X237587Y108650D01*
X237587Y108650D01*
X235619Y110619D01*
X235236Y110777D01*
D02*
G37*
G36*
X167344Y66620D02*
X166962Y66461D01*
X166895Y66395D01*
X166736Y66012D01*
X166895Y65629D01*
X167278Y65471D01*
X167660Y65629D01*
X167727Y65696D01*
X167886Y66079D01*
X167727Y66461D01*
X167344Y66620D01*
D02*
G37*
G36*
X163748Y66553D02*
X163365Y66395D01*
X163298Y66328D01*
X163140Y65945D01*
X163298Y65562D01*
X163681Y65404D01*
X164064Y65562D01*
X164131Y65629D01*
X164289Y66012D01*
X164131Y66395D01*
X163748Y66553D01*
D02*
G37*
G36*
X100319Y54084D02*
X99936Y53926D01*
X99838Y53828D01*
X99679Y53445D01*
X99838Y53062D01*
X100221Y52904D01*
X100603Y53062D01*
X100702Y53161D01*
X100860Y53543D01*
X100702Y53926D01*
X100319Y54084D01*
D02*
G37*
G36*
X223811Y47252D02*
X223311Y47252D01*
X220661D01*
Y43299D01*
X223311D01*
X223630Y43299D01*
X224130Y43299D01*
X226780D01*
Y47252D01*
X223811Y47252D01*
D02*
G37*
G36*
X131496Y28238D02*
X131193Y28112D01*
X131113Y28080D01*
X130955Y27697D01*
X131113Y27314D01*
X131496Y27156D01*
X131799Y27281D01*
X131879Y27314D01*
X132037Y27697D01*
X131879Y28080D01*
X131799Y28112D01*
X131496Y28238D01*
D02*
G37*
G36*
X136614D02*
X136311Y28112D01*
X136232Y28080D01*
X136073Y27697D01*
X136232Y27314D01*
X136614Y27156D01*
X136997Y27314D01*
X137155Y27697D01*
X136997Y28080D01*
X136614Y28238D01*
D02*
G37*
G36*
X193504Y24883D02*
X187205D01*
X186549Y24753D01*
X185993Y24381D01*
X185859Y24181D01*
X185855Y24180D01*
X185774Y24163D01*
X185492Y24137D01*
X185317Y24134D01*
X185263Y24110D01*
X184842D01*
X184790Y24133D01*
X184790Y24133D01*
X184789Y24134D01*
X184709Y24136D01*
X184652Y24141D01*
X184603Y24150D01*
X184560Y24161D01*
X184523Y24173D01*
X184491Y24187D01*
X184462Y24203D01*
X184437Y24220D01*
X184412Y24240D01*
X184372Y24281D01*
X184275Y24320D01*
X184108Y24487D01*
X183563Y24713D01*
X182973D01*
X182427Y24487D01*
X182009Y24069D01*
X181783Y23524D01*
Y22933D01*
X182009Y22388D01*
X182427Y21970D01*
X182973Y21744D01*
X183563D01*
X184108Y21970D01*
X184222Y22083D01*
X184308Y22113D01*
X184352Y22152D01*
X184381Y22173D01*
X184411Y22192D01*
X184444Y22209D01*
X184482Y22224D01*
X184523Y22237D01*
X184570Y22248D01*
X184623Y22256D01*
X184682Y22262D01*
X184763Y22264D01*
X184815Y22288D01*
X185234D01*
X185286Y22264D01*
X185289Y22265D01*
X185292Y22264D01*
X185475Y22260D01*
X185622Y22251D01*
X185740Y22236D01*
X185817Y22220D01*
X185923Y22061D01*
X185928Y22047D01*
X185934Y22045D01*
X185993Y21957D01*
X186549Y21586D01*
X187205Y21455D01*
X193504D01*
X194160Y21586D01*
X194716Y21957D01*
X195088Y22513D01*
X195218Y23169D01*
X195088Y23825D01*
X194716Y24381D01*
X194160Y24753D01*
X193504Y24883D01*
D02*
G37*
G36*
X146850Y25049D02*
X146468Y24891D01*
X146309Y24508D01*
Y24335D01*
X146468Y23952D01*
X146850Y23794D01*
X147233Y23952D01*
X147392Y24335D01*
Y24508D01*
X147392Y24508D01*
X147233Y24891D01*
X146850Y25049D01*
D02*
G37*
G36*
X212402Y24883D02*
X206102D01*
X205446Y24753D01*
X204890Y24381D01*
X204519Y23825D01*
X204388Y23169D01*
X204519Y22513D01*
X204890Y21957D01*
X205446Y21586D01*
X206102Y21455D01*
X212402D01*
X213057Y21586D01*
X213614Y21957D01*
X213985Y22513D01*
X214116Y23169D01*
X213985Y23825D01*
X213614Y24381D01*
X213057Y24753D01*
X212402Y24883D01*
D02*
G37*
G36*
X193504Y19883D02*
X187205D01*
X186549Y19753D01*
X185993Y19381D01*
X185852Y19170D01*
X185850Y19170D01*
X185770Y19154D01*
X185488Y19127D01*
X185312Y19124D01*
X185258Y19100D01*
X185034D01*
X184982Y19124D01*
X184902Y19126D01*
X184845Y19132D01*
X184795Y19140D01*
X184751Y19151D01*
X184713Y19164D01*
X184680Y19178D01*
X184651Y19194D01*
X184624Y19211D01*
X184599Y19232D01*
X184558Y19272D01*
X184463Y19310D01*
X184305Y19467D01*
X183760Y19693D01*
X183169D01*
X182624Y19467D01*
X182206Y19049D01*
X181980Y18504D01*
Y17913D01*
X182206Y17368D01*
X182624Y16950D01*
X183169Y16724D01*
X183760D01*
X184305Y16950D01*
X184427Y17072D01*
X184516Y17104D01*
X184559Y17143D01*
X184587Y17164D01*
X184617Y17183D01*
X184649Y17199D01*
X184686Y17214D01*
X184726Y17227D01*
X184773Y17238D01*
X184825Y17246D01*
X184884Y17252D01*
X184964Y17254D01*
X185017Y17278D01*
X185242D01*
X185296Y17254D01*
X185296Y17254D01*
X185296Y17254D01*
X185479Y17251D01*
X185626Y17241D01*
X185744Y17226D01*
X185824Y17210D01*
X185937Y17041D01*
X185940Y17034D01*
X185942Y17032D01*
X185993Y16957D01*
X186549Y16586D01*
X187205Y16455D01*
X193504D01*
X194160Y16586D01*
X194716Y16957D01*
X195088Y17513D01*
X195218Y18169D01*
X195088Y18825D01*
X194716Y19381D01*
X194160Y19753D01*
X193504Y19883D01*
D02*
G37*
G36*
X220185Y19988D02*
X216823D01*
Y19125D01*
X216768Y19116D01*
X216669Y19107D01*
X216533Y19104D01*
X216481Y19081D01*
X214356D01*
X214302Y19104D01*
X214119Y19108D01*
X213972Y19117D01*
X213853Y19132D01*
X213769Y19149D01*
X213614Y19381D01*
X213057Y19753D01*
X212402Y19883D01*
X206102D01*
X205446Y19753D01*
X204890Y19381D01*
X204519Y18825D01*
X204388Y18169D01*
X204519Y17513D01*
X204890Y16957D01*
X205446Y16586D01*
X206102Y16455D01*
X212402D01*
X213057Y16586D01*
X213614Y16957D01*
X213769Y17189D01*
X213845Y17205D01*
X214126Y17231D01*
X214302Y17234D01*
X214356Y17258D01*
X216481D01*
X216533Y17235D01*
X216669Y17231D01*
X216768Y17222D01*
X216823Y17213D01*
Y16035D01*
X220185D01*
Y19988D01*
D02*
G37*
G36*
X193504Y14883D02*
X187205D01*
X186549Y14753D01*
X185993Y14381D01*
X185926Y14282D01*
X185917Y14278D01*
X185910Y14257D01*
X185810Y14108D01*
X185743Y14095D01*
X185464Y14068D01*
X185288Y14065D01*
X185282Y14062D01*
X185276Y14064D01*
X185226Y14041D01*
X185105D01*
X185053Y14065D01*
X184972Y14067D01*
X184913Y14072D01*
X184859Y14081D01*
X184812Y14092D01*
X184769Y14105D01*
X184732Y14120D01*
X184697Y14137D01*
X184666Y14156D01*
X184637Y14177D01*
X184592Y14216D01*
X184509Y14244D01*
X184404Y14349D01*
X183858Y14575D01*
X183268D01*
X182722Y14349D01*
X182305Y13931D01*
X182079Y13386D01*
Y12795D01*
X182305Y12250D01*
X182722Y11832D01*
X183268Y11606D01*
X183858D01*
X184404Y11832D01*
X184580Y12008D01*
X184677Y12049D01*
X184717Y12090D01*
X184741Y12109D01*
X184765Y12126D01*
X184793Y12142D01*
X184824Y12156D01*
X184861Y12168D01*
X184903Y12179D01*
X184952Y12187D01*
X185009Y12193D01*
X185089Y12195D01*
X185092Y12197D01*
X185095Y12195D01*
X185145Y12219D01*
X185267D01*
X185321Y12195D01*
X185504Y12191D01*
X185651Y12182D01*
X185770Y12167D01*
X185860Y12149D01*
X185866Y12147D01*
X185993Y11957D01*
X186063Y11911D01*
X186066Y11906D01*
X186072Y11904D01*
X186549Y11586D01*
X187205Y11455D01*
X193504D01*
X194160Y11586D01*
X194716Y11957D01*
X195088Y12513D01*
X195218Y13169D01*
X195088Y13825D01*
X194716Y14381D01*
X194160Y14753D01*
X193504Y14883D01*
D02*
G37*
%LPD*%
G36*
X70262Y94819D02*
X70193Y94794D01*
X70132Y94753D01*
X70079Y94695D01*
X70035Y94621D01*
X69998Y94531D01*
X69970Y94424D01*
X69949Y94300D01*
X69937Y94160D01*
X69933Y94004D01*
X69122D01*
X69118Y94160D01*
X69106Y94300D01*
X69085Y94424D01*
X69057Y94531D01*
X69020Y94621D01*
X68976Y94695D01*
X68923Y94753D01*
X68862Y94794D01*
X68793Y94819D01*
X68716Y94827D01*
X70339D01*
X70262Y94819D01*
D02*
G37*
G36*
X65725Y84970D02*
X65737Y84830D01*
X65757Y84706D01*
X65785Y84599D01*
X65822Y84509D01*
X65867Y84434D01*
X65919Y84377D01*
X65980Y84336D01*
X66049Y84311D01*
X66126Y84303D01*
X64504D01*
X64581Y84311D01*
X64650Y84336D01*
X64710Y84377D01*
X64763Y84434D01*
X64808Y84509D01*
X64844Y84599D01*
X64873Y84706D01*
X64893Y84830D01*
X64905Y84970D01*
X64909Y85126D01*
X65721D01*
X65725Y84970D01*
D02*
G37*
G36*
X205929Y90921D02*
X205921Y90998D01*
X205897Y91067D01*
X205855Y91128D01*
X205798Y91181D01*
X205724Y91225D01*
X205633Y91262D01*
X205526Y91290D01*
X205403Y91310D01*
X205263Y91323D01*
X205106Y91327D01*
Y92138D01*
X205263Y92142D01*
X205403Y92154D01*
X205526Y92175D01*
X205633Y92203D01*
X205724Y92239D01*
X205798Y92284D01*
X205855Y92337D01*
X205897Y92398D01*
X205921Y92466D01*
X205929Y92544D01*
Y90921D01*
D02*
G37*
G36*
X207821Y90370D02*
X207752Y90345D01*
X207691Y90304D01*
X207638Y90247D01*
X207594Y90172D01*
X207557Y90082D01*
X207529Y89975D01*
X207508Y89851D01*
X207496Y89711D01*
X207492Y89555D01*
X206681D01*
X206677Y89711D01*
X206665Y89851D01*
X206644Y89975D01*
X206616Y90082D01*
X206579Y90172D01*
X206535Y90247D01*
X206482Y90304D01*
X206421Y90345D01*
X206352Y90370D01*
X206275Y90378D01*
X207898D01*
X207821Y90370D01*
D02*
G37*
G36*
X207496Y87023D02*
X207508Y86885D01*
X207529Y86764D01*
X207557Y86658D01*
X207594Y86569D01*
X207638Y86496D01*
X207691Y86439D01*
X207752Y86398D01*
X207821Y86374D01*
X207898Y86366D01*
X206275D01*
X206352Y86374D01*
X206421Y86398D01*
X206482Y86439D01*
X206535Y86496D01*
X206579Y86569D01*
X206616Y86658D01*
X206644Y86764D01*
X206665Y86885D01*
X206677Y87023D01*
X206681Y87177D01*
X207492D01*
X207496Y87023D01*
D02*
G37*
G36*
X237205Y108268D02*
Y78172D01*
X235706Y76673D01*
X226870D01*
X225590Y77953D01*
Y94095D01*
X203230D01*
X202854Y94250D01*
X200492D01*
X200394Y94316D01*
Y110236D01*
X235236D01*
X237205Y108268D01*
D02*
G37*
G36*
X184049Y23838D02*
X184112Y23787D01*
X184179Y23741D01*
X184250Y23702D01*
X184326Y23668D01*
X184407Y23641D01*
X184492Y23620D01*
X184581Y23605D01*
X184675Y23596D01*
X184773Y23593D01*
X184747Y22805D01*
X184649Y22802D01*
X184555Y22794D01*
X184466Y22779D01*
X184380Y22759D01*
X184298Y22734D01*
X184220Y22702D01*
X184147Y22665D01*
X184077Y22622D01*
X184011Y22573D01*
X183950Y22519D01*
X183991Y23896D01*
X184049Y23838D01*
D02*
G37*
G36*
X186322Y22419D02*
X186314Y22492D01*
X186285Y22558D01*
X186235Y22616D01*
X186164Y22666D01*
X186073Y22708D01*
X185960Y22743D01*
X185827Y22770D01*
X185673Y22790D01*
X185498Y22801D01*
X185303Y22805D01*
X185327Y23593D01*
X185523Y23596D01*
X185853Y23627D01*
X185988Y23654D01*
X186102Y23689D01*
X186196Y23732D01*
X186269Y23782D01*
X186322Y23840D01*
X186355Y23905D01*
X186367Y23979D01*
X186322Y22419D01*
D02*
G37*
G36*
X184240Y18826D02*
X184303Y18775D01*
X184371Y18730D01*
X184443Y18691D01*
X184519Y18658D01*
X184599Y18631D01*
X184684Y18610D01*
X184774Y18595D01*
X184868Y18586D01*
X184966Y18583D01*
X184948Y17795D01*
X184851Y17792D01*
X184757Y17784D01*
X184667Y17769D01*
X184581Y17749D01*
X184500Y17723D01*
X184423Y17691D01*
X184349Y17653D01*
X184280Y17610D01*
X184215Y17561D01*
X184153Y17506D01*
X184181Y18883D01*
X184240Y18826D01*
D02*
G37*
G36*
X186330Y17409D02*
X186321Y17482D01*
X186291Y17548D01*
X186241Y17606D01*
X186170Y17656D01*
X186078Y17699D01*
X185965Y17733D01*
X185832Y17761D01*
X185677Y17780D01*
X185503Y17791D01*
X185307Y17795D01*
X185323Y18583D01*
X185519Y18586D01*
X185849Y18618D01*
X185983Y18644D01*
X186097Y18679D01*
X186190Y18722D01*
X186264Y18772D01*
X186316Y18830D01*
X186348Y18896D01*
X186360Y18969D01*
X186330Y17409D01*
D02*
G37*
G36*
X213272Y18876D02*
X213303Y18810D01*
X213354Y18752D01*
X213426Y18702D01*
X213519Y18660D01*
X213632Y18625D01*
X213766Y18598D01*
X213921Y18578D01*
X214096Y18567D01*
X214291Y18563D01*
Y17776D01*
X214096Y17772D01*
X213766Y17741D01*
X213632Y17714D01*
X213519Y17679D01*
X213426Y17637D01*
X213354Y17586D01*
X213303Y17528D01*
X213272Y17463D01*
X213262Y17389D01*
Y18949D01*
X213272Y18876D01*
D02*
G37*
G36*
X217347Y17382D02*
X217339Y17457D01*
X217315Y17524D01*
X217275Y17583D01*
X217219Y17634D01*
X217147Y17677D01*
X217059Y17713D01*
X216955Y17740D01*
X216835Y17760D01*
X216699Y17772D01*
X216547Y17776D01*
Y18563D01*
X216699Y18567D01*
X216835Y18579D01*
X216955Y18598D01*
X217059Y18626D01*
X217147Y18661D01*
X217219Y18705D01*
X217275Y18756D01*
X217315Y18815D01*
X217339Y18882D01*
X217347Y18957D01*
Y17382D01*
D02*
G37*
G36*
X184300Y13753D02*
X184366Y13705D01*
X184436Y13663D01*
X184510Y13626D01*
X184588Y13595D01*
X184670Y13569D01*
X184756Y13549D01*
X184846Y13535D01*
X184940Y13526D01*
X185037Y13524D01*
X185072Y12736D01*
X184974Y12733D01*
X184880Y12724D01*
X184791Y12709D01*
X184706Y12687D01*
X184626Y12660D01*
X184550Y12626D01*
X184479Y12586D01*
X184413Y12540D01*
X184351Y12488D01*
X184293Y12430D01*
X184238Y13807D01*
X184300Y13753D01*
D02*
G37*
G36*
X186375Y12350D02*
X186362Y12423D01*
X186328Y12489D01*
X186275Y12547D01*
X186201Y12597D01*
X186107Y12640D01*
X185992Y12674D01*
X185857Y12701D01*
X185702Y12721D01*
X185527Y12732D01*
X185331Y12736D01*
X185299Y13524D01*
X185494Y13528D01*
X185823Y13558D01*
X185956Y13585D01*
X186068Y13620D01*
X186159Y13663D01*
X186229Y13713D01*
X186279Y13771D01*
X186307Y13837D01*
X186315Y13910D01*
X186375Y12350D01*
D02*
G37*
%LPC*%
G36*
X215197Y66543D02*
X214528D01*
X213910Y66287D01*
X213740Y66117D01*
X213646Y66081D01*
X213576Y66014D01*
X213520Y65968D01*
X213464Y65930D01*
X213409Y65897D01*
X213354Y65870D01*
X213297Y65849D01*
X213239Y65832D01*
X213178Y65820D01*
X213113Y65812D01*
X213024Y65808D01*
X212973Y65785D01*
X212791D01*
X212738Y65809D01*
X212598Y65812D01*
X212495Y65821D01*
X212425Y65833D01*
Y66543D01*
X208472D01*
Y63181D01*
X212425D01*
Y63892D01*
X212495Y63903D01*
X212598Y63912D01*
X212738Y63916D01*
X212791Y63939D01*
X212973D01*
X213024Y63916D01*
X213113Y63912D01*
X213178Y63905D01*
X213239Y63893D01*
X213297Y63876D01*
X213354Y63854D01*
X213409Y63827D01*
X213464Y63795D01*
X213520Y63756D01*
X213576Y63710D01*
X213646Y63643D01*
X213740Y63607D01*
X213910Y63437D01*
X214528Y63181D01*
X215197D01*
X215814Y63437D01*
X216287Y63910D01*
X216543Y64528D01*
Y65197D01*
X216287Y65815D01*
X215814Y66287D01*
X215197Y66543D01*
D02*
G37*
%LPD*%
G36*
X211909Y65596D02*
X211934Y65527D01*
X211975Y65466D01*
X212033Y65414D01*
X212107Y65369D01*
X212197Y65333D01*
X212304Y65304D01*
X212428Y65284D01*
X212568Y65272D01*
X212724Y65268D01*
Y64457D01*
X212568Y64453D01*
X212428Y64441D01*
X212304Y64420D01*
X212197Y64392D01*
X212107Y64355D01*
X212033Y64311D01*
X211975Y64258D01*
X211934Y64197D01*
X211909Y64128D01*
X211901Y64051D01*
Y65673D01*
X211909Y65596D01*
D02*
G37*
G36*
X214019Y64035D02*
X213935Y64116D01*
X213848Y64187D01*
X213758Y64250D01*
X213665Y64305D01*
X213569Y64351D01*
X213470Y64389D01*
X213368Y64419D01*
X213263Y64440D01*
X213155Y64452D01*
X213044Y64457D01*
Y65268D01*
X213155Y65272D01*
X213263Y65285D01*
X213368Y65306D01*
X213470Y65335D01*
X213569Y65373D01*
X213665Y65419D01*
X213758Y65474D01*
X213848Y65537D01*
X213935Y65609D01*
X214019Y65689D01*
Y64035D01*
D02*
G37*
%LPC*%
G36*
X125689Y32136D02*
X125306Y31977D01*
X125208Y31879D01*
X125049Y31496D01*
X125208Y31113D01*
X125542Y30779D01*
X125925Y30620D01*
X126308Y30779D01*
X126466Y31161D01*
X126308Y31544D01*
X126211Y31641D01*
X126072Y31977D01*
X125689Y32136D01*
D02*
G37*
G36*
X167502Y42963D02*
X167120Y42804D01*
X166961Y42421D01*
X167120Y42039D01*
X167153Y42006D01*
X167535Y41847D01*
X167918Y42006D01*
X168077Y42388D01*
X167918Y42771D01*
X167885Y42804D01*
X167502Y42963D01*
D02*
G37*
%LPD*%
D12*
X159055Y70965D02*
X159153Y70866D01*
X157185Y70965D02*
X159055D01*
X154724Y68504D02*
X157185Y70965D01*
X150886Y68504D02*
X154724D01*
X147249Y67913D02*
X150295D01*
X150886Y68504D01*
X144690Y45669D02*
X148031D01*
X144685Y45664D02*
X144690Y45669D01*
X155388Y65945D02*
X159153D01*
X154443Y66890D02*
X155388Y65945D01*
X151149Y63976D02*
X152133Y64961D01*
X147249Y63976D02*
X151149D01*
X151760Y66890D02*
X154443D01*
X150815Y65945D02*
X151760Y66890D01*
X147249Y65945D02*
X150815D01*
X152133Y64961D02*
X152559D01*
X218347Y18169D02*
X218504Y18012D01*
X209449Y18169D02*
X218347D01*
X190118Y28209D02*
X190157Y28169D01*
X189665Y28661D02*
X190118Y28209D01*
X189665Y28661D02*
Y31398D01*
X191437Y33169D02*
Y36220D01*
X189665Y31398D02*
X191437Y33169D01*
X183209Y28209D02*
X190118D01*
X183169Y28248D02*
X183209Y28209D01*
X183602Y13130D02*
X190118D01*
X190157Y13169D01*
X183563Y13091D02*
X183602Y13130D01*
X190138Y18189D02*
X190157Y18169D01*
X183484Y18189D02*
X190138D01*
X183465Y18209D02*
X183484Y18189D01*
X183268Y23228D02*
X183297Y23199D01*
X190128D02*
X190157Y23169D01*
X183297Y23199D02*
X190128D01*
X134449Y94563D02*
Y99213D01*
Y94563D02*
X136811Y92200D01*
Y72446D02*
Y92200D01*
X126969Y100630D02*
X128898D01*
X130315Y99213D01*
X134449D02*
X134449Y99213D01*
X130315Y99213D02*
X134449D01*
X138779Y101673D02*
X142618Y105512D01*
X143110D01*
X138779Y98524D02*
Y101673D01*
X138779Y98524D02*
X138779Y98524D01*
X138779Y72446D02*
Y98524D01*
X147343Y105512D02*
X148760Y104095D01*
X150591D01*
X143110Y105512D02*
X147343D01*
X142717Y45664D02*
X142746Y45635D01*
Y43474D02*
Y45635D01*
X144882Y41339D02*
X154724D01*
X142746Y43474D02*
X144882Y41339D01*
X154724D02*
X155807Y42421D01*
X159350D01*
X140748Y45664D02*
X140778Y45635D01*
Y43474D02*
Y45635D01*
Y43474D02*
X144488Y39764D01*
X156890Y31693D02*
Y37598D01*
X154724Y39764D02*
X156890Y37598D01*
X144488Y39764D02*
X154724D01*
D15*
X134843Y41732D02*
Y45664D01*
Y41732D02*
X136553Y40022D01*
Y38348D02*
X136614Y38287D01*
X136553Y38348D02*
Y40022D01*
X133661Y37982D02*
Y39764D01*
X132874Y40551D02*
X133661Y39764D01*
X132874Y40551D02*
Y45664D01*
X130990Y43715D02*
Y45580D01*
X130905Y45664D02*
X130990Y45580D01*
X131496Y41354D02*
Y43209D01*
X130990Y43715D02*
X131496Y43209D01*
X130651Y38848D02*
Y40509D01*
X130578Y38775D02*
X130651Y38848D01*
Y40509D02*
X131496Y41354D01*
X129626Y42126D02*
Y42523D01*
X128937Y43212D02*
X129626Y42523D01*
X128937Y43212D02*
Y45664D01*
D19*
X111221Y22441D02*
D03*
Y36614D02*
D03*
D20*
X132874Y85866D02*
D03*
Y89331D02*
D03*
X127953Y85866D02*
D03*
Y89331D02*
D03*
X123031Y85866D02*
D03*
Y89331D02*
D03*
X118110Y85866D02*
D03*
Y89331D02*
D03*
X108268Y85866D02*
D03*
Y89331D02*
D03*
X131496Y31161D02*
D03*
X141732D02*
D03*
Y85866D02*
D03*
X146653D02*
D03*
X126969Y100630D02*
D03*
X150591Y104095D02*
D03*
X146850Y31161D02*
D03*
X151969D02*
D03*
X136614D02*
D03*
X207087Y85197D02*
D03*
X126969Y104095D02*
D03*
X207087Y81732D02*
D03*
X150591Y100630D02*
D03*
X146850Y27697D02*
D03*
X151969D02*
D03*
X136614D02*
D03*
X131496D02*
D03*
X141732D02*
D03*
Y89331D02*
D03*
X146653D02*
D03*
D21*
X113189Y85335D02*
D03*
Y89862D02*
D03*
X172933Y100098D02*
D03*
X156890Y27165D02*
D03*
X151575Y85335D02*
D03*
X156890Y31693D02*
D03*
X218504Y18012D02*
D03*
X172933Y104626D02*
D03*
X207087Y91831D02*
D03*
Y96358D02*
D03*
X151575Y89862D02*
D03*
X218504Y13484D02*
D03*
D22*
X190354Y28169D02*
D03*
Y23169D02*
D03*
Y18169D02*
D03*
Y13169D02*
D03*
X209252Y28169D02*
D03*
Y23169D02*
D03*
Y18169D02*
D03*
Y13169D02*
D03*
D23*
X192913Y104331D02*
D03*
X127756Y7382D02*
D03*
X225197Y103543D02*
D03*
D24*
X67520Y9899D02*
D03*
X52165D02*
D03*
Y107221D02*
D03*
X67520D02*
D03*
D25*
X206453Y51657D02*
D03*
X209917D02*
D03*
Y46128D02*
D03*
X206453D02*
D03*
X69528Y96063D02*
D03*
X207244Y36220D02*
D03*
X159685Y75590D02*
D03*
X107047Y61417D02*
D03*
Y69291D02*
D03*
Y53543D02*
D03*
Y44685D02*
D03*
X159969Y47272D02*
D03*
X247992Y82972D02*
D03*
X103583Y61417D02*
D03*
Y69291D02*
D03*
Y53543D02*
D03*
Y44685D02*
D03*
X244528Y82972D02*
D03*
X203780Y36220D02*
D03*
X72992Y96063D02*
D03*
X163150Y75590D02*
D03*
X163434Y47272D02*
D03*
D26*
X205921Y57284D02*
D03*
X210449D02*
D03*
X205921Y64862D02*
D03*
X210449D02*
D03*
X163681Y70866D02*
D03*
X163878Y42421D02*
D03*
X159350D02*
D03*
X159153Y65945D02*
D03*
Y70866D02*
D03*
X191437Y36220D02*
D03*
X163681Y65945D02*
D03*
X195965Y36220D02*
D03*
D27*
X225295Y44291D02*
D03*
Y46260D02*
D03*
Y50197D02*
D03*
Y52165D02*
D03*
X222146D02*
D03*
Y50197D02*
D03*
Y46260D02*
D03*
Y44291D02*
D03*
X225295Y60039D02*
D03*
Y62008D02*
D03*
Y65945D02*
D03*
Y67913D02*
D03*
X222146D02*
D03*
Y65945D02*
D03*
Y62008D02*
D03*
Y60039D02*
D03*
D28*
X225295Y48228D02*
D03*
X222146D02*
D03*
X225295Y63976D02*
D03*
X222146D02*
D03*
D29*
X147249Y62008D02*
D03*
Y60039D02*
D03*
Y56102D02*
D03*
Y54134D02*
D03*
Y69882D02*
D03*
X120467Y48228D02*
D03*
Y54134D02*
D03*
Y60039D02*
D03*
Y65945D02*
D03*
X147249Y58071D02*
D03*
Y50197D02*
D03*
Y52165D02*
D03*
X120467D02*
D03*
Y50197D02*
D03*
Y58071D02*
D03*
Y56102D02*
D03*
Y63976D02*
D03*
Y62008D02*
D03*
Y67913D02*
D03*
X147249Y65945D02*
D03*
Y67913D02*
D03*
Y48228D02*
D03*
Y63976D02*
D03*
D30*
X242913Y67913D02*
D03*
Y65945D02*
D03*
Y52165D02*
D03*
Y50197D02*
D03*
Y54134D02*
D03*
Y63976D02*
D03*
Y58071D02*
D03*
Y60039D02*
D03*
Y56102D02*
D03*
Y48228D02*
D03*
Y69882D02*
D03*
Y62008D02*
D03*
D31*
X126969Y72446D02*
D03*
X140748D02*
D03*
X142717D02*
D03*
X136811Y45664D02*
D03*
X125000D02*
D03*
X136811Y72446D02*
D03*
X138779D02*
D03*
X128937D02*
D03*
X130905D02*
D03*
X134843D02*
D03*
X138779Y45664D02*
D03*
X126969D02*
D03*
X123031D02*
D03*
X142717D02*
D03*
X144685Y72446D02*
D03*
X140748Y45664D02*
D03*
X125000Y72446D02*
D03*
X123031D02*
D03*
X144685Y45664D02*
D03*
X132874D02*
D03*
X130905D02*
D03*
X128937D02*
D03*
X134843D02*
D03*
X132874Y72446D02*
D03*
D32*
X188976Y95965D02*
D03*
X125591Y31496D02*
D03*
X213386Y96358D02*
D03*
X188976Y90650D02*
D03*
X213386Y91043D02*
D03*
X125591Y26181D02*
D03*
D33*
X196752Y94882D02*
D03*
Y93307D02*
D03*
X201673Y91732D02*
D03*
Y94882D02*
D03*
X196752Y91732D02*
D03*
X201673Y93307D02*
D03*
D34*
X134449Y99213D02*
D03*
X143110Y105512D02*
D03*
X134449D02*
D03*
X143110Y99213D02*
D03*
D35*
X104823Y14567D02*
D03*
X99508D02*
D03*
D36*
X120467Y69882D02*
D03*
D37*
X166634Y105315D02*
D03*
Y99409D02*
D03*
D54*
X133858Y59055D02*
D03*
D64*
X93884Y67338D02*
X94263Y66422D01*
X95178Y66043D01*
X93884Y69668D02*
X93505Y70583D01*
X92590Y70962D01*
X92590D02*
X91674Y70583D01*
X91295Y69668D01*
X90001Y67132D02*
X90916Y67511D01*
X91295Y68427D01*
X88706D02*
X89086Y67511D01*
X90001Y67132D01*
X88706Y69710D02*
X88327Y70625D01*
X87412Y71004D01*
X87412D02*
X86497Y70625D01*
X86118Y69710D01*
X84823Y67132D02*
X85738Y67511D01*
X86118Y68427D01*
X83529D02*
X83908Y67511D01*
X84823Y67132D01*
X83529Y70137D02*
X83150Y71052D01*
X82235Y71431D01*
X82235D02*
X81319Y71052D01*
X80940Y70137D01*
X79646Y67132D02*
X80561Y67511D01*
X80940Y68427D01*
X78351D02*
X78730Y67511D01*
X79646Y67132D01*
X78351Y69703D02*
X77972Y70618D01*
X77057Y70997D01*
X77057D02*
X76142Y70618D01*
X75762Y69703D01*
X74468Y67132D02*
X75383Y67511D01*
X75762Y68427D01*
X73174D02*
X73553Y67511D01*
X74468Y67132D01*
X73174Y71500D02*
X72795Y72415D01*
X71879Y72795D01*
X71879D02*
X70964Y72415D01*
X70585Y71500D01*
X69291Y67132D02*
X70206Y67511D01*
X70585Y68427D01*
X71358Y46535D02*
X72273Y46914D01*
X72653Y47830D01*
X75036Y50221D02*
X74124Y50040D01*
X73351Y49523D01*
X72834Y48750D01*
X72653Y47838D01*
X77419D02*
X77238Y48750D01*
X76721Y49523D01*
X75948Y50040D01*
X75036Y50221D01*
X77419Y45086D02*
X77798Y44171D01*
X78713Y43792D01*
X78713D02*
X79629Y44171D01*
X80008Y45086D01*
X82391Y50221D02*
X81479Y50040D01*
X80706Y49523D01*
X80189Y48750D01*
X80008Y47838D01*
X84774D02*
X84593Y48750D01*
X84076Y49523D01*
X83303Y50040D01*
X82391Y50221D01*
X84774Y45086D02*
X85153Y44171D01*
X86068Y43792D01*
X86069D02*
X86984Y44171D01*
X87363Y45086D01*
X89746Y50221D02*
X88834Y50040D01*
X88061Y49523D01*
X87544Y48750D01*
X87363Y47838D01*
X92129D02*
X91948Y48750D01*
X91431Y49523D01*
X90658Y50040D01*
X89746Y50221D01*
X92129Y45086D02*
X92508Y44171D01*
X93424Y43792D01*
X93424D02*
X94339Y44171D01*
X94718Y45086D01*
X97101Y49908D02*
X96189Y49726D01*
X95416Y49210D01*
X94899Y48436D01*
X94718Y47524D01*
X71358Y45447D02*
X72270Y45628D01*
X73043Y46145D01*
X73560Y46918D01*
X73741Y47830D01*
X75036Y49132D02*
X74121Y48753D01*
X73741Y47838D01*
X76330D02*
X75951Y48753D01*
X75036Y49132D01*
X76330Y45086D02*
X76512Y44174D01*
X77028Y43401D01*
X77801Y42884D01*
X78713Y42703D01*
X78713D02*
X79625Y42884D01*
X80399Y43401D01*
X80915Y44174D01*
X81097Y45086D01*
X82391Y49132D02*
X81476Y48753D01*
X81097Y47838D01*
X83685D02*
X83306Y48753D01*
X82391Y49132D01*
X83685Y45086D02*
X83867Y44174D01*
X84383Y43401D01*
X85157Y42884D01*
X86068Y42703D01*
X86069D02*
X86981Y42884D01*
X87754Y43401D01*
X88270Y44174D01*
X88452Y45086D01*
X89746Y49132D02*
X88831Y48753D01*
X88452Y47838D01*
X91040D02*
X90661Y48753D01*
X89746Y49132D01*
X91040Y45086D02*
X91222Y44174D01*
X91738Y43401D01*
X92512Y42884D01*
X93424Y42703D01*
X93424D02*
X94336Y42884D01*
X95109Y43401D01*
X95626Y44174D01*
X95807Y45086D01*
X97101Y48819D02*
X96186Y48440D01*
X95807Y47524D01*
X74067Y57628D02*
X74983Y58007D01*
X75362Y58922D01*
X77745Y61821D02*
X76833Y61639D01*
X76060Y61123D01*
X75543Y60349D01*
X75362Y59437D01*
X80128D02*
X79947Y60349D01*
X79430Y61123D01*
X78657Y61639D01*
X77745Y61821D01*
X80128Y54681D02*
X80507Y53765D01*
X81422Y53386D01*
X81422D02*
X82338Y53765D01*
X82717Y54681D01*
X85100Y61821D02*
X84188Y61639D01*
X83415Y61123D01*
X82898Y60349D01*
X82717Y59437D01*
X87483D02*
X87302Y60349D01*
X86785Y61123D01*
X86012Y61639D01*
X85100Y61821D01*
X87483Y54681D02*
X87862Y53765D01*
X88778Y53386D01*
X88778D02*
X89693Y53765D01*
X90072Y54681D01*
X92455Y61371D02*
X91543Y61190D01*
X90770Y60673D01*
X90253Y59900D01*
X90072Y58988D01*
X94838D02*
X94657Y59900D01*
X94140Y60673D01*
X93367Y61190D01*
X92455Y61371D01*
X94838Y58922D02*
X95217Y58007D01*
X96133Y57628D01*
X74067Y56539D02*
X74979Y56720D01*
X75752Y57237D01*
X76269Y58010D01*
X76450Y58922D01*
X77745Y60732D02*
X76829Y60353D01*
X76450Y59437D01*
X79039D02*
X78660Y60353D01*
X77745Y60732D01*
X79039Y54681D02*
X79221Y53769D01*
X79737Y52996D01*
X80510Y52479D01*
X81422Y52298D01*
X81422D02*
X82334Y52479D01*
X83108Y52996D01*
X83624Y53769D01*
X83806Y54681D01*
X85100Y60732D02*
X84185Y60353D01*
X83806Y59437D01*
X86394D02*
X86015Y60353D01*
X85100Y60732D01*
X86394Y54681D02*
X86576Y53769D01*
X87092Y52996D01*
X87866Y52479D01*
X88778Y52298D01*
X88778D02*
X89689Y52479D01*
X90463Y52996D01*
X90979Y53769D01*
X91161Y54681D01*
X92455Y60282D02*
X91540Y59903D01*
X91161Y58988D01*
X93749D02*
X93370Y59903D01*
X92455Y60282D01*
X93749Y58922D02*
X93931Y58010D01*
X94447Y57237D01*
X95221Y56720D01*
X96133Y56539D01*
X70691Y76535D02*
X71606Y76915D01*
X71985Y77830D01*
X74368Y80567D02*
X73456Y80386D01*
X72683Y79869D01*
X72166Y79096D01*
X71985Y78184D01*
X76751D02*
X76570Y79096D01*
X76053Y79869D01*
X75280Y80386D01*
X74368Y80567D01*
X76751Y74469D02*
X77130Y73554D01*
X78046Y73175D01*
X78046D02*
X78961Y73554D01*
X79340Y74469D01*
X81723Y80567D02*
X80811Y80386D01*
X80038Y79869D01*
X79522Y79096D01*
X79340Y78184D01*
X84106D02*
X83925Y79096D01*
X83408Y79869D01*
X82635Y80386D01*
X81723Y80567D01*
X84106Y74469D02*
X84486Y73554D01*
X85401Y73175D01*
X85401D02*
X86316Y73554D01*
X86695Y74469D01*
X89078Y80567D02*
X88166Y80386D01*
X87393Y79869D01*
X86877Y79096D01*
X86695Y78184D01*
X91462D02*
X91280Y79096D01*
X90764Y79869D01*
X89990Y80386D01*
X89078Y80567D01*
X91462Y77830D02*
X91841Y76915D01*
X92756Y76535D01*
X70691Y75447D02*
X71603Y75628D01*
X72376Y76145D01*
X72892Y76918D01*
X73074Y77830D01*
X74368Y79478D02*
X73453Y79099D01*
X73074Y78184D01*
X75662D02*
X75283Y79099D01*
X74368Y79478D01*
X75662Y74469D02*
X75844Y73557D01*
X76360Y72784D01*
X77134Y72267D01*
X78046Y72086D01*
X78046D02*
X78958Y72267D01*
X79731Y72784D01*
X80247Y73557D01*
X80429Y74469D01*
X81723Y79478D02*
X80808Y79099D01*
X80429Y78184D01*
X83018D02*
X82639Y79099D01*
X81723Y79478D01*
X83018Y74469D02*
X83199Y73557D01*
X83716Y72784D01*
X84489Y72267D01*
X85401Y72086D01*
X85401D02*
X86313Y72267D01*
X87086Y72784D01*
X87603Y73557D01*
X87784Y74469D01*
X89078Y79478D02*
X88163Y79099D01*
X87784Y78184D01*
X90373D02*
X89994Y79099D01*
X89078Y79478D01*
X90373Y77830D02*
X90554Y76918D01*
X91071Y76145D01*
X91844Y75628D01*
X92756Y75447D01*
X95178Y66043D02*
X107066D01*
X93884Y67338D02*
Y69668D01*
X92590Y70962D02*
X92590D01*
X91295Y68427D02*
Y69668D01*
X90001Y67132D02*
X90001D01*
X88706Y68427D02*
Y69710D01*
X87412Y71004D02*
X87412D01*
X86118Y68427D02*
Y69710D01*
X84823Y67132D02*
X84823D01*
X83529Y68427D02*
Y70137D01*
X82235Y71431D02*
X82235D01*
X80940Y68427D02*
Y70137D01*
X79646Y67132D02*
X79646D01*
X78351Y68427D02*
Y69703D01*
X77057Y70997D02*
X77057D01*
X75762Y68427D02*
Y69703D01*
X74468Y67132D02*
X74468D01*
X73174Y68427D02*
Y71500D01*
X71879Y72795D02*
X71879D01*
X70585Y68427D02*
Y71500D01*
X68996Y67132D02*
X69291D01*
X107066Y66043D02*
X111082D01*
X113589Y63537D01*
X61722Y66043D02*
X92618D01*
X93707Y64955D01*
X110631D01*
X61271Y67132D02*
X68996D01*
X110631Y64955D02*
X113138Y62448D01*
X118613D01*
X113589Y63537D02*
X118613D01*
X119052Y63976D01*
Y62008D02*
X120467D01*
X118613Y62448D02*
X119052Y62008D01*
X109355Y76535D02*
X116500Y69390D01*
X96305Y76535D02*
X109355D01*
X96305Y75447D02*
X108904D01*
X116049Y68301D01*
X117815D01*
X116500Y69390D02*
X117815D01*
X59153Y61910D02*
X60630Y63386D01*
X60674Y66535D02*
X61271Y67132D01*
X55315Y66535D02*
X60674D01*
X60630Y63386D02*
Y64951D01*
X49606Y52756D02*
X50787Y51575D01*
X65315D01*
X51279Y61910D02*
X59153D01*
X60630Y64951D02*
X61722Y66043D01*
X49606Y60236D02*
X51279Y61910D01*
X49606Y52756D02*
Y60236D01*
X113733Y51726D02*
X118613D01*
X111916Y49908D02*
X113733Y51726D01*
X119052Y52165D02*
X120467D01*
X118613Y51726D02*
X119052Y52165D01*
X55315Y46535D02*
X70519D01*
Y46535D02*
Y46535D01*
Y46535D02*
X71358D01*
X72653Y47830D02*
Y47838D01*
X75036Y50221D02*
X75036D01*
X77419Y45086D02*
Y47838D01*
X78713Y43792D02*
X78713D01*
X80008Y45086D02*
Y47838D01*
X82391Y50221D02*
X82391D01*
X84774Y45086D02*
Y47838D01*
X86068Y43792D02*
X86069D01*
X87363Y45086D02*
Y47838D01*
X89746Y50221D02*
X89746D01*
X92129Y45086D02*
Y47838D01*
X93424Y43792D02*
X93424D01*
X94718Y45086D02*
Y47524D01*
X97101Y49908D02*
X103310D01*
Y49908D01*
X111916D01*
X65315Y45102D02*
X65660Y45447D01*
X65315Y41575D02*
Y45102D01*
X118613Y50637D02*
X119052Y50197D01*
X114184Y50637D02*
X118613D01*
X119052Y50197D02*
X120467D01*
X112367Y48819D02*
X114184Y50637D01*
X65660Y45447D02*
X70519D01*
X71358D01*
X73741Y47830D02*
Y47838D01*
X75036Y49132D02*
X75036D01*
X76330Y45086D02*
Y47838D01*
X78713Y42703D02*
X78713D01*
X81097Y45086D02*
Y47838D01*
X82391Y49132D02*
X82391D01*
X83685Y45086D02*
Y47838D01*
X86068Y42703D02*
X86069D01*
X88452Y45086D02*
Y47838D01*
X89746Y49132D02*
X89746D01*
X91040Y45086D02*
Y47838D01*
X93424Y42703D02*
X93424D01*
X95807Y45086D02*
Y47524D01*
X97101Y48819D02*
X103310D01*
X112367D01*
X65158Y61417D02*
X65315Y61575D01*
X65158Y58169D02*
Y61417D01*
Y58169D02*
X65702Y57624D01*
X118613Y57631D02*
X119052Y58071D01*
X120467D01*
X65702Y57624D02*
X73228D01*
X106208Y57631D02*
X118613D01*
X73228Y57624D02*
Y57624D01*
Y57624D02*
X73233D01*
X73237Y57628D01*
X74067D01*
X75362Y58922D02*
Y59437D01*
X77745Y61821D02*
X77745D01*
X80128Y54681D02*
Y59437D01*
X81422Y53386D02*
X81422D01*
X82717Y54681D02*
Y59437D01*
X85100Y61821D02*
X85100D01*
X87483Y54681D02*
Y59437D01*
X88778Y53386D02*
X88778D01*
X90072Y54681D02*
Y58988D01*
X92455Y61371D02*
X92455D01*
X94838Y58922D02*
Y58988D01*
X96133Y57628D02*
X105749D01*
X105753Y57631D01*
X106208D01*
Y57631D01*
X118613Y56542D02*
X119052Y56102D01*
X120467D01*
X55315Y56535D02*
X73228D01*
X106208Y56542D02*
X118613D01*
X73228Y56535D02*
X73684D01*
X73687Y56539D01*
X74067D01*
X76450Y58922D02*
Y59437D01*
X77745Y60732D02*
X77745D01*
X79039Y54681D02*
Y59437D01*
X81422Y52298D02*
X81422D01*
X83806Y54681D02*
Y59437D01*
X85100Y60732D02*
X85100D01*
X86394Y54681D02*
Y59437D01*
X88778Y52298D02*
X88778D01*
X91161Y54681D02*
Y58988D01*
X92455Y60282D02*
X92455D01*
X93749Y58922D02*
Y58988D01*
X96133Y56539D02*
X106200D01*
X106203Y56542D01*
X106208D01*
X119052Y63976D02*
X120467D01*
X117815Y69390D02*
X118131Y69705D01*
X120291D02*
X120467Y69882D01*
X118131Y69705D02*
X120291D01*
X55315Y76535D02*
X69852D01*
Y76535D02*
Y76535D01*
Y76535D02*
X70691D01*
X71985Y77830D02*
Y78184D01*
X74368Y80567D02*
X74368D01*
X76751Y74469D02*
Y78184D01*
X78046Y73175D02*
X78046D01*
X79340Y74469D02*
Y78184D01*
X81723Y80567D02*
X81723D01*
X84106Y74469D02*
Y78184D01*
X85401Y73175D02*
X85401D01*
X86695Y74469D02*
Y78184D01*
X89078Y80567D02*
X89078D01*
X91462Y77830D02*
Y78184D01*
X92756Y76535D02*
X96305D01*
Y76535D01*
X65315Y71575D02*
Y75102D01*
X65660Y75447D01*
X120400Y67981D02*
X120467Y67913D01*
X117815Y68301D02*
X118135Y67981D01*
X120400D01*
X65660Y75447D02*
X69852D01*
X70691D01*
X73074Y77830D02*
Y78184D01*
X74368Y79478D02*
X74368D01*
X75662Y74469D02*
Y78184D01*
X78046Y72086D02*
X78046D01*
X80429Y74469D02*
Y78184D01*
X81723Y79478D02*
X81723D01*
X83018Y74469D02*
Y78184D01*
X85401Y72086D02*
X85401D01*
X87784Y74469D02*
Y78184D01*
X89078Y79478D02*
X89078D01*
X90373Y77830D02*
Y78184D01*
X92756Y75447D02*
X96305D01*
D65*
X199213Y93307D02*
D03*
D66*
X148933Y55774D02*
X181959D01*
X183258Y57073D01*
X148933Y54462D02*
X182502D01*
X183801Y55762D02*
X191988D01*
X183258Y57073D02*
X191988D01*
Y55762D02*
X192691Y55059D01*
X193110D01*
X192691Y57776D02*
X193110D01*
X191988Y57073D02*
X192691Y57776D01*
X182502Y54462D02*
X183801Y55762D01*
X148604Y56102D02*
X148933Y55774D01*
X148604Y54134D02*
X148933Y54462D01*
X192058Y61717D02*
X192933D01*
X148933Y60368D02*
X192564D01*
X193476Y60406D02*
X201279Y68209D01*
X148933Y61679D02*
X192021D01*
X192933Y61717D02*
X200736Y69520D01*
X192021Y61679D02*
X192058Y61717D01*
X192602Y60406D02*
X193476D01*
X192564Y60368D02*
X192602Y60406D01*
X148933Y50525D02*
X195014D01*
X204856Y60368D01*
X148933Y51837D02*
X194471D01*
X204313Y61679D01*
X220588D01*
X204856Y60368D02*
X220588D01*
X201279Y68209D02*
X218594D01*
X200736Y69520D02*
X219137D01*
X205784Y50988D02*
X206453Y51657D01*
X205784Y50023D02*
Y50988D01*
X205309Y49548D02*
X205784Y50023D01*
X204232Y49548D02*
X205309D01*
X147249Y56102D02*
X148604D01*
X204100Y48237D02*
X205309D01*
X205784Y47761D01*
Y46796D02*
X206453Y46128D01*
X205784Y46796D02*
Y47761D01*
X147249Y54134D02*
X148604D01*
X240470Y66273D02*
X240614Y66130D01*
X238917Y66273D02*
X240470D01*
X242728Y66130D02*
X242913Y65945D01*
X240614Y66130D02*
X242728D01*
X222059Y66031D02*
X222146Y65945D01*
X220830Y66031D02*
X222059D01*
X222146Y65945D02*
X225295D01*
X218594Y68209D02*
X220233Y66570D01*
X220292D02*
X220830Y66031D01*
X220233Y66570D02*
X220292D01*
X148604Y60039D02*
X148933Y60368D01*
X147249Y60039D02*
X148604D01*
X242728Y67729D02*
X242913Y67913D01*
X240470Y67585D02*
X240614Y67729D01*
X238215Y68287D02*
X238917Y67585D01*
X240614Y67729D02*
X242728D01*
X238917Y67585D02*
X240470D01*
X222146Y67913D02*
X225295D01*
X219137Y69520D02*
X220776Y67881D01*
X222113D02*
X222146Y67913D01*
X220776Y67881D02*
X222113D01*
X147249Y62008D02*
X148604D01*
X148933Y61679D01*
X237592Y68139D02*
X237795Y68343D01*
X234842Y67585D02*
X235397Y68139D01*
X237703Y65719D02*
X237795Y65627D01*
X235397Y65719D02*
X237703D01*
X234842Y66273D02*
X235397Y65719D01*
Y68139D02*
X237592D01*
X226853Y66273D02*
X234842D01*
X226611Y67827D02*
X226853Y67585D01*
X234842D01*
X226611Y66031D02*
X226853Y66273D01*
X225382Y66031D02*
X226611D01*
X225295Y65945D02*
X225382Y66031D01*
Y67827D02*
X226611D01*
X225295Y67913D02*
X225382Y67827D01*
X201673Y91732D02*
X206988D01*
X207087Y91831D01*
Y85197D02*
Y91831D01*
X65315Y81575D02*
Y88937D01*
X69528Y93150D01*
Y96063D01*
X166634Y105315D02*
X169488D01*
X170177Y104626D02*
X172933D01*
X169488Y105315D02*
X170177Y104626D01*
X220079Y57284D02*
X221260Y56102D01*
X242913D01*
X210449Y57284D02*
X220079D01*
X220972Y50283D02*
X222059D01*
X220306Y51555D02*
X220830Y52079D01*
X240650Y50525D02*
X240793Y50382D01*
X242728D02*
X242913Y50197D01*
X240793Y50382D02*
X242728D01*
X239016Y50525D02*
X240650D01*
X226853D02*
X236771D01*
X226611Y50283D02*
X226853Y50525D01*
X225382Y50283D02*
X226611D01*
X222059D02*
X222146Y50197D01*
X225295D02*
X225382Y50283D01*
X222146Y50197D02*
X225295D01*
X242728Y51981D02*
X242913Y52165D01*
X240793Y51981D02*
X242728D01*
X240650Y51837D02*
X240793Y51981D01*
X239016Y51837D02*
X240650D01*
X222146Y52165D02*
X225295D01*
X225382Y52079D02*
X226611D01*
X225295Y52165D02*
X225382Y52079D01*
X222059D02*
X222146Y52165D01*
X220830Y52079D02*
X222059D01*
X226853Y51837D02*
X236771D01*
X226611Y52079D02*
X226853Y51837D01*
X209917Y51657D02*
X210586Y50988D01*
X214503Y49548D02*
X216510Y51555D01*
X220650Y50243D02*
X220751Y50141D01*
X211061Y49548D02*
X214503D01*
X210586Y50023D02*
X211061Y49548D01*
X210586Y47761D02*
X211061Y48237D01*
X210586Y46796D02*
Y47761D01*
X216510Y51555D02*
X220306D01*
X217053Y50243D02*
X220650D01*
X210586Y50023D02*
Y50988D01*
X215046Y48237D02*
X217053Y50243D01*
X211061Y48237D02*
X215046D01*
X209917Y46128D02*
X210586Y46796D01*
X220751Y50141D02*
X220972D01*
X220588Y61679D02*
X220830Y61921D01*
X220588Y60368D02*
X220830Y60126D01*
X221567Y61921D02*
X221654Y62008D01*
X220830Y61921D02*
X221567D01*
X220830Y60126D02*
X222059D01*
X222146Y60039D01*
X225295D01*
X221654Y62008D02*
X225295D01*
X233811Y58492D02*
X238535D01*
X234354Y59803D02*
X235565D01*
X236194Y60433D02*
X236614D01*
X235565Y59803D02*
X236194Y60433D01*
X243098Y59855D02*
X245303D01*
X242913Y60039D02*
X243098Y59855D01*
X245303D02*
X247677Y57480D01*
X239733Y60039D02*
X242913D01*
X239339Y60433D02*
X239733Y60039D01*
X236614Y60433D02*
X239339D01*
X242728Y58256D02*
X242913Y58071D01*
X238535Y58492D02*
X238771Y58256D01*
X148604Y50197D02*
X148933Y50525D01*
X147249Y50197D02*
X148604D01*
X247453Y60630D02*
X247677D01*
X238771Y58256D02*
X242728D01*
X232478Y61679D02*
X234354Y59803D01*
X226524Y60126D02*
X226766Y60368D01*
X225382Y60126D02*
X226524D01*
X226766Y60368D02*
X231935D01*
X225295Y60039D02*
X225382Y60126D01*
X226853Y61679D02*
X232478D01*
X231935Y60368D02*
X233811Y58492D01*
X226611Y61921D02*
X226853Y61679D01*
X225382Y61921D02*
X226611D01*
X225295Y62008D02*
X225382Y61921D01*
X147249Y52165D02*
X148604D01*
X148933Y51837D01*
X243012Y54232D02*
X247579D01*
X242913Y54134D02*
X243012Y54232D01*
X247579D02*
X247677Y54331D01*
X247579Y63878D02*
X247677Y63779D01*
X243012Y63878D02*
X247579D01*
X242913Y63976D02*
X243012Y63878D01*
D67*
X163681Y70866D02*
X167323D01*
X167502Y42421D02*
X167535Y42388D01*
X163681Y65945D02*
X163748Y66012D01*
X167278D02*
X167344Y66079D01*
X125591Y31496D02*
X125925Y31161D01*
X125591Y31496D02*
X125689Y31594D01*
X163681Y70866D02*
X163730Y70915D01*
X144685Y72446D02*
Y75492D01*
X146358Y77165D01*
X149508D01*
X151575Y79232D01*
Y85335D01*
X131496Y27697D02*
X131496D01*
X136614D02*
X136614D01*
X146850Y24335D02*
Y24508D01*
X146850D01*
X136614Y27697D02*
X136614Y27697D01*
X100221Y53445D02*
X100319Y53543D01*
D68*
X210449Y64862D02*
X214862D01*
D69*
X108268Y82480D02*
X118302Y72446D01*
X108268Y82480D02*
Y85866D01*
X118302Y72446D02*
X123031D01*
X113189Y82185D02*
Y85335D01*
Y82185D02*
X119587Y75787D01*
X124606D01*
X125000Y75394D01*
Y72446D02*
Y75394D01*
D70*
X30315Y36555D02*
D03*
Y81555D02*
D03*
D71*
X42323Y89547D02*
D03*
Y28563D02*
D03*
D72*
X55315Y36535D02*
D03*
X65315Y71575D02*
D03*
X55315Y76535D02*
D03*
X65315Y51575D02*
D03*
X55315Y66535D02*
D03*
Y56535D02*
D03*
X65315Y61575D02*
D03*
Y41575D02*
D03*
X55315Y46535D02*
D03*
D73*
X11024Y42972D02*
D03*
Y75138D02*
D03*
Y85138D02*
D03*
Y32972D02*
D03*
D74*
X65315Y81575D02*
D03*
D75*
X250433Y49606D02*
D03*
Y52756D02*
D03*
Y65354D02*
D03*
Y68504D02*
D03*
X247677Y63779D02*
D03*
Y54331D02*
D03*
Y60630D02*
D03*
Y57480D02*
D03*
X250433Y62205D02*
D03*
X247677Y70079D02*
D03*
Y48031D02*
D03*
X250433Y55905D02*
D03*
X133858Y66929D02*
D03*
X125984Y62992D02*
D03*
X137795Y51181D02*
D03*
X129921Y51181D02*
D03*
X137795Y62992D02*
D03*
X129921Y55118D02*
D03*
X137795Y55118D02*
D03*
X133858Y59055D02*
D03*
X141732Y66929D02*
D03*
X129921Y59055D02*
D03*
X125984Y59055D02*
D03*
X141732Y51181D02*
D03*
X137795Y59055D02*
D03*
X137795Y66929D02*
D03*
X141732Y55118D02*
D03*
X133858Y62992D02*
D03*
X125984Y55118D02*
D03*
X141732Y62992D02*
D03*
X129921Y62992D02*
D03*
X133858Y51181D02*
D03*
X141732Y59055D02*
D03*
X125984Y51181D02*
D03*
X129921Y66929D02*
D03*
X133858Y55118D02*
D03*
X125984Y66929D02*
D03*
X193110Y57776D02*
D03*
Y55059D02*
D03*
X160335Y58071D02*
D03*
X100221Y61417D02*
D03*
X202425Y64862D02*
D03*
X64370Y91634D02*
D03*
X64468Y25492D02*
D03*
X217577Y64764D02*
D03*
X218307Y46949D02*
D03*
X203150Y50251D02*
D03*
Y47534D02*
D03*
X75984Y96063D02*
D03*
X108268Y92693D02*
D03*
X148031Y45669D02*
D03*
X125394Y34646D02*
D03*
X167323Y70866D02*
D03*
X237795Y68343D02*
D03*
Y65627D02*
D03*
X214862Y64862D02*
D03*
X229921Y79528D02*
D03*
X233858D02*
D03*
X229921Y83071D02*
D03*
X233858D02*
D03*
X229921Y87008D02*
D03*
X233858D02*
D03*
Y90945D02*
D03*
X229921D02*
D03*
X186614Y108661D02*
D03*
Y105512D02*
D03*
Y102362D02*
D03*
Y99213D02*
D03*
X178740D02*
D03*
X182677D02*
D03*
Y102362D02*
D03*
X178740D02*
D03*
Y105512D02*
D03*
X182677D02*
D03*
Y108661D02*
D03*
X178740D02*
D03*
X170965Y38681D02*
D03*
X167535D02*
D03*
Y42390D02*
D03*
X170965D02*
D03*
X156299Y47244D02*
D03*
X167717Y81102D02*
D03*
X167618Y84055D02*
D03*
X164173Y81102D02*
D03*
X164075Y84055D02*
D03*
X160630Y81102D02*
D03*
X160531Y84055D02*
D03*
X157087Y81102D02*
D03*
X156988Y84055D02*
D03*
X112205Y5906D02*
D03*
X118110D02*
D03*
Y10827D02*
D03*
X112205D02*
D03*
X118110Y16732D02*
D03*
X112205D02*
D03*
X152559Y64961D02*
D03*
X110433Y60630D02*
D03*
X100221Y69193D02*
D03*
X118225Y82804D02*
D03*
X167344Y66079D02*
D03*
X237894Y49823D02*
D03*
Y52539D02*
D03*
X236614Y60433D02*
D03*
X238535Y58492D02*
D03*
X142028Y82677D02*
D03*
X146752D02*
D03*
X150984Y74114D02*
D03*
X151083Y71161D02*
D03*
X141732Y34646D02*
D03*
X110433Y69291D02*
D03*
X110335Y53543D02*
D03*
X111024Y44783D02*
D03*
X123425Y82677D02*
D03*
X136614Y34646D02*
D03*
X128150Y82677D02*
D03*
X132972D02*
D03*
X146653Y34646D02*
D03*
X151673D02*
D03*
X156398Y58071D02*
D03*
X125591Y22228D02*
D03*
X131496Y24335D02*
D03*
X146850D02*
D03*
X151969D02*
D03*
X166535Y75590D02*
D03*
X118110Y92693D02*
D03*
X113189Y92716D02*
D03*
X122835Y92693D02*
D03*
X127953D02*
D03*
X132677D02*
D03*
X146653D02*
D03*
X151476Y93520D02*
D03*
X134449Y109957D02*
D03*
X126969Y107457D02*
D03*
X188976Y86697D02*
D03*
X196457Y89157D02*
D03*
X213484Y87091D02*
D03*
X195965Y32858D02*
D03*
X203642Y32779D02*
D03*
X209449Y9610D02*
D03*
X218406Y9827D02*
D03*
X141732Y24335D02*
D03*
X136614D02*
D03*
X95555Y14567D02*
D03*
X100221Y44587D02*
D03*
Y53445D02*
D03*
X166732Y95653D02*
D03*
X141732Y92716D02*
D03*
X151409Y97268D02*
D03*
X148047Y97244D02*
D03*
X207087Y78448D02*
D03*
X167607Y47173D02*
D03*
D76*
X250000Y42795D02*
D03*
Y75315D02*
D03*
X267323Y41378D02*
D03*
Y76732D02*
D03*
D77*
X245118Y44882D02*
D03*
Y73228D02*
D03*
D78*
X183169Y28248D02*
D03*
X183563Y13091D02*
D03*
X183465Y18209D02*
D03*
X183268Y23228D02*
D03*
X133661Y37982D02*
D03*
X130578Y38775D02*
D03*
X129626Y42126D02*
D03*
X136614Y38287D02*
D03*
M02*
