G04*
G04 #@! TF.GenerationSoftware,Altium Limited,Altium Designer,25.7.1 (20)*
G04*
G04 Layer_Physical_Order=4*
G04 Layer_Color=16711680*
%FSLAX25Y25*%
%MOIN*%
G70*
G04*
G04 #@! TF.SameCoordinates,A9B1DE4C-7A59-4FA5-9EB3-CEC3AB9D3762*
G04*
G04*
G04 #@! TF.FilePolarity,Positive*
G04*
G01*
G75*
%ADD12C,0.00787*%
%ADD23C,0.06693*%
%ADD25R,0.02362X0.02520*%
%ADD26R,0.02953X0.02362*%
%ADD66C,0.00811*%
%ADD67C,0.01000*%
%ADD68C,0.00811*%
%ADD70C,0.12795*%
%ADD71C,0.09626*%
%ADD72C,0.05504*%
%ADD73C,0.06024*%
%ADD74R,0.05504X0.05504*%
%ADD75C,0.02362*%
%ADD76O,0.05512X0.03150*%
%ADD77C,0.02559*%
%ADD78C,0.01968*%
G36*
X59842Y98942D02*
X56515D01*
X56467Y98968D01*
X56438Y98959D01*
X56410Y98971D01*
X56389Y98963D01*
X55898Y98942D01*
X55398Y98899D01*
X55055Y99241D01*
Y101378D01*
X54977Y101768D01*
X54756Y102099D01*
X53378Y103477D01*
X53048Y103698D01*
X52658Y103776D01*
X22441D01*
X22051Y103698D01*
X21720Y103477D01*
X16700Y98457D01*
X16479Y98126D01*
X16402Y97736D01*
Y86544D01*
X16015Y86157D01*
X15881D01*
X15841Y86177D01*
X15663Y86191D01*
X15504Y86225D01*
X15323Y86286D01*
X15122Y86378D01*
X14901Y86502D01*
X14663Y86659D01*
X14414Y86847D01*
X13853Y87337D01*
X13554Y87631D01*
X13457Y87671D01*
X13180Y87948D01*
X12379Y88410D01*
X11486Y88650D01*
X10561D01*
X9668Y88410D01*
X8867Y87948D01*
X8213Y87294D01*
X7751Y86493D01*
X7512Y85600D01*
Y84676D01*
X7751Y83782D01*
X8213Y82981D01*
X8867Y82328D01*
X9668Y81865D01*
X10561Y81626D01*
X11486D01*
X12379Y81865D01*
X13180Y82328D01*
X13457Y82604D01*
X13554Y82644D01*
X13853Y82938D01*
X14414Y83429D01*
X14663Y83616D01*
X14901Y83773D01*
X15122Y83898D01*
X15323Y83989D01*
X15504Y84051D01*
X15663Y84085D01*
X15841Y84098D01*
X15881Y84118D01*
X16437D01*
X16827Y84196D01*
X17158Y84417D01*
X18142Y85401D01*
X18363Y85732D01*
X18441Y86122D01*
Y97314D01*
X22863Y101736D01*
X52235D01*
X53016Y100956D01*
Y98819D01*
X53093Y98429D01*
X53315Y98098D01*
X54692Y96720D01*
X55023Y96499D01*
X55301Y96444D01*
X55399Y96400D01*
X55572Y96395D01*
X55704Y96384D01*
X55807Y96367D01*
X55878Y96348D01*
X55898Y96340D01*
Y95580D01*
X59842D01*
Y89209D01*
X52785D01*
X51610Y90383D01*
Y96161D01*
X51533Y96552D01*
X51311Y96882D01*
X49441Y98752D01*
X49111Y98974D01*
X48720Y99051D01*
X25197D01*
X24807Y98974D01*
X24476Y98752D01*
X20539Y94815D01*
X20318Y94485D01*
X20240Y94095D01*
Y78375D01*
X18023Y76157D01*
X15881D01*
X15841Y76178D01*
X15663Y76191D01*
X15504Y76225D01*
X15323Y76286D01*
X15122Y76378D01*
X14901Y76502D01*
X14663Y76659D01*
X14414Y76846D01*
X13853Y77337D01*
X13554Y77631D01*
X13457Y77671D01*
X13180Y77948D01*
X12379Y78410D01*
X11486Y78650D01*
X10561D01*
X9668Y78410D01*
X8867Y77948D01*
X8213Y77294D01*
X7751Y76493D01*
X7512Y75600D01*
Y74676D01*
X7751Y73782D01*
X8213Y72982D01*
X8867Y72328D01*
X9668Y71865D01*
X10561Y71626D01*
X11486D01*
X12379Y71865D01*
X13180Y72328D01*
X13457Y72604D01*
X13554Y72644D01*
X13853Y72938D01*
X14414Y73429D01*
X14663Y73616D01*
X14901Y73773D01*
X15122Y73898D01*
X15323Y73989D01*
X15504Y74051D01*
X15663Y74085D01*
X15841Y74098D01*
X15881Y74118D01*
X18445D01*
X18835Y74196D01*
X19166Y74417D01*
X21981Y77232D01*
X22202Y77563D01*
X22279Y77953D01*
Y93672D01*
X25619Y97012D01*
X48298D01*
X49571Y95739D01*
Y89961D01*
X49649Y89570D01*
X49870Y89240D01*
X51641Y87468D01*
X51972Y87247D01*
X52362Y87169D01*
X59842D01*
Y82677D01*
X47638D01*
Y41732D01*
X59842D01*
Y29760D01*
X51476D01*
X51086Y29682D01*
X50755Y29461D01*
X49279Y27985D01*
X49058Y27654D01*
X48980Y27264D01*
Y24143D01*
X47511Y22673D01*
X24438D01*
X22279Y24832D01*
Y40157D01*
X22202Y40548D01*
X21981Y40878D01*
X19166Y43693D01*
X18835Y43914D01*
X18445Y43992D01*
X15881D01*
X15841Y44012D01*
X15663Y44025D01*
X15504Y44059D01*
X15323Y44121D01*
X15122Y44213D01*
X14901Y44337D01*
X14663Y44494D01*
X14414Y44681D01*
X13853Y45172D01*
X13554Y45466D01*
X13457Y45506D01*
X13180Y45783D01*
X12379Y46245D01*
X11486Y46484D01*
X10561D01*
X9668Y46245D01*
X8867Y45783D01*
X8213Y45129D01*
X7751Y44328D01*
X7512Y43435D01*
Y42510D01*
X7751Y41617D01*
X8213Y40816D01*
X8867Y40162D01*
X9668Y39700D01*
X10561Y39461D01*
X11486D01*
X12379Y39700D01*
X13180Y40162D01*
X13457Y40439D01*
X13554Y40479D01*
X13853Y40773D01*
X14414Y41264D01*
X14663Y41451D01*
X14901Y41608D01*
X15122Y41732D01*
X15323Y41824D01*
X15504Y41886D01*
X15663Y41919D01*
X15841Y41933D01*
X15881Y41953D01*
X18023D01*
X20240Y39735D01*
Y24409D01*
X20318Y24019D01*
X20539Y23688D01*
X23295Y20933D01*
X23626Y20712D01*
X24016Y20634D01*
X47933D01*
X48323Y20712D01*
X48654Y20933D01*
X50721Y22999D01*
X50942Y23330D01*
X51020Y23720D01*
Y26841D01*
X51899Y27721D01*
X59842D01*
Y21260D01*
X59842D01*
Y17898D01*
X59842D01*
Y0D01*
X11811D01*
X11037Y-0D01*
X9502Y202D01*
X8006Y603D01*
X6576Y1195D01*
X5235Y1969D01*
X4007Y2912D01*
X2912Y4007D01*
X1969Y5235D01*
X1195Y6576D01*
X603Y8006D01*
X202Y9502D01*
X-0Y11037D01*
X0Y11811D01*
Y106299D01*
X-0Y107073D01*
X202Y108608D01*
X603Y110104D01*
X1195Y111534D01*
X1969Y112875D01*
X2912Y114103D01*
X4007Y115198D01*
X5235Y116141D01*
X6576Y116915D01*
X8006Y117507D01*
X9502Y117908D01*
X11037Y118110D01*
X11811Y118110D01*
X11811Y118110D01*
X59842D01*
Y98942D01*
D02*
G37*
G36*
X56410Y96445D02*
X56400Y96539D01*
X56370Y96623D01*
X56320Y96698D01*
X56250Y96762D01*
X56161Y96817D01*
X56051Y96861D01*
X55922Y96896D01*
X55772Y96921D01*
X55603Y96936D01*
X55413Y96941D01*
Y97941D01*
X55603Y97946D01*
X55772Y97961D01*
X55922Y97985D01*
X56051Y98019D01*
X56161Y98063D01*
X56250Y98117D01*
X56320Y98181D01*
X56370Y98254D01*
X56400Y98337D01*
X56410Y98430D01*
Y96445D01*
D02*
G37*
G36*
X63864Y98166D02*
X63894Y98081D01*
X63945Y98006D01*
X64016Y97941D01*
X64107Y97886D01*
X64218Y97841D01*
X64350Y97806D01*
X64502Y97781D01*
X64674Y97766D01*
X64866Y97761D01*
Y96761D01*
X64674Y96756D01*
X64502Y96741D01*
X64350Y96716D01*
X64218Y96681D01*
X64107Y96636D01*
X64016Y96581D01*
X63945Y96516D01*
X63894Y96441D01*
X63864Y96356D01*
X63854Y96261D01*
Y98261D01*
X63864Y98166D01*
D02*
G37*
G36*
X68370Y95641D02*
Y91339D01*
X68448Y90948D01*
X68669Y90618D01*
X69578Y89709D01*
X69515Y89411D01*
X69389Y89209D01*
X60384D01*
Y95097D01*
X60425Y95580D01*
X60884Y95580D01*
X64378D01*
Y96162D01*
X64390Y96166D01*
X64464Y96186D01*
X64569Y96204D01*
X64704Y96215D01*
X64880Y96220D01*
X64928Y96241D01*
X67770D01*
X68370Y95641D01*
D02*
G37*
G36*
X118728Y84463D02*
X118738Y84349D01*
X118754Y84241D01*
X118777Y84138D01*
X118806Y84042D01*
X118842Y83951D01*
X118885Y83866D01*
X118934Y83788D01*
X118989Y83715D01*
X119052Y83648D01*
X117398D01*
X117460Y83715D01*
X117516Y83788D01*
X117565Y83866D01*
X117607Y83951D01*
X117643Y84042D01*
X117672Y84138D01*
X117695Y84241D01*
X117712Y84349D01*
X117721Y84463D01*
X117725Y84583D01*
X118725D01*
X118728Y84463D01*
D02*
G37*
G36*
X13485Y86940D02*
X14073Y86426D01*
X14351Y86217D01*
X14619Y86040D01*
X14877Y85895D01*
X15123Y85782D01*
X15360Y85702D01*
X15586Y85654D01*
X15801Y85638D01*
Y84638D01*
X15586Y84622D01*
X15360Y84574D01*
X15123Y84493D01*
X14877Y84381D01*
X14619Y84236D01*
X14351Y84059D01*
X14073Y83850D01*
X13485Y83335D01*
X13174Y83030D01*
Y87246D01*
X13485Y86940D01*
D02*
G37*
G36*
X262152Y117908D02*
X263647Y117507D01*
X265078Y116915D01*
X266418Y116141D01*
X267647Y115198D01*
X268742Y114103D01*
X269684Y112875D01*
X270458Y111534D01*
X271051Y110104D01*
X271451Y108608D01*
X271654Y107073D01*
Y106299D01*
Y86957D01*
X271398Y86748D01*
X246555D01*
X246165Y86670D01*
X245834Y86449D01*
X245613Y86119D01*
X245535Y85728D01*
Y80844D01*
X243898D01*
X243898Y80844D01*
X243544Y80774D01*
X243245Y80574D01*
X243245Y80574D01*
X234952Y72281D01*
X217323D01*
X217323Y72281D01*
X216969Y72211D01*
X216670Y72011D01*
X216670Y72011D01*
X214209Y69551D01*
X214009Y69251D01*
X213939Y68898D01*
X213939Y68898D01*
Y66751D01*
X213916Y66701D01*
X213913Y66611D01*
X213905Y66546D01*
X213893Y66485D01*
X213876Y66427D01*
X213854Y66371D01*
X213827Y66315D01*
X213795Y66260D01*
X213756Y66205D01*
X213710Y66149D01*
X213644Y66079D01*
X213607Y65984D01*
X213437Y65815D01*
X213181Y65197D01*
Y64528D01*
X213437Y63910D01*
X213910Y63437D01*
X214528Y63181D01*
X215197D01*
X215814Y63437D01*
X216287Y63910D01*
X216543Y64528D01*
Y65197D01*
X216287Y65815D01*
X216117Y65984D01*
X216081Y66079D01*
X216014Y66149D01*
X215968Y66205D01*
X215930Y66260D01*
X215897Y66315D01*
X215870Y66371D01*
X215849Y66427D01*
X215832Y66485D01*
X215820Y66546D01*
X215812Y66611D01*
X215809Y66701D01*
X215785Y66751D01*
Y68515D01*
X217705Y70435D01*
X235335D01*
X235335Y70435D01*
X235688Y70505D01*
X235987Y70705D01*
X244280Y78998D01*
X245535D01*
Y74924D01*
X245443Y74862D01*
X244793D01*
X244193Y74613D01*
X243733Y74154D01*
X243484Y73553D01*
Y72903D01*
X243733Y72303D01*
X244193Y71843D01*
X244793Y71595D01*
X245443D01*
X246044Y71843D01*
X246419Y72218D01*
X247310Y71326D01*
X247641Y71105D01*
X248031Y71028D01*
X250759D01*
X251267Y70519D01*
X250984Y70095D01*
X250767Y70185D01*
X250099D01*
X249481Y69929D01*
X249008Y69456D01*
X248752Y68838D01*
Y68508D01*
X245159D01*
X244806Y68438D01*
X244507Y68238D01*
X240878Y64609D01*
X239735D01*
X239401Y65109D01*
X239476Y65292D01*
Y65961D01*
X239220Y66579D01*
X238814Y66985D01*
X239220Y67391D01*
X239476Y68009D01*
Y68678D01*
X239220Y69295D01*
X238748Y69768D01*
X238130Y70024D01*
X237461D01*
X236843Y69768D01*
X236370Y69295D01*
X236114Y68678D01*
Y68564D01*
X233192D01*
X232838Y68494D01*
X232539Y68293D01*
X229138Y64893D01*
X228938Y64593D01*
X228868Y64240D01*
Y49949D01*
X228938Y49596D01*
X229138Y49296D01*
X233154Y45280D01*
X233454Y45080D01*
X233807Y45009D01*
X240815D01*
X241168Y45080D01*
X241468Y45280D01*
X245790Y49602D01*
X248752D01*
Y49272D01*
X249008Y48654D01*
X249481Y48181D01*
X249975Y47976D01*
X249876Y47476D01*
X248268D01*
X247878Y47399D01*
X247878Y47399D01*
X247701Y47326D01*
X247535Y47292D01*
X247204Y47071D01*
X246222Y46089D01*
X246044Y46267D01*
X245443Y46516D01*
X244793D01*
X244193Y46267D01*
X243733Y45807D01*
X243484Y45207D01*
Y44557D01*
X243733Y43956D01*
X244193Y43497D01*
X244793Y43248D01*
X245443D01*
X245831Y42989D01*
Y31201D01*
X245908Y30811D01*
X246129Y30480D01*
X246460Y30259D01*
X246850Y30181D01*
X271654D01*
Y11811D01*
Y11037D01*
X271451Y9502D01*
X271051Y8006D01*
X270458Y6576D01*
X269684Y5235D01*
X268742Y4007D01*
X267647Y2912D01*
X266418Y1969D01*
X265078Y1195D01*
X263647Y603D01*
X262152Y202D01*
X260617Y0D01*
X60384D01*
Y17898D01*
X63795D01*
Y18559D01*
X99894D01*
X100284Y18637D01*
X100615Y18858D01*
X106525Y24768D01*
X119882D01*
X120272Y24845D01*
X120603Y25066D01*
X126115Y30578D01*
X126336Y30909D01*
X126413Y31299D01*
Y32804D01*
X126435Y32852D01*
X126437Y32956D01*
X126444Y33038D01*
X126455Y33110D01*
X126470Y33174D01*
X126487Y33229D01*
X126506Y33277D01*
X126526Y33319D01*
X126549Y33355D01*
X126573Y33386D01*
X126618Y33434D01*
X126651Y33526D01*
X126819Y33693D01*
X127075Y34311D01*
Y34980D01*
X126819Y35598D01*
X126346Y36071D01*
X125728Y36327D01*
X125059D01*
X124441Y36071D01*
X123969Y35598D01*
X123960Y35579D01*
X123460Y35678D01*
Y42491D01*
X125619Y44650D01*
X146190D01*
X146238Y44628D01*
X146342Y44625D01*
X146423Y44618D01*
X146496Y44608D01*
X146560Y44593D01*
X146615Y44576D01*
X146663Y44557D01*
X146704Y44537D01*
X146740Y44514D01*
X146772Y44490D01*
X146820Y44445D01*
X146912Y44412D01*
X147079Y44244D01*
X147697Y43988D01*
X148366D01*
X148984Y44244D01*
X149457Y44717D01*
X149713Y45335D01*
Y46004D01*
X149457Y46622D01*
X148984Y47095D01*
X148366Y47350D01*
X147697D01*
X147079Y47095D01*
X146912Y46927D01*
X146820Y46893D01*
X146772Y46849D01*
X146740Y46824D01*
X146704Y46802D01*
X146663Y46781D01*
X146615Y46762D01*
X146560Y46745D01*
X146496Y46731D01*
X146423Y46720D01*
X146342Y46713D01*
X146238Y46710D01*
X146190Y46689D01*
X125197D01*
X124807Y46611D01*
X124476Y46390D01*
X121720Y43634D01*
X121499Y43304D01*
X121421Y42913D01*
Y32509D01*
X120960Y32047D01*
X101303D01*
X100913Y31969D01*
X100582Y31749D01*
X98593Y29760D01*
X60384D01*
Y41732D01*
X60225Y42115D01*
X59842Y42274D01*
X48179D01*
Y82136D01*
X59842D01*
X60225Y82294D01*
X60384Y82677D01*
Y87169D01*
X110995D01*
X113154Y85011D01*
Y75591D01*
X113231Y75200D01*
X113452Y74870D01*
X116602Y71720D01*
X116933Y71499D01*
X117323Y71421D01*
X145641D01*
X147406Y69656D01*
Y66929D01*
X147483Y66539D01*
X147704Y66208D01*
X149673Y64240D01*
X150004Y64019D01*
X150394Y63941D01*
X150718D01*
X150766Y63920D01*
X150870Y63917D01*
X150951Y63910D01*
X151023Y63899D01*
X151087Y63885D01*
X151143Y63868D01*
X151191Y63849D01*
X151232Y63828D01*
X151268Y63806D01*
X151300Y63781D01*
X151348Y63737D01*
X151439Y63703D01*
X151607Y63535D01*
X152225Y63279D01*
X152893D01*
X153511Y63535D01*
X153984Y64008D01*
X154240Y64626D01*
Y65295D01*
X153984Y65913D01*
X153511Y66386D01*
X152893Y66642D01*
X152225D01*
X151607Y66386D01*
X151439Y66218D01*
X151348Y66184D01*
X151300Y66140D01*
X151268Y66116D01*
X151232Y66093D01*
X151191Y66073D01*
X151143Y66053D01*
X151087Y66037D01*
X151023Y66022D01*
X150951Y66011D01*
X150870Y66005D01*
X150794Y66002D01*
X149445Y67352D01*
Y69715D01*
X149945Y69922D01*
X150130Y69736D01*
X150748Y69480D01*
X151417D01*
X152035Y69736D01*
X152508Y70209D01*
X152764Y70827D01*
Y71496D01*
X152508Y72114D01*
X152261Y72360D01*
X152036Y72588D01*
X152261Y73014D01*
X152409Y73162D01*
X152665Y73780D01*
Y74449D01*
X152409Y75066D01*
X151936Y75539D01*
X151319Y75795D01*
X150650D01*
X150032Y75539D01*
X149559Y75066D01*
X149303Y74449D01*
Y73780D01*
X149559Y73162D01*
X149806Y72915D01*
X150031Y72687D01*
X149806Y72262D01*
X149657Y72114D01*
X149402Y71496D01*
Y71251D01*
X148902Y71044D01*
X146784Y73162D01*
X146453Y73383D01*
X146063Y73461D01*
X117745D01*
X115193Y76013D01*
Y85433D01*
X115115Y85823D01*
X114894Y86154D01*
X112214Y88835D01*
X112277Y89133D01*
X112402Y89335D01*
X113160D01*
X117205Y85290D01*
Y84646D01*
X117184Y84598D01*
X117181Y84493D01*
X117174Y84412D01*
X117163Y84340D01*
X117149Y84276D01*
X117132Y84221D01*
X117113Y84173D01*
X117092Y84131D01*
X117070Y84095D01*
X117045Y84063D01*
X117001Y84016D01*
X116967Y83924D01*
X116799Y83757D01*
X116544Y83139D01*
Y82470D01*
X116799Y81852D01*
X117272Y81379D01*
X117890Y81123D01*
X118559D01*
X119177Y81379D01*
X119650Y81852D01*
X119906Y82470D01*
Y83139D01*
X119650Y83757D01*
X119482Y83924D01*
X119448Y84016D01*
X119404Y84064D01*
X119380Y84095D01*
X119357Y84131D01*
X119337Y84173D01*
X119318Y84221D01*
X119301Y84276D01*
X119286Y84340D01*
X119275Y84412D01*
X119269Y84493D01*
X119266Y84598D01*
X119244Y84646D01*
Y85712D01*
X119167Y86102D01*
X118946Y86433D01*
X114304Y91075D01*
X113973Y91296D01*
X113583Y91374D01*
X70796D01*
X70409Y91761D01*
Y96063D01*
X70332Y96453D01*
X70111Y96784D01*
X68913Y97982D01*
X68582Y98203D01*
X68192Y98280D01*
X64928D01*
X64880Y98302D01*
X64704Y98306D01*
X64569Y98318D01*
X64464Y98336D01*
X64390Y98355D01*
X64378Y98360D01*
Y98942D01*
X60884D01*
X60425Y98942D01*
X60384Y99425D01*
Y118110D01*
X260617D01*
X262152Y117908D01*
D02*
G37*
G36*
X13485Y76941D02*
X14073Y76426D01*
X14351Y76217D01*
X14619Y76040D01*
X14877Y75895D01*
X15123Y75783D01*
X15360Y75702D01*
X15586Y75654D01*
X15801Y75638D01*
Y74638D01*
X15586Y74622D01*
X15360Y74573D01*
X15123Y74493D01*
X14877Y74380D01*
X14619Y74236D01*
X14351Y74059D01*
X14073Y73850D01*
X13485Y73335D01*
X13174Y73030D01*
Y77246D01*
X13485Y76941D01*
D02*
G37*
G36*
X252718Y75995D02*
Y71217D01*
X252219Y71010D01*
X251181Y72047D01*
X248031D01*
X246752Y73327D01*
Y73553D01*
X246555Y74029D01*
Y78998D01*
X249716D01*
X252718Y75995D01*
D02*
G37*
G36*
X249762Y67532D02*
X249753Y67534D01*
X249739Y67530D01*
X249721Y67521D01*
X249699Y67506D01*
X249672Y67485D01*
X249604Y67427D01*
X249469Y67298D01*
X248896Y67872D01*
X249276Y68264D01*
X249762Y67532D01*
D02*
G37*
G36*
X215272Y66569D02*
X215285Y66461D01*
X215306Y66357D01*
X215335Y66255D01*
X215373Y66156D01*
X215419Y66060D01*
X215474Y65967D01*
X215537Y65877D01*
X215609Y65790D01*
X215689Y65706D01*
X214035D01*
X214116Y65790D01*
X214187Y65877D01*
X214250Y65967D01*
X214305Y66060D01*
X214351Y66156D01*
X214389Y66255D01*
X214419Y66357D01*
X214440Y66461D01*
X214453Y66569D01*
X214457Y66680D01*
X215268D01*
X215272Y66569D01*
D02*
G37*
G36*
X249519Y66511D02*
X249699Y66352D01*
X249721Y66337D01*
X249739Y66328D01*
X249753Y66325D01*
X249762Y66326D01*
X249276Y65594D01*
X249273Y65600D01*
X249262Y65613D01*
X249182Y65697D01*
X248896Y65987D01*
X249469Y66560D01*
X249519Y66511D01*
D02*
G37*
G36*
X151716Y64134D02*
X151649Y64196D01*
X151576Y64252D01*
X151497Y64301D01*
X151412Y64343D01*
X151322Y64379D01*
X151225Y64408D01*
X151123Y64431D01*
X151014Y64448D01*
X150900Y64457D01*
X150780Y64461D01*
Y65461D01*
X150900Y65464D01*
X151014Y65474D01*
X151123Y65490D01*
X151225Y65513D01*
X151322Y65542D01*
X151412Y65578D01*
X151497Y65621D01*
X151576Y65670D01*
X151649Y65725D01*
X151716Y65787D01*
Y64134D01*
D02*
G37*
G36*
X252005Y63204D02*
X251930Y63122D01*
X251863Y63037D01*
X251803Y62948D01*
X251752Y62855D01*
X251709Y62758D01*
X251674Y62658D01*
X251647Y62553D01*
X251628Y62445D01*
X251617Y62333D01*
X251614Y62217D01*
X250445Y63386D01*
X250561Y63389D01*
X250673Y63399D01*
X250781Y63419D01*
X250886Y63446D01*
X250987Y63481D01*
X251083Y63524D01*
X251176Y63575D01*
X251265Y63634D01*
X251350Y63702D01*
X251432Y63777D01*
X252005Y63204D01*
D02*
G37*
G36*
X246834Y59803D02*
X246750Y59883D01*
X246663Y59955D01*
X246573Y60018D01*
X246480Y60073D01*
X246384Y60119D01*
X246285Y60157D01*
X246183Y60186D01*
X246078Y60207D01*
X245970Y60220D01*
X245859Y60224D01*
Y61036D01*
X245970Y61040D01*
X246078Y61052D01*
X246183Y61073D01*
X246285Y61103D01*
X246384Y61141D01*
X246480Y61187D01*
X246573Y61242D01*
X246663Y61305D01*
X246750Y61377D01*
X246834Y61457D01*
Y59803D01*
D02*
G37*
G36*
X239463Y59239D02*
X239550Y59167D01*
X239640Y59104D01*
X239733Y59049D01*
X239828Y59003D01*
X239927Y58965D01*
X240029Y58935D01*
X240134Y58915D01*
X240242Y58902D01*
X240353Y58898D01*
Y58086D01*
X240242Y58082D01*
X240134Y58069D01*
X240029Y58048D01*
X239927Y58019D01*
X239828Y57981D01*
X239733Y57935D01*
X239640Y57880D01*
X239550Y57817D01*
X239463Y57745D01*
X239378Y57665D01*
Y59319D01*
X239463Y59239D01*
D02*
G37*
G36*
X245839Y59684D02*
X245928Y59680D01*
X245993Y59672D01*
X246054Y59660D01*
X246112Y59643D01*
X246169Y59622D01*
X246224Y59595D01*
X246280Y59562D01*
X246335Y59524D01*
X246391Y59478D01*
X246461Y59411D01*
X246553Y59376D01*
X246562Y59355D01*
X246671Y59055D01*
X246554Y58734D01*
X246252Y58433D01*
X245996Y57815D01*
Y57146D01*
X246252Y56528D01*
X246554Y56226D01*
X246671Y55905D01*
X246554Y55585D01*
X246252Y55283D01*
X245996Y54665D01*
Y53996D01*
X246252Y53378D01*
X246370Y53260D01*
X246163Y52760D01*
X244864D01*
X244511Y52690D01*
X244211Y52490D01*
X239889Y48167D01*
X239323D01*
X239116Y48667D01*
X239319Y48871D01*
X239575Y49488D01*
Y50157D01*
X239319Y50775D01*
X238913Y51181D01*
X239319Y51587D01*
X239575Y52205D01*
Y52874D01*
X239319Y53492D01*
X238846Y53965D01*
X238228Y54220D01*
X237559D01*
X236941Y53965D01*
X236469Y53492D01*
X236395Y53314D01*
X235810Y53156D01*
X235596Y53316D01*
Y58494D01*
X236097Y58828D01*
X236280Y58752D01*
X236854D01*
Y58158D01*
X237110Y57540D01*
X237583Y57067D01*
X238201Y56811D01*
X238869D01*
X239487Y57067D01*
X239657Y57237D01*
X239752Y57273D01*
X239822Y57340D01*
X239877Y57386D01*
X239933Y57424D01*
X239988Y57457D01*
X240043Y57484D01*
X240100Y57505D01*
X240158Y57522D01*
X240219Y57534D01*
X240284Y57542D01*
X240373Y57546D01*
X240424Y57569D01*
X242646D01*
X242999Y57639D01*
X243299Y57839D01*
X245166Y59706D01*
X245789D01*
X245839Y59684D01*
D02*
G37*
G36*
X249762Y51784D02*
X249753Y51786D01*
X249739Y51782D01*
X249721Y51773D01*
X249699Y51758D01*
X249672Y51737D01*
X249604Y51679D01*
X249469Y51550D01*
X248896Y52124D01*
X249276Y52516D01*
X249762Y51784D01*
D02*
G37*
G36*
X249519Y50763D02*
X249699Y50604D01*
X249721Y50589D01*
X249739Y50580D01*
X249753Y50577D01*
X249762Y50578D01*
X249276Y49846D01*
X249273Y49852D01*
X249262Y49865D01*
X249182Y49949D01*
X248896Y50239D01*
X249469Y50812D01*
X249519Y50763D01*
D02*
G37*
G36*
X147188Y44842D02*
X147121Y44905D01*
X147048Y44960D01*
X146969Y45009D01*
X146885Y45052D01*
X146794Y45088D01*
X146698Y45117D01*
X146595Y45140D01*
X146487Y45156D01*
X146373Y45166D01*
X146253Y45169D01*
Y46169D01*
X146373Y46173D01*
X146487Y46182D01*
X146595Y46199D01*
X146698Y46222D01*
X146794Y46251D01*
X146885Y46287D01*
X146969Y46329D01*
X147048Y46378D01*
X147121Y46434D01*
X147188Y46496D01*
Y44842D01*
D02*
G37*
G36*
X13485Y44775D02*
X14073Y44260D01*
X14351Y44051D01*
X14619Y43874D01*
X14877Y43730D01*
X15123Y43617D01*
X15360Y43537D01*
X15586Y43488D01*
X15801Y43472D01*
Y42472D01*
X15586Y42456D01*
X15360Y42408D01*
X15123Y42328D01*
X14877Y42215D01*
X14619Y42070D01*
X14351Y41894D01*
X14073Y41684D01*
X13485Y41170D01*
X13174Y40864D01*
Y45081D01*
X13485Y44775D01*
D02*
G37*
G36*
X126158Y33735D02*
X126103Y33662D01*
X126054Y33584D01*
X126011Y33499D01*
X125975Y33408D01*
X125946Y33312D01*
X125923Y33209D01*
X125907Y33101D01*
X125897Y32987D01*
X125894Y32867D01*
X124894D01*
X124890Y32987D01*
X124881Y33101D01*
X124864Y33209D01*
X124841Y33312D01*
X124812Y33408D01*
X124776Y33499D01*
X124734Y33584D01*
X124685Y33662D01*
X124629Y33735D01*
X124567Y33802D01*
X126221D01*
X126158Y33735D01*
D02*
G37*
G36*
X271752Y85375D02*
X271752Y74803D01*
X271752Y31201D01*
X246850D01*
Y45079D01*
X246752Y45177D01*
Y45177D01*
X247925Y46350D01*
X248011D01*
X248268Y46457D01*
X251378D01*
X252559Y47638D01*
Y61841D01*
X252592Y62009D01*
X252633Y62191D01*
X252635Y62271D01*
X252639Y62307D01*
X252644Y62337D01*
X252650Y62362D01*
X252658Y62382D01*
X252666Y62400D01*
X252676Y62419D01*
X252688Y62437D01*
X252705Y62458D01*
X252753Y62511D01*
X252847Y62664D01*
X252947Y62813D01*
X252951Y62833D01*
X252961Y62849D01*
X252990Y63027D01*
X253025Y63204D01*
X253021Y63223D01*
X253024Y63242D01*
X252982Y63417D01*
X252977Y63443D01*
X254295Y64761D01*
X254495Y65060D01*
X254565Y65413D01*
Y76378D01*
X254495Y76731D01*
X254295Y77031D01*
X254294Y77031D01*
X250751Y80574D01*
X250452Y80774D01*
X250098Y80844D01*
X250098Y80844D01*
X246555D01*
Y85728D01*
X271398D01*
X271752Y85375D01*
D02*
G37*
G36*
X123969Y33693D02*
X124136Y33526D01*
X124170Y33434D01*
X124214Y33386D01*
X124239Y33355D01*
X124261Y33319D01*
X124282Y33277D01*
X124301Y33229D01*
X124318Y33174D01*
X124332Y33110D01*
X124343Y33038D01*
X124350Y32956D01*
X124353Y32852D01*
X124374Y32804D01*
Y31721D01*
X119460Y26807D01*
X106102D01*
X105712Y26729D01*
X105381Y26508D01*
X99471Y20598D01*
X63795D01*
Y21260D01*
X60384D01*
Y27721D01*
X99016D01*
X99406Y27798D01*
X99737Y28019D01*
X101725Y30008D01*
X121382D01*
X121772Y30086D01*
X122103Y30307D01*
X123162Y31366D01*
X123383Y31696D01*
X123460Y32087D01*
Y33613D01*
X123960Y33713D01*
X123969Y33693D01*
D02*
G37*
%LPC*%
G36*
X30980Y88307D02*
X29650D01*
X28346Y88048D01*
X27117Y87539D01*
X26011Y86800D01*
X25070Y85859D01*
X24331Y84753D01*
X23822Y83525D01*
X23563Y82220D01*
Y80890D01*
X23822Y79586D01*
X24331Y78357D01*
X25070Y77251D01*
X26011Y76310D01*
X27117Y75572D01*
X28346Y75063D01*
X29650Y74803D01*
X30980D01*
X32284Y75063D01*
X33513Y75572D01*
X34619Y76310D01*
X35560Y77251D01*
X36298Y78357D01*
X36808Y79586D01*
X37067Y80890D01*
Y82220D01*
X36808Y83525D01*
X36298Y84753D01*
X35560Y85859D01*
X34619Y86800D01*
X33513Y87539D01*
X32284Y88048D01*
X30980Y88307D01*
D02*
G37*
G36*
Y43307D02*
X29650D01*
X28346Y43048D01*
X27117Y42539D01*
X26011Y41800D01*
X25070Y40859D01*
X24331Y39753D01*
X23822Y38525D01*
X23563Y37220D01*
Y35890D01*
X23822Y34586D01*
X24331Y33357D01*
X25070Y32251D01*
X26011Y31310D01*
X27117Y30572D01*
X28346Y30063D01*
X29650Y29803D01*
X30980D01*
X32284Y30063D01*
X33513Y30572D01*
X34619Y31310D01*
X35560Y32251D01*
X36298Y33357D01*
X36808Y34586D01*
X37067Y35890D01*
Y37220D01*
X36808Y38525D01*
X36298Y39753D01*
X35560Y40859D01*
X34619Y41800D01*
X33513Y42539D01*
X32284Y43048D01*
X30980Y43307D01*
D02*
G37*
G36*
X11486Y36484D02*
X10561D01*
X9668Y36245D01*
X8867Y35783D01*
X8213Y35129D01*
X7751Y34328D01*
X7512Y33435D01*
Y32510D01*
X7751Y31617D01*
X8213Y30816D01*
X8867Y30162D01*
X9668Y29700D01*
X10561Y29461D01*
X11486D01*
X12379Y29700D01*
X13180Y30162D01*
X13457Y30439D01*
X13554Y30479D01*
X13853Y30773D01*
X14414Y31264D01*
X14663Y31451D01*
X14901Y31608D01*
X15122Y31732D01*
X15323Y31824D01*
X15504Y31885D01*
X15656Y31918D01*
X16106Y31467D01*
Y22146D01*
X16184Y21756D01*
X16405Y21425D01*
X20933Y16897D01*
X21263Y16676D01*
X21654Y16599D01*
X50295D01*
X50685Y16676D01*
X51016Y16897D01*
X52678Y18559D01*
X54765D01*
X54813Y18538D01*
X54986Y18533D01*
X55119Y18521D01*
X55222Y18504D01*
X55293Y18485D01*
X55313Y18477D01*
X55315Y18474D01*
Y17898D01*
X59268D01*
Y21260D01*
X55315D01*
Y20684D01*
X55313Y20681D01*
X55293Y20673D01*
X55222Y20653D01*
X55119Y20636D01*
X54986Y20624D01*
X54813Y20620D01*
X54765Y20598D01*
X52256D01*
X51866Y20521D01*
X51535Y20300D01*
X49873Y18638D01*
X22076D01*
X18146Y22568D01*
Y31890D01*
X18068Y32280D01*
X17847Y32611D01*
X16764Y33693D01*
X16433Y33914D01*
X16043Y33992D01*
X15881D01*
X15841Y34012D01*
X15663Y34025D01*
X15504Y34059D01*
X15323Y34121D01*
X15122Y34213D01*
X14901Y34337D01*
X14663Y34494D01*
X14414Y34681D01*
X13853Y35172D01*
X13554Y35466D01*
X13457Y35506D01*
X13180Y35783D01*
X12379Y36245D01*
X11486Y36484D01*
D02*
G37*
%LPD*%
G36*
X13485Y34775D02*
X14073Y34260D01*
X14351Y34051D01*
X14619Y33874D01*
X14877Y33730D01*
X15123Y33617D01*
X15360Y33537D01*
X15586Y33489D01*
X15801Y33472D01*
Y32472D01*
X15586Y32456D01*
X15360Y32408D01*
X15123Y32328D01*
X14877Y32215D01*
X14619Y32070D01*
X14351Y31894D01*
X14073Y31684D01*
X13485Y31170D01*
X13174Y30864D01*
Y35081D01*
X13485Y34775D01*
D02*
G37*
G36*
X55827Y18579D02*
X55817Y18674D01*
X55787Y18759D01*
X55737Y18834D01*
X55667Y18899D01*
X55577Y18954D01*
X55467Y18999D01*
X55337Y19034D01*
X55187Y19059D01*
X55017Y19074D01*
X54827Y19079D01*
Y20079D01*
X55017Y20084D01*
X55187Y20099D01*
X55337Y20124D01*
X55467Y20159D01*
X55577Y20204D01*
X55667Y20259D01*
X55737Y20324D01*
X55787Y20399D01*
X55817Y20484D01*
X55827Y20579D01*
Y18579D01*
D02*
G37*
%LPC*%
G36*
X62941Y92634D02*
X62951Y92539D01*
X62981Y92454D01*
X63031Y92379D01*
X63101Y92314D01*
X63191Y92259D01*
X63216Y92249D01*
X63223Y92251D01*
X63308Y92294D01*
X63387Y92343D01*
X63460Y92399D01*
X63527Y92461D01*
D01*
X63065Y92553D01*
X62941Y92634D01*
D02*
G37*
G36*
X63527Y92461D02*
Y92163D01*
X63581Y92154D01*
X63751Y92139D01*
X63941Y92134D01*
Y91134D01*
X63751Y91129D01*
X63581Y91114D01*
X63527Y91105D01*
Y91093D01*
X64370D01*
X64753Y91251D01*
X64911Y91634D01*
X64753Y92017D01*
X64370Y92175D01*
X63812D01*
X63527Y92461D01*
Y92461D01*
D02*
G37*
G36*
X62941Y92634D02*
X62941Y92175D01*
X61772D01*
X61389Y92017D01*
X61230Y91634D01*
X61389Y91251D01*
X61772Y91093D01*
X62941D01*
X62941Y90823D01*
Y91103D01*
X62934Y91104D01*
X62826Y91121D01*
X62711Y91131D01*
X62591Y91134D01*
Y92134D01*
X62711Y92137D01*
X62826Y92147D01*
X62934Y92163D01*
X62941Y92165D01*
Y92634D01*
Y92634D01*
D02*
G37*
G36*
X63216Y91019D02*
X63191Y91009D01*
X63101Y90954D01*
X63031Y90889D01*
X62981Y90814D01*
X62951Y90729D01*
X62941Y90634D01*
X63239Y90827D01*
X63481Y90839D01*
X63526Y90807D01*
X63460Y90869D01*
X63387Y90925D01*
X63308Y90974D01*
X63223Y91016D01*
X63216Y91019D01*
D02*
G37*
G36*
X186949Y110343D02*
X186280D01*
X185662Y110087D01*
X185189Y109614D01*
X184933Y108996D01*
Y108327D01*
X185189Y107709D01*
X185491Y107407D01*
X185608Y107087D01*
X185491Y106766D01*
X185189Y106464D01*
X184933Y105846D01*
Y105177D01*
X185189Y104560D01*
X185491Y104258D01*
X185608Y103937D01*
X185491Y103616D01*
X185189Y103314D01*
X184933Y102697D01*
Y102028D01*
X185189Y101410D01*
X185491Y101108D01*
X185608Y100787D01*
X185491Y100467D01*
X185189Y100165D01*
X184933Y99547D01*
Y98878D01*
X185189Y98260D01*
X185662Y97787D01*
X186280Y97531D01*
X186949D01*
X187566Y97787D01*
X188039Y98260D01*
X188295Y98878D01*
Y99547D01*
X188039Y100165D01*
X187738Y100467D01*
X187621Y100787D01*
X187738Y101108D01*
X188039Y101410D01*
X188295Y102028D01*
Y102697D01*
X188039Y103314D01*
X187738Y103616D01*
X187621Y103937D01*
X187738Y104258D01*
X188039Y104560D01*
X188295Y105177D01*
Y105846D01*
X188039Y106464D01*
X187738Y106766D01*
X187621Y107087D01*
X187738Y107407D01*
X188039Y107709D01*
X188295Y108327D01*
Y108996D01*
X188039Y109614D01*
X187566Y110087D01*
X186949Y110343D01*
D02*
G37*
G36*
X183012D02*
X182343D01*
X181725Y110087D01*
X181252Y109614D01*
X180996Y108996D01*
Y108327D01*
X181252Y107709D01*
X181554Y107407D01*
X181670Y107087D01*
X181554Y106766D01*
X181252Y106464D01*
X180996Y105846D01*
Y105177D01*
X181252Y104560D01*
X181554Y104258D01*
X181670Y103937D01*
X181554Y103616D01*
X181252Y103314D01*
X180996Y102697D01*
Y102028D01*
X181252Y101410D01*
X181554Y101108D01*
X181670Y100787D01*
X181554Y100467D01*
X181252Y100165D01*
X180996Y99547D01*
Y98878D01*
X181252Y98260D01*
X181725Y97787D01*
X182343Y97531D01*
X183012D01*
X183629Y97787D01*
X184102Y98260D01*
X184358Y98878D01*
Y99547D01*
X184102Y100165D01*
X183800Y100467D01*
X183684Y100787D01*
X183800Y101108D01*
X184102Y101410D01*
X184358Y102028D01*
Y102697D01*
X184102Y103314D01*
X183800Y103616D01*
X183684Y103937D01*
X183800Y104258D01*
X184102Y104560D01*
X184358Y105177D01*
Y105846D01*
X184102Y106464D01*
X183800Y106766D01*
X183684Y107087D01*
X183800Y107407D01*
X184102Y107709D01*
X184358Y108327D01*
Y108996D01*
X184102Y109614D01*
X183629Y110087D01*
X183012Y110343D01*
D02*
G37*
G36*
X179075D02*
X178406D01*
X177788Y110087D01*
X177315Y109614D01*
X177059Y108996D01*
Y108327D01*
X177315Y107709D01*
X177617Y107407D01*
X177734Y107087D01*
X177617Y106766D01*
X177315Y106464D01*
X177059Y105846D01*
Y105177D01*
X177315Y104560D01*
X177617Y104258D01*
X177734Y103937D01*
X177617Y103616D01*
X177315Y103314D01*
X177059Y102697D01*
Y102028D01*
X177315Y101410D01*
X177617Y101108D01*
X177734Y100787D01*
X177617Y100467D01*
X177315Y100165D01*
X177059Y99547D01*
Y98878D01*
X177315Y98260D01*
X177788Y97787D01*
X178406Y97531D01*
X179075D01*
X179692Y97787D01*
X180165Y98260D01*
X180421Y98878D01*
Y99547D01*
X180165Y100165D01*
X179864Y100467D01*
X179747Y100787D01*
X179864Y101108D01*
X180165Y101410D01*
X180421Y102028D01*
Y102697D01*
X180165Y103314D01*
X179864Y103616D01*
X179747Y103937D01*
X179864Y104258D01*
X180165Y104560D01*
X180421Y105177D01*
Y105846D01*
X180165Y106464D01*
X179864Y106766D01*
X179747Y107087D01*
X179864Y107407D01*
X180165Y107709D01*
X180421Y108327D01*
Y108996D01*
X180165Y109614D01*
X179692Y110087D01*
X179075Y110343D01*
D02*
G37*
G36*
X234193Y92626D02*
X233524D01*
X232906Y92370D01*
X232433Y91897D01*
X232177Y91279D01*
Y90610D01*
X232433Y89993D01*
X232906Y89520D01*
X233524Y89264D01*
X234193D01*
X234810Y89520D01*
X235283Y89993D01*
X235539Y90610D01*
Y91279D01*
X235283Y91897D01*
X234810Y92370D01*
X234193Y92626D01*
D02*
G37*
G36*
X230256D02*
X229587D01*
X228969Y92370D01*
X228496Y91897D01*
X228240Y91279D01*
Y90610D01*
X228496Y89993D01*
X228969Y89520D01*
X229587Y89264D01*
X230256D01*
X230873Y89520D01*
X231346Y89993D01*
X231602Y90610D01*
Y91279D01*
X231346Y91897D01*
X230873Y92370D01*
X230256Y92626D01*
D02*
G37*
G36*
X234193Y88689D02*
X233524D01*
X232906Y88433D01*
X232433Y87960D01*
X232177Y87342D01*
Y86673D01*
X232433Y86056D01*
X232906Y85583D01*
X233524Y85327D01*
X234193D01*
X234810Y85583D01*
X235283Y86056D01*
X235539Y86673D01*
Y87342D01*
X235283Y87960D01*
X234810Y88433D01*
X234193Y88689D01*
D02*
G37*
G36*
X230256D02*
X229587D01*
X228969Y88433D01*
X228496Y87960D01*
X228240Y87342D01*
Y86673D01*
X228496Y86056D01*
X228969Y85583D01*
X229587Y85327D01*
X230256D01*
X230873Y85583D01*
X231346Y86056D01*
X231602Y86673D01*
Y87342D01*
X231346Y87960D01*
X230873Y88433D01*
X230256Y88689D01*
D02*
G37*
G36*
X128484Y84358D02*
X127815D01*
X127197Y84102D01*
X126725Y83629D01*
X126469Y83012D01*
Y82343D01*
X126072Y81995D01*
X125500Y82324D01*
X125106Y82430D01*
Y83012D01*
X124850Y83629D01*
X124378Y84102D01*
X123760Y84358D01*
X123091D01*
X122473Y84102D01*
X122000Y83629D01*
X121744Y83012D01*
Y82343D01*
X121902Y81961D01*
X121654Y81818D01*
X120938Y81102D01*
X120431Y80225D01*
X120169Y79247D01*
Y78234D01*
X120431Y77255D01*
X120938Y76378D01*
X121654Y75662D01*
X122531Y75156D01*
X123509Y74894D01*
X124522D01*
X125500Y75156D01*
X126377Y75662D01*
X127094Y76378D01*
X127600Y77255D01*
X127862Y78234D01*
Y79247D01*
X127600Y80225D01*
X127358Y80644D01*
X127706Y81041D01*
X127815Y80996D01*
X128484D01*
X129102Y81252D01*
X129575Y81725D01*
X129831Y82343D01*
Y83012D01*
X129575Y83629D01*
X129102Y84102D01*
X128484Y84358D01*
D02*
G37*
G36*
X147086D02*
X146418D01*
X145800Y84102D01*
X145327Y83629D01*
X145071Y83012D01*
Y82343D01*
X145327Y81725D01*
X145800Y81252D01*
X146418Y80996D01*
X147086D01*
X147704Y81252D01*
X148177Y81725D01*
X148433Y82343D01*
Y83012D01*
X148177Y83629D01*
X147704Y84102D01*
X147086Y84358D01*
D02*
G37*
G36*
X142362D02*
X141693D01*
X141075Y84102D01*
X140602Y83629D01*
X140347Y83012D01*
Y82343D01*
X140602Y81725D01*
X141075Y81252D01*
X141693Y80996D01*
X142362D01*
X142980Y81252D01*
X143453Y81725D01*
X143709Y82343D01*
Y83012D01*
X143453Y83629D01*
X142980Y84102D01*
X142362Y84358D01*
D02*
G37*
G36*
X133307D02*
X132638D01*
X132020Y84102D01*
X131547Y83629D01*
X131291Y83012D01*
Y82343D01*
X131547Y81725D01*
X132020Y81252D01*
X132638Y80996D01*
X133307D01*
X133925Y81252D01*
X134398Y81725D01*
X134653Y82343D01*
Y83012D01*
X134398Y83629D01*
X133925Y84102D01*
X133307Y84358D01*
D02*
G37*
G36*
X157323Y85736D02*
X156654D01*
X156036Y85480D01*
X155563Y85007D01*
X155307Y84390D01*
Y83721D01*
X155563Y83103D01*
X155810Y82856D01*
X156035Y82628D01*
X155810Y82203D01*
X155661Y82055D01*
X155405Y81437D01*
Y80768D01*
X155661Y80150D01*
X156134Y79677D01*
X156752Y79421D01*
X157421D01*
X158039Y79677D01*
X158512Y80150D01*
X158588Y80333D01*
X159129D01*
X159205Y80150D01*
X159678Y79677D01*
X160295Y79421D01*
X160964D01*
X161582Y79677D01*
X162055Y80150D01*
X162131Y80333D01*
X162672D01*
X162748Y80150D01*
X163221Y79677D01*
X163839Y79421D01*
X164508D01*
X165126Y79677D01*
X165598Y80150D01*
X165674Y80333D01*
X166216D01*
X166291Y80150D01*
X166764Y79677D01*
X167382Y79421D01*
X168051D01*
X168669Y79677D01*
X169142Y80150D01*
X169398Y80768D01*
Y81437D01*
X169142Y82055D01*
X168895Y82301D01*
X168670Y82529D01*
X168895Y82955D01*
X169043Y83103D01*
X169299Y83721D01*
Y84390D01*
X169043Y85007D01*
X168570Y85480D01*
X167953Y85736D01*
X167284D01*
X166666Y85480D01*
X166193Y85007D01*
X166117Y84824D01*
X165576D01*
X165500Y85007D01*
X165027Y85480D01*
X164409Y85736D01*
X163740D01*
X163122Y85480D01*
X162650Y85007D01*
X162574Y84824D01*
X162032D01*
X161957Y85007D01*
X161484Y85480D01*
X160866Y85736D01*
X160197D01*
X159579Y85480D01*
X159106Y85007D01*
X159030Y84824D01*
X158489D01*
X158413Y85007D01*
X157940Y85480D01*
X157323Y85736D01*
D02*
G37*
G36*
X68567Y84827D02*
X62063D01*
Y78323D01*
X68567D01*
Y84827D01*
D02*
G37*
G36*
X234193Y84752D02*
X233524D01*
X232906Y84496D01*
X232433Y84023D01*
X232177Y83405D01*
Y82736D01*
X232433Y82119D01*
X232906Y81646D01*
X233089Y81570D01*
Y81029D01*
X232906Y80953D01*
X232433Y80480D01*
X232177Y79862D01*
Y79193D01*
X232433Y78575D01*
X232906Y78102D01*
X233524Y77846D01*
X234193D01*
X234810Y78102D01*
X235283Y78575D01*
X235539Y79193D01*
Y79862D01*
X235283Y80480D01*
X234810Y80953D01*
X234627Y81029D01*
Y81570D01*
X234810Y81646D01*
X235283Y82119D01*
X235539Y82736D01*
Y83405D01*
X235283Y84023D01*
X234810Y84496D01*
X234193Y84752D01*
D02*
G37*
G36*
X230256D02*
X229587D01*
X228969Y84496D01*
X228496Y84023D01*
X228240Y83405D01*
Y82736D01*
X228496Y82119D01*
X228969Y81646D01*
X229152Y81570D01*
Y81029D01*
X228969Y80953D01*
X228496Y80480D01*
X228240Y79862D01*
Y79193D01*
X228496Y78575D01*
X228969Y78102D01*
X229587Y77846D01*
X230256D01*
X230873Y78102D01*
X231346Y78575D01*
X231602Y79193D01*
Y79862D01*
X231346Y80480D01*
X230873Y80953D01*
X230690Y81029D01*
Y81570D01*
X230873Y81646D01*
X231346Y82119D01*
X231602Y82736D01*
Y83405D01*
X231346Y84023D01*
X230873Y84496D01*
X230256Y84752D01*
D02*
G37*
G36*
X55743Y79787D02*
X54887D01*
X54060Y79566D01*
X53318Y79138D01*
X52713Y78532D01*
X52285Y77791D01*
X52063Y76964D01*
Y76107D01*
X52285Y75280D01*
X52713Y74539D01*
X53318Y73933D01*
X54060Y73505D01*
X54887Y73283D01*
X55743D01*
X56570Y73505D01*
X57312Y73933D01*
X57917Y74539D01*
X58345Y75280D01*
X58567Y76107D01*
Y76964D01*
X58345Y77791D01*
X57917Y78532D01*
X57312Y79138D01*
X56570Y79566D01*
X55743Y79787D01*
D02*
G37*
G36*
X167657Y72547D02*
X166988D01*
X166371Y72291D01*
X165898Y71818D01*
X165642Y71201D01*
Y70532D01*
X165898Y69914D01*
X166371Y69441D01*
X166988Y69185D01*
X167657D01*
X168275Y69441D01*
X168748Y69914D01*
X169004Y70532D01*
Y71201D01*
X168748Y71818D01*
X168275Y72291D01*
X167657Y72547D01*
D02*
G37*
G36*
X65743Y74827D02*
X64887D01*
X64060Y74605D01*
X63318Y74177D01*
X62713Y73572D01*
X62285Y72830D01*
X62063Y72003D01*
Y71147D01*
X62285Y70320D01*
X62713Y69578D01*
X63318Y68973D01*
X64060Y68545D01*
X64887Y68323D01*
X65743D01*
X66570Y68545D01*
X67312Y68973D01*
X67917Y69578D01*
X68345Y70320D01*
X68567Y71147D01*
Y72003D01*
X68345Y72830D01*
X67917Y73572D01*
X67312Y74177D01*
X66570Y74605D01*
X65743Y74827D01*
D02*
G37*
G36*
X110767Y70972D02*
X110099D01*
X109481Y70717D01*
X109008Y70244D01*
X108752Y69626D01*
Y68957D01*
X109008Y68339D01*
X109481Y67866D01*
X110099Y67610D01*
X110767D01*
X111385Y67866D01*
X111858Y68339D01*
X112114Y68957D01*
Y69626D01*
X111858Y70244D01*
X111385Y70717D01*
X110767Y70972D01*
D02*
G37*
G36*
X167344Y66620D02*
X166962Y66461D01*
X166926Y66426D01*
X166768Y66043D01*
X166926Y65661D01*
X167309Y65502D01*
X167692Y65661D01*
X167727Y65696D01*
X167886Y66079D01*
X167727Y66461D01*
X167344Y66620D01*
D02*
G37*
G36*
X55743Y69787D02*
X54887D01*
X54060Y69566D01*
X53318Y69138D01*
X52713Y68532D01*
X52285Y67791D01*
X52063Y66964D01*
Y66107D01*
X52285Y65280D01*
X52713Y64539D01*
X53318Y63933D01*
X54060Y63505D01*
X54887Y63283D01*
X55743D01*
X56570Y63505D01*
X57312Y63933D01*
X57917Y64539D01*
X58345Y65280D01*
X58567Y66107D01*
Y66964D01*
X58345Y67791D01*
X57917Y68532D01*
X57312Y69138D01*
X56570Y69566D01*
X55743Y69787D01*
D02*
G37*
G36*
X110767Y62311D02*
X110099D01*
X109481Y62055D01*
X109008Y61582D01*
X108752Y60964D01*
Y60295D01*
X109008Y59678D01*
X109481Y59205D01*
X110099Y58949D01*
X110767D01*
X111385Y59205D01*
X111858Y59678D01*
X112114Y60295D01*
Y60964D01*
X111858Y61582D01*
X111385Y62055D01*
X110767Y62311D01*
D02*
G37*
G36*
X65743Y64827D02*
X64887D01*
X64060Y64605D01*
X63318Y64177D01*
X62713Y63572D01*
X62285Y62830D01*
X62063Y62003D01*
Y61147D01*
X62285Y60320D01*
X62713Y59578D01*
X63318Y58973D01*
X64060Y58544D01*
X64887Y58323D01*
X65743D01*
X66570Y58544D01*
X67312Y58973D01*
X67917Y59578D01*
X68345Y60320D01*
X68567Y61147D01*
Y62003D01*
X68345Y62830D01*
X67917Y63572D01*
X67312Y64177D01*
X66570Y64605D01*
X65743Y64827D01*
D02*
G37*
G36*
X156732Y59752D02*
X156063D01*
X155445Y59496D01*
X154973Y59023D01*
X154717Y58405D01*
Y57736D01*
X154973Y57119D01*
X155445Y56646D01*
X156063Y56390D01*
X156732D01*
X157350Y56646D01*
X157823Y57119D01*
X158079Y57736D01*
Y58405D01*
X157823Y59023D01*
X157350Y59496D01*
X156732Y59752D01*
D02*
G37*
G36*
X55743Y59787D02*
X54887D01*
X54060Y59566D01*
X53318Y59138D01*
X52713Y58532D01*
X52285Y57791D01*
X52063Y56964D01*
Y56107D01*
X52285Y55280D01*
X52713Y54539D01*
X53318Y53933D01*
X54060Y53505D01*
X54887Y53284D01*
X55743D01*
X56570Y53505D01*
X57312Y53933D01*
X57917Y54539D01*
X58345Y55280D01*
X58567Y56107D01*
Y56964D01*
X58345Y57791D01*
X57917Y58532D01*
X57312Y59138D01*
X56570Y59566D01*
X55743Y59787D01*
D02*
G37*
G36*
X110669Y55224D02*
X110000D01*
X109382Y54969D01*
X108909Y54496D01*
X108653Y53878D01*
Y53209D01*
X108909Y52591D01*
X109382Y52118D01*
X110000Y51862D01*
X110669D01*
X111287Y52118D01*
X111760Y52591D01*
X112016Y53209D01*
Y53878D01*
X111760Y54496D01*
X111287Y54969D01*
X110669Y55224D01*
D02*
G37*
G36*
X65743Y54827D02*
X64887D01*
X64060Y54605D01*
X63318Y54177D01*
X62713Y53572D01*
X62285Y52830D01*
X62063Y52003D01*
Y51147D01*
X62285Y50320D01*
X62713Y49578D01*
X63318Y48973D01*
X64060Y48544D01*
X64887Y48323D01*
X65743D01*
X66570Y48544D01*
X67312Y48973D01*
X67917Y49578D01*
X68345Y50320D01*
X68567Y51147D01*
Y52003D01*
X68345Y52830D01*
X67917Y53572D01*
X67312Y54177D01*
X66570Y54605D01*
X65743Y54827D01*
D02*
G37*
G36*
X193445Y59457D02*
X192776D01*
X192158Y59201D01*
X191685Y58728D01*
X191429Y58110D01*
Y57441D01*
X191685Y56823D01*
X192091Y56417D01*
X191685Y56011D01*
X191429Y55393D01*
Y54725D01*
X191685Y54107D01*
X192158Y53634D01*
X192776Y53378D01*
X193445D01*
X194062Y53634D01*
X194535Y54107D01*
X194791Y54725D01*
Y54992D01*
X195488D01*
Y49772D01*
X195558Y49418D01*
X195758Y49119D01*
X197293Y47584D01*
X197593Y47383D01*
X197946Y47313D01*
X201468D01*
Y47199D01*
X201725Y46582D01*
X202197Y46109D01*
X202815Y45853D01*
X203484D01*
X204102Y46109D01*
X204575Y46582D01*
X204831Y47199D01*
Y47868D01*
X204575Y48486D01*
X204169Y48892D01*
X204575Y49298D01*
X204831Y49916D01*
Y50585D01*
X204575Y51203D01*
X204102Y51676D01*
X203484Y51932D01*
X202815D01*
X202197Y51676D01*
X201725Y51203D01*
X201468Y50585D01*
Y50471D01*
X198872D01*
X198646Y50697D01*
Y55983D01*
X198576Y56337D01*
X198376Y56636D01*
X196583Y58429D01*
X196284Y58629D01*
X195931Y58699D01*
X194547D01*
X194535Y58728D01*
X194062Y59201D01*
X193445Y59457D01*
D02*
G37*
G36*
X156634Y48925D02*
X155965D01*
X155347Y48669D01*
X154874Y48196D01*
X154618Y47578D01*
Y46910D01*
X154874Y46292D01*
X155347Y45819D01*
X155965Y45563D01*
X156634D01*
X157252Y45819D01*
X157724Y46292D01*
X157980Y46910D01*
Y47578D01*
X157724Y48196D01*
X157252Y48669D01*
X156634Y48925D01*
D02*
G37*
G36*
X171299Y44071D02*
X170630D01*
X170012Y43815D01*
X169539Y43342D01*
X169521Y43297D01*
X168979D01*
X168961Y43342D01*
X168488Y43815D01*
X167870Y44071D01*
X167201D01*
X166583Y43815D01*
X166110Y43342D01*
X165939Y42928D01*
X165839Y42778D01*
X165761Y42388D01*
X165839Y41998D01*
X165943Y41843D01*
X166110Y41438D01*
X166583Y40965D01*
X166966Y40806D01*
Y40265D01*
X166583Y40106D01*
X166110Y39633D01*
X165854Y39015D01*
Y38602D01*
X165354Y38395D01*
X160979Y42770D01*
X160683Y42968D01*
X160335Y43037D01*
X131187D01*
X131135Y43061D01*
X131054Y43063D01*
X130997Y43069D01*
X130945Y43077D01*
X130900Y43088D01*
X130861Y43101D01*
X130826Y43115D01*
X130796Y43132D01*
X130767Y43150D01*
X130741Y43170D01*
X130699Y43210D01*
X130606Y43245D01*
X130467Y43384D01*
X129921Y43610D01*
X129331D01*
X128785Y43384D01*
X128368Y42967D01*
X128142Y42421D01*
Y41831D01*
X128368Y41285D01*
X128785Y40868D01*
X129331Y40642D01*
X129921Y40642D01*
X130091Y40180D01*
X129737Y40033D01*
X129320Y39615D01*
X129094Y39070D01*
Y38480D01*
X129320Y37934D01*
X129459Y37795D01*
X129493Y37702D01*
X129533Y37660D01*
X129554Y37633D01*
X129572Y37605D01*
X129588Y37574D01*
X129603Y37540D01*
X129616Y37500D01*
X129627Y37455D01*
X129635Y37404D01*
X129641Y37346D01*
X129643Y37266D01*
X129666Y37214D01*
Y30347D01*
X129736Y29999D01*
X129933Y29703D01*
X132427Y27210D01*
X132722Y27013D01*
X133071Y26943D01*
X157989D01*
X172486Y12446D01*
X172781Y12249D01*
X173130Y12179D01*
X182002D01*
X182054Y12156D01*
X182135Y12154D01*
X182193Y12148D01*
X182244Y12140D01*
X182289Y12129D01*
X182328Y12116D01*
X182363Y12101D01*
X182394Y12085D01*
X182422Y12067D01*
X182448Y12046D01*
X182490Y12006D01*
X182583Y11972D01*
X182722Y11832D01*
X183268Y11606D01*
X183858D01*
X184404Y11832D01*
X184821Y12250D01*
X185047Y12795D01*
Y13386D01*
X184821Y13931D01*
X184404Y14349D01*
X183858Y14575D01*
X183268D01*
X182722Y14349D01*
X182583Y14209D01*
X182490Y14175D01*
X182448Y14135D01*
X182422Y14114D01*
X182394Y14096D01*
X182363Y14080D01*
X182328Y14065D01*
X182289Y14052D01*
X182244Y14041D01*
X182193Y14033D01*
X182135Y14028D01*
X182054Y14025D01*
X182002Y14002D01*
X173507D01*
X159011Y28499D01*
X158715Y28696D01*
X158366Y28765D01*
X133448D01*
X131489Y30725D01*
Y37214D01*
X131512Y37266D01*
X131515Y37346D01*
X131516Y37357D01*
X131624Y37500D01*
X131696Y37551D01*
X131744Y37578D01*
X132024Y37515D01*
X132301Y37387D01*
X132403Y37141D01*
X132542Y37002D01*
X132577Y36909D01*
X132617Y36867D01*
X132638Y36841D01*
X132656Y36812D01*
X132672Y36782D01*
X132687Y36747D01*
X132700Y36708D01*
X132710Y36663D01*
X132719Y36612D01*
X132724Y36553D01*
X132727Y36473D01*
X132750Y36421D01*
Y32579D01*
X132820Y32230D01*
X133017Y31934D01*
X134494Y30458D01*
X134789Y30261D01*
X135138Y30191D01*
X160056D01*
X172682Y17564D01*
X172978Y17367D01*
X173327Y17298D01*
X181904D01*
X181956Y17274D01*
X182036Y17272D01*
X182094Y17266D01*
X182145Y17258D01*
X182190Y17247D01*
X182229Y17234D01*
X182264Y17219D01*
X182295Y17203D01*
X182323Y17185D01*
X182350Y17164D01*
X182392Y17124D01*
X182484Y17090D01*
X182624Y16950D01*
X183169Y16724D01*
X183760D01*
X184305Y16950D01*
X184723Y17368D01*
X184949Y17913D01*
Y18504D01*
X184723Y19049D01*
X184305Y19467D01*
X183760Y19693D01*
X183169D01*
X182624Y19467D01*
X182484Y19328D01*
X182392Y19293D01*
X182350Y19253D01*
X182323Y19233D01*
X182295Y19214D01*
X182264Y19198D01*
X182229Y19183D01*
X182190Y19171D01*
X182145Y19160D01*
X182094Y19151D01*
X182036Y19146D01*
X181956Y19143D01*
X181904Y19120D01*
X173704D01*
X161077Y31747D01*
X160782Y31944D01*
X160433Y32014D01*
X135515D01*
X134573Y32956D01*
Y33875D01*
X135073Y33974D01*
X135189Y33693D01*
X135662Y33220D01*
X136280Y32965D01*
X136949D01*
X137566Y33220D01*
X138039Y33693D01*
X138295Y34311D01*
Y34980D01*
X138039Y35598D01*
X137566Y36071D01*
X136949Y36327D01*
X136909Y36803D01*
X137455Y37029D01*
X137594Y37168D01*
X137687Y37203D01*
X137729Y37243D01*
X137756Y37264D01*
X137784Y37282D01*
X137814Y37298D01*
X137849Y37313D01*
X137889Y37326D01*
X137934Y37336D01*
X137985Y37345D01*
X138043Y37350D01*
X138123Y37353D01*
X138175Y37376D01*
X158186D01*
X172978Y22584D01*
X173273Y22387D01*
X173622Y22317D01*
X181707D01*
X181759Y22294D01*
X181839Y22291D01*
X181897Y22286D01*
X181948Y22277D01*
X181993Y22266D01*
X182033Y22254D01*
X182067Y22239D01*
X182098Y22223D01*
X182126Y22204D01*
X182153Y22184D01*
X182195Y22144D01*
X182288Y22109D01*
X182427Y21970D01*
X182973Y21744D01*
X183563D01*
X184108Y21970D01*
X184526Y22388D01*
X184752Y22933D01*
Y23524D01*
X184526Y24069D01*
X184108Y24487D01*
X183563Y24713D01*
X182973D01*
X182427Y24487D01*
X182288Y24347D01*
X182195Y24313D01*
X182153Y24273D01*
X182126Y24252D01*
X182098Y24234D01*
X182067Y24218D01*
X182033Y24203D01*
X181993Y24190D01*
X181948Y24179D01*
X181897Y24171D01*
X181839Y24165D01*
X181759Y24163D01*
X181707Y24140D01*
X174000D01*
X159207Y38932D01*
X158912Y39129D01*
X158563Y39199D01*
X138175D01*
X138123Y39222D01*
X138043Y39224D01*
X137985Y39230D01*
X137934Y39238D01*
X137889Y39249D01*
X137849Y39262D01*
X137814Y39277D01*
X137784Y39293D01*
X137756Y39311D01*
X137729Y39332D01*
X137687Y39372D01*
X137594Y39406D01*
X137455Y39546D01*
X136909Y39772D01*
X136319D01*
X135773Y39546D01*
X135356Y39128D01*
X135330Y39066D01*
X135304Y39050D01*
X134756Y38986D01*
X134502Y39240D01*
X133957Y39466D01*
X133366D01*
X132821Y39240D01*
X132562Y38982D01*
X132320Y39024D01*
X132034Y39138D01*
X131836Y39615D01*
X131419Y40033D01*
X130873Y40259D01*
X130282Y40259D01*
X130112Y40721D01*
X130467Y40868D01*
X130606Y41007D01*
X130699Y41042D01*
X130741Y41081D01*
X130767Y41102D01*
X130796Y41120D01*
X130826Y41137D01*
X130861Y41151D01*
X130900Y41164D01*
X130945Y41175D01*
X130997Y41183D01*
X131054Y41189D01*
X131135Y41191D01*
X131187Y41215D01*
X159957D01*
X173568Y27604D01*
X173864Y27406D01*
X174213Y27337D01*
X181608D01*
X181660Y27313D01*
X181741Y27311D01*
X181799Y27305D01*
X181850Y27297D01*
X181895Y27286D01*
X181934Y27273D01*
X181969Y27259D01*
X182000Y27242D01*
X182028Y27224D01*
X182054Y27204D01*
X182097Y27164D01*
X182189Y27129D01*
X182328Y26990D01*
X182874Y26764D01*
X183465D01*
X184010Y26990D01*
X184428Y27407D01*
X184653Y27953D01*
Y28543D01*
X184428Y29089D01*
X184010Y29506D01*
X183465Y29732D01*
X182874D01*
X182328Y29506D01*
X182189Y29367D01*
X182097Y29332D01*
X182054Y29293D01*
X182028Y29272D01*
X182000Y29254D01*
X181969Y29237D01*
X181934Y29223D01*
X181895Y29210D01*
X181850Y29199D01*
X181799Y29191D01*
X181741Y29185D01*
X181660Y29183D01*
X181608Y29159D01*
X174590D01*
X167249Y36500D01*
X167456Y37000D01*
X167870D01*
X168488Y37256D01*
X168961Y37729D01*
X168979Y37774D01*
X169521D01*
X169539Y37729D01*
X170012Y37256D01*
X170630Y37000D01*
X171299D01*
X171917Y37256D01*
X172390Y37729D01*
X172646Y38347D01*
Y39015D01*
X172390Y39633D01*
X171917Y40106D01*
X171534Y40265D01*
Y40806D01*
X171917Y40965D01*
X172390Y41438D01*
X172646Y42055D01*
Y42724D01*
X172390Y43342D01*
X171917Y43815D01*
X171299Y44071D01*
D02*
G37*
G36*
X55743Y49787D02*
X54887D01*
X54060Y49566D01*
X53318Y49138D01*
X52713Y48532D01*
X52285Y47791D01*
X52063Y46964D01*
Y46107D01*
X52285Y45280D01*
X52713Y44539D01*
X53318Y43933D01*
X54060Y43505D01*
X54887Y43284D01*
X55743D01*
X56570Y43505D01*
X57312Y43933D01*
X57917Y44539D01*
X58345Y45280D01*
X58567Y46107D01*
Y46964D01*
X58345Y47791D01*
X57917Y48532D01*
X57312Y49138D01*
X56570Y49566D01*
X55743Y49787D01*
D02*
G37*
G36*
X111358Y46465D02*
X110689D01*
X110071Y46209D01*
X109599Y45736D01*
X109343Y45118D01*
Y44449D01*
X109599Y43831D01*
X110071Y43358D01*
X110689Y43102D01*
X111358D01*
X111976Y43358D01*
X112449Y43831D01*
X112705Y44449D01*
Y45118D01*
X112449Y45736D01*
X111976Y46209D01*
X111358Y46465D01*
D02*
G37*
G36*
X65743Y44827D02*
X64887D01*
X64060Y44605D01*
X63318Y44177D01*
X62713Y43572D01*
X62285Y42830D01*
X62063Y42003D01*
Y41147D01*
X62285Y40320D01*
X62713Y39578D01*
X63318Y38973D01*
X64060Y38544D01*
X64887Y38323D01*
X65743D01*
X66570Y38544D01*
X67312Y38973D01*
X67917Y39578D01*
X68345Y40320D01*
X68567Y41147D01*
Y42003D01*
X68345Y42830D01*
X67917Y43572D01*
X67312Y44177D01*
X66570Y44605D01*
X65743Y44827D01*
D02*
G37*
G36*
X152008Y36327D02*
X151339D01*
X150721Y36071D01*
X150248Y35598D01*
X149992Y34980D01*
Y34311D01*
X150248Y33693D01*
X150721Y33220D01*
X151339Y32965D01*
X152008D01*
X152626Y33220D01*
X153098Y33693D01*
X153354Y34311D01*
Y34980D01*
X153098Y35598D01*
X152626Y36071D01*
X152008Y36327D01*
D02*
G37*
G36*
X146988D02*
X146319D01*
X145701Y36071D01*
X145228Y35598D01*
X144972Y34980D01*
Y34311D01*
X145228Y33693D01*
X145701Y33220D01*
X146319Y32965D01*
X146988D01*
X147606Y33220D01*
X148079Y33693D01*
X148335Y34311D01*
Y34980D01*
X148079Y35598D01*
X147606Y36071D01*
X146988Y36327D01*
D02*
G37*
G36*
X142067D02*
X141398D01*
X140780Y36071D01*
X140307Y35598D01*
X140051Y34980D01*
Y34311D01*
X140307Y33693D01*
X140780Y33220D01*
X141398Y32965D01*
X142067D01*
X142684Y33220D01*
X143157Y33693D01*
X143413Y34311D01*
Y34980D01*
X143157Y35598D01*
X142684Y36071D01*
X142067Y36327D01*
D02*
G37*
G36*
X141732Y25426D02*
X141431Y25301D01*
X141306Y25000D01*
Y24335D01*
X141431Y24033D01*
X141732Y23909D01*
X142034Y24033D01*
X142158Y24335D01*
Y25000D01*
X142034Y25301D01*
X141732Y25426D01*
D02*
G37*
G36*
X136614Y25344D02*
X136232Y25186D01*
X136073Y24803D01*
Y24335D01*
X136232Y23952D01*
X136614Y23794D01*
X136997Y23952D01*
X137155Y24335D01*
Y24803D01*
X136997Y25186D01*
X136614Y25344D01*
D02*
G37*
G36*
X118445Y18413D02*
X117776D01*
X117158Y18157D01*
X116685Y17684D01*
X116429Y17067D01*
Y16398D01*
X116685Y15780D01*
X117158Y15307D01*
X117776Y15051D01*
X118445D01*
X119062Y15307D01*
X119535Y15780D01*
X119791Y16398D01*
Y17067D01*
X119535Y17684D01*
X119062Y18157D01*
X118445Y18413D01*
D02*
G37*
G36*
X112539D02*
X111870D01*
X111252Y18157D01*
X110780Y17684D01*
X110524Y17067D01*
Y16398D01*
X110780Y15780D01*
X111252Y15307D01*
X111870Y15051D01*
X112539D01*
X113157Y15307D01*
X113630Y15780D01*
X113886Y16398D01*
Y17067D01*
X113630Y17684D01*
X113157Y18157D01*
X112539Y18413D01*
D02*
G37*
G36*
X118445Y12508D02*
X117776D01*
X117158Y12252D01*
X116685Y11779D01*
X116429Y11161D01*
Y10492D01*
X116685Y9875D01*
X117158Y9402D01*
X117776Y9146D01*
X118445D01*
X119062Y9402D01*
X119535Y9875D01*
X119791Y10492D01*
Y11161D01*
X119535Y11779D01*
X119062Y12252D01*
X118445Y12508D01*
D02*
G37*
G36*
X112539D02*
X111870D01*
X111252Y12252D01*
X110780Y11779D01*
X110524Y11161D01*
Y10492D01*
X110780Y9875D01*
X111252Y9402D01*
X111870Y9146D01*
X112539D01*
X113157Y9402D01*
X113630Y9875D01*
X113886Y10492D01*
Y11161D01*
X113630Y11779D01*
X113157Y12252D01*
X112539Y12508D01*
D02*
G37*
G36*
X118445Y7587D02*
X117776D01*
X117158Y7331D01*
X116685Y6858D01*
X116429Y6240D01*
Y5571D01*
X116685Y4953D01*
X117158Y4480D01*
X117776Y4224D01*
X118445D01*
X119062Y4480D01*
X119535Y4953D01*
X119791Y5571D01*
Y6240D01*
X119535Y6858D01*
X119062Y7331D01*
X118445Y7587D01*
D02*
G37*
G36*
X112539D02*
X111870D01*
X111252Y7331D01*
X110780Y6858D01*
X110524Y6240D01*
Y5571D01*
X110780Y4953D01*
X111252Y4480D01*
X111870Y4224D01*
X112539D01*
X113157Y4480D01*
X113630Y4953D01*
X113886Y5571D01*
Y6240D01*
X113630Y6858D01*
X113157Y7331D01*
X112539Y7587D01*
D02*
G37*
%LPD*%
G36*
X130389Y42759D02*
X130453Y42709D01*
X130522Y42664D01*
X130594Y42626D01*
X130671Y42594D01*
X130752Y42567D01*
X130837Y42546D01*
X130927Y42531D01*
X131021Y42523D01*
X131119Y42520D01*
Y41732D01*
X131021Y41729D01*
X130927Y41721D01*
X130837Y41706D01*
X130752Y41685D01*
X130671Y41658D01*
X130594Y41626D01*
X130522Y41588D01*
X130453Y41543D01*
X130389Y41493D01*
X130329Y41437D01*
Y42815D01*
X130389Y42759D01*
D02*
G37*
G36*
X137377Y38920D02*
X137441Y38870D01*
X137510Y38826D01*
X137582Y38787D01*
X137659Y38755D01*
X137740Y38728D01*
X137826Y38708D01*
X137915Y38693D01*
X138009Y38684D01*
X138107Y38681D01*
Y37894D01*
X138009Y37891D01*
X137915Y37882D01*
X137826Y37867D01*
X137740Y37846D01*
X137659Y37820D01*
X137582Y37787D01*
X137510Y37749D01*
X137441Y37705D01*
X137377Y37655D01*
X137317Y37598D01*
Y38976D01*
X137377Y38920D01*
D02*
G37*
G36*
X131211Y38012D02*
X131160Y37948D01*
X131116Y37879D01*
X131078Y37807D01*
X131045Y37730D01*
X131019Y37649D01*
X130998Y37563D01*
X130983Y37474D01*
X130974Y37380D01*
X130972Y37282D01*
X130184D01*
X130181Y37380D01*
X130172Y37474D01*
X130157Y37563D01*
X130137Y37649D01*
X130110Y37730D01*
X130078Y37807D01*
X130039Y37879D01*
X129995Y37948D01*
X129945Y38012D01*
X129889Y38072D01*
X131267D01*
X131211Y38012D01*
D02*
G37*
G36*
X134294Y37219D02*
X134244Y37155D01*
X134200Y37086D01*
X134161Y37014D01*
X134129Y36937D01*
X134102Y36856D01*
X134082Y36770D01*
X134067Y36681D01*
X134058Y36587D01*
X134055Y36489D01*
X133268D01*
X133265Y36587D01*
X133256Y36681D01*
X133241Y36770D01*
X133221Y36856D01*
X133194Y36937D01*
X133161Y37014D01*
X133123Y37086D01*
X133079Y37155D01*
X133028Y37219D01*
X132973Y37279D01*
X134350D01*
X134294Y37219D01*
D02*
G37*
G36*
X182466Y27559D02*
X182406Y27615D01*
X182342Y27665D01*
X182274Y27710D01*
X182201Y27748D01*
X182124Y27781D01*
X182043Y27807D01*
X181958Y27828D01*
X181868Y27843D01*
X181775Y27851D01*
X181677Y27854D01*
Y28642D01*
X181775Y28645D01*
X181868Y28653D01*
X181958Y28668D01*
X182043Y28689D01*
X182124Y28716D01*
X182201Y28748D01*
X182274Y28786D01*
X182342Y28831D01*
X182406Y28881D01*
X182466Y28937D01*
Y27559D01*
D02*
G37*
G36*
X182565Y22539D02*
X182505Y22595D01*
X182441Y22646D01*
X182372Y22690D01*
X182299Y22728D01*
X182223Y22761D01*
X182142Y22787D01*
X182056Y22808D01*
X181967Y22823D01*
X181873Y22832D01*
X181775Y22835D01*
Y23622D01*
X181873Y23625D01*
X181967Y23634D01*
X182056Y23649D01*
X182142Y23669D01*
X182223Y23696D01*
X182299Y23728D01*
X182372Y23767D01*
X182441Y23811D01*
X182505Y23861D01*
X182565Y23917D01*
Y22539D01*
D02*
G37*
G36*
X182762Y17520D02*
X182702Y17576D01*
X182638Y17626D01*
X182569Y17670D01*
X182496Y17709D01*
X182420Y17741D01*
X182338Y17768D01*
X182253Y17788D01*
X182164Y17803D01*
X182070Y17812D01*
X181972Y17815D01*
Y18602D01*
X182070Y18605D01*
X182164Y18614D01*
X182253Y18629D01*
X182338Y18650D01*
X182420Y18676D01*
X182496Y18709D01*
X182569Y18747D01*
X182638Y18791D01*
X182702Y18842D01*
X182762Y18898D01*
Y17520D01*
D02*
G37*
G36*
X182860Y12402D02*
X182800Y12458D01*
X182736Y12508D01*
X182668Y12552D01*
X182595Y12591D01*
X182518Y12623D01*
X182437Y12650D01*
X182352Y12670D01*
X182262Y12685D01*
X182168Y12694D01*
X182070Y12697D01*
Y13484D01*
X182168Y13487D01*
X182262Y13496D01*
X182352Y13511D01*
X182437Y13532D01*
X182518Y13558D01*
X182595Y13590D01*
X182668Y13629D01*
X182736Y13673D01*
X182800Y13723D01*
X182860Y13780D01*
Y12402D01*
D02*
G37*
%LPC*%
G36*
X61772Y26132D02*
X61389Y25973D01*
X61230Y25591D01*
X61389Y25208D01*
X61438Y25159D01*
X61821Y25000D01*
X62204Y25159D01*
X62362Y25541D01*
X62204Y25924D01*
X62154Y25973D01*
X61772Y26132D01*
D02*
G37*
G36*
X64419Y26083D02*
X64037Y25924D01*
X63878Y25541D01*
X64037Y25159D01*
X64086Y25109D01*
X64468Y24951D01*
X64851Y25109D01*
X65010Y25492D01*
X64851Y25875D01*
X64802Y25924D01*
X64419Y26083D01*
D02*
G37*
%LPD*%
D12*
X160335Y42126D02*
X174213Y28248D01*
X183169D01*
X129626Y42126D02*
X160335D01*
X135138Y31102D02*
X160433D01*
X173327Y18209D01*
X183465D01*
X173130Y13091D02*
X183563D01*
X158366Y27854D02*
X173130Y13091D01*
X133071Y27854D02*
X158366D01*
X130578Y30347D02*
Y38775D01*
Y30347D02*
X133071Y27854D01*
X133661Y32579D02*
X135138Y31102D01*
X133661Y32579D02*
Y37982D01*
X173622Y23228D02*
X183268D01*
X158563Y38287D02*
X173622Y23228D01*
X136614Y38287D02*
X158563D01*
X141732Y24335D02*
Y25000D01*
D23*
X124016Y78740D02*
D03*
D25*
X61772Y25591D02*
D03*
X58307D02*
D03*
Y91634D02*
D03*
X61772D02*
D03*
D26*
X57874Y97261D02*
D03*
X62402D02*
D03*
X57291Y19579D02*
D03*
X61819D02*
D03*
D66*
X193530Y55059D02*
X194386Y55915D01*
X195936D02*
X196411Y55440D01*
Y49772D02*
Y55440D01*
X193110Y57776D02*
X195931D01*
X194386Y55915D02*
X195936D01*
X195931Y57776D02*
X197723Y55983D01*
X193110Y55059D02*
X193530D01*
X197723Y50315D02*
Y55983D01*
X197946Y48237D02*
X202027D01*
X197723Y50315D02*
X198490Y49548D01*
X196411Y49772D02*
X197946Y48237D01*
X198490Y49548D02*
X202027D01*
X202730Y50251D02*
X203150D01*
X202027Y49548D02*
X202730Y50251D01*
Y47534D02*
X203150D01*
X202027Y48237D02*
X202730Y47534D01*
X233735Y66329D02*
X236673D01*
X237376Y65627D01*
X231102Y63697D02*
X233735Y66329D01*
X237376Y65627D02*
X237795D01*
X250101Y52756D02*
X250433D01*
X249182Y51837D02*
X250101Y52756D01*
X244864Y51837D02*
X249182D01*
X240271Y47244D02*
X244864Y51837D01*
X231102Y50492D02*
Y63697D01*
X234350Y47244D02*
X240271D01*
X231102Y50492D02*
X234350Y47244D01*
X237376Y68343D02*
X237795D01*
X236673Y67641D02*
X237376Y68343D01*
X233192Y67641D02*
X236673D01*
X245407Y50525D02*
X249182D01*
X240815Y45933D02*
X245407Y50525D01*
X250101Y49606D02*
X250433D01*
X249182Y50525D02*
X250101Y49606D01*
X233807Y45933D02*
X240815D01*
X229791Y49949D02*
X233807Y45933D01*
X229791Y64240D02*
X233192Y67641D01*
X229791Y49949D02*
Y64240D01*
X249182Y67585D02*
X250101Y68504D01*
X250433D01*
X245159Y67585D02*
X249182D01*
X241260Y63686D02*
X245159Y67585D01*
X235267Y63686D02*
X241260D01*
X234952Y50525D02*
X236771D01*
X233362Y52116D02*
Y61780D01*
X236771Y50525D02*
X237474Y49823D01*
X237894D01*
X233362Y52116D02*
X234952Y50525D01*
X233362Y61780D02*
X235267Y63686D01*
X245703Y66273D02*
X249182D01*
X250101Y65354D02*
X250433D01*
X249182Y66273D02*
X250101Y65354D01*
X241803Y62374D02*
X245703Y66273D01*
X234673Y61237D02*
X235810Y62374D01*
X237474Y52539D02*
X237894D01*
X235810Y62374D02*
X241803D01*
X236771Y51837D02*
X237474Y52539D01*
X235496Y51837D02*
X236771D01*
X234673Y52659D02*
Y61237D01*
Y52659D02*
X235496Y51837D01*
X238535Y58492D02*
X242646D01*
X244783Y60630D02*
X247677D01*
X242646Y58492D02*
X244783Y60630D01*
D67*
X99894Y19579D02*
X106102Y25787D01*
X119882D02*
X125394Y31299D01*
X106102Y25787D02*
X119882D01*
X61819Y19579D02*
X99894D01*
X61772Y91634D02*
X64370D01*
X61772Y25591D02*
X61821Y25541D01*
X64419D02*
X64468Y25492D01*
X113583Y90354D02*
X118225Y85712D01*
Y82804D02*
Y85712D01*
X70374Y90354D02*
X113583D01*
X69390Y91339D02*
X70374Y90354D01*
X69390Y91339D02*
Y96063D01*
X62402Y97261D02*
X68192D01*
X69390Y96063D01*
X101303Y31028D02*
X121382D01*
X122441Y32087D01*
X99016Y28740D02*
X101303Y31028D01*
X51476Y28740D02*
X99016D01*
X50000Y27264D02*
X51476Y28740D01*
X125394Y31299D02*
Y34646D01*
X122441Y32087D02*
Y42913D01*
X50295Y17618D02*
X52256Y19579D01*
X57291D01*
X21654Y17618D02*
X50295D01*
X17126Y22146D02*
X21654Y17618D01*
X17126Y22146D02*
Y31890D01*
X16043Y32972D02*
X17126Y31890D01*
X11024Y32972D02*
X16043D01*
X11024Y85138D02*
X16437D01*
X17421Y86122D01*
Y97736D01*
X22441Y102756D01*
X52658D01*
X54035Y101378D01*
Y98819D02*
Y101378D01*
X55413Y97441D02*
X57694D01*
X57874Y97261D01*
X54035Y98819D02*
X55413Y97441D01*
X50591Y89961D02*
X52362Y88189D01*
X50591Y89961D02*
Y96161D01*
X48720Y98032D02*
X50591Y96161D01*
X52362Y88189D02*
X111417D01*
X114173Y85433D01*
X50000Y23720D02*
Y27264D01*
X47933Y21654D02*
X50000Y23720D01*
X24016Y21654D02*
X47933D01*
X122441Y42913D02*
X125197Y45669D01*
X114173Y75591D02*
Y85433D01*
X117323Y72441D02*
X146063D01*
X114173Y75591D02*
X117323Y72441D01*
X21260Y24409D02*
X24016Y21654D01*
X21260Y24409D02*
Y40157D01*
X11024Y42972D02*
X18445D01*
X21260Y40157D01*
X25197Y98032D02*
X48720D01*
X21260Y94095D02*
X25197Y98032D01*
X21260Y77953D02*
Y94095D01*
X18445Y75138D02*
X21260Y77953D01*
X11024Y75138D02*
X18445D01*
X150394Y64961D02*
X152559D01*
X148425Y66929D02*
Y70079D01*
Y66929D02*
X150394Y64961D01*
X146063Y72441D02*
X148425Y70079D01*
X125197Y45669D02*
X148031D01*
X167309Y66043D02*
X167344Y66079D01*
X166781Y42388D02*
X167535D01*
X136614Y24335D02*
Y24803D01*
D68*
X243898Y79921D02*
X250098D01*
X253642Y76378D01*
X235335Y71358D02*
X243898Y79921D01*
X214862Y64862D02*
Y68898D01*
X217323Y71358D02*
X235335D01*
X214862Y68898D02*
X217323Y71358D01*
X253642Y65413D02*
Y76378D01*
X250433Y62205D02*
X253642Y65413D01*
D70*
X30315Y36555D02*
D03*
Y81555D02*
D03*
D71*
X42323Y89547D02*
D03*
Y28563D02*
D03*
D72*
X55315Y36535D02*
D03*
X65315Y71575D02*
D03*
X55315Y76535D02*
D03*
X65315Y51575D02*
D03*
X55315Y66535D02*
D03*
Y56535D02*
D03*
X65315Y61575D02*
D03*
Y41575D02*
D03*
X55315Y46535D02*
D03*
D73*
X11024Y42972D02*
D03*
Y75138D02*
D03*
Y85138D02*
D03*
Y32972D02*
D03*
D74*
X65315Y81575D02*
D03*
D75*
X250433Y49606D02*
D03*
Y52756D02*
D03*
Y65354D02*
D03*
Y68504D02*
D03*
X247677Y63779D02*
D03*
Y54331D02*
D03*
Y60630D02*
D03*
Y57480D02*
D03*
X250433Y62205D02*
D03*
X247677Y70079D02*
D03*
Y48031D02*
D03*
X250433Y55905D02*
D03*
X133858Y66929D02*
D03*
X125984Y62992D02*
D03*
X137795Y51181D02*
D03*
X129921Y51181D02*
D03*
X137795Y62992D02*
D03*
X129921Y55118D02*
D03*
X137795Y55118D02*
D03*
X133858Y59055D02*
D03*
X141732Y66929D02*
D03*
X129921Y59055D02*
D03*
X125984Y59055D02*
D03*
X141732Y51181D02*
D03*
X137795Y59055D02*
D03*
X137795Y66929D02*
D03*
X141732Y55118D02*
D03*
X133858Y62992D02*
D03*
X125984Y55118D02*
D03*
X141732Y62992D02*
D03*
X129921Y62992D02*
D03*
X133858Y51181D02*
D03*
X141732Y59055D02*
D03*
X125984Y51181D02*
D03*
X129921Y66929D02*
D03*
X133858Y55118D02*
D03*
X125984Y66929D02*
D03*
X193110Y57776D02*
D03*
Y55059D02*
D03*
X160335Y58071D02*
D03*
X100221Y61417D02*
D03*
X202425Y64862D02*
D03*
X64370Y91634D02*
D03*
X64468Y25492D02*
D03*
X217577Y64764D02*
D03*
X218307Y46949D02*
D03*
X203150Y50251D02*
D03*
Y47534D02*
D03*
X75984Y96063D02*
D03*
X108268Y92693D02*
D03*
X148031Y45669D02*
D03*
X125394Y34646D02*
D03*
X167323Y70866D02*
D03*
X237795Y68343D02*
D03*
Y65627D02*
D03*
X214862Y64862D02*
D03*
X229921Y79528D02*
D03*
X233858D02*
D03*
X229921Y83071D02*
D03*
X233858D02*
D03*
X229921Y87008D02*
D03*
X233858D02*
D03*
Y90945D02*
D03*
X229921D02*
D03*
X186614Y108661D02*
D03*
Y105512D02*
D03*
Y102362D02*
D03*
Y99213D02*
D03*
X178740D02*
D03*
X182677D02*
D03*
Y102362D02*
D03*
X178740D02*
D03*
Y105512D02*
D03*
X182677D02*
D03*
Y108661D02*
D03*
X178740D02*
D03*
X170965Y38681D02*
D03*
X167535D02*
D03*
Y42390D02*
D03*
X170965D02*
D03*
X156299Y47244D02*
D03*
X167717Y81102D02*
D03*
X167618Y84055D02*
D03*
X164173Y81102D02*
D03*
X164075Y84055D02*
D03*
X160630Y81102D02*
D03*
X160531Y84055D02*
D03*
X157087Y81102D02*
D03*
X156988Y84055D02*
D03*
X112205Y5906D02*
D03*
X118110D02*
D03*
Y10827D02*
D03*
X112205D02*
D03*
X118110Y16732D02*
D03*
X112205D02*
D03*
X152559Y64961D02*
D03*
X110433Y60630D02*
D03*
X100221Y69193D02*
D03*
X118225Y82804D02*
D03*
X167344Y66079D02*
D03*
X237894Y49823D02*
D03*
Y52539D02*
D03*
X236614Y60433D02*
D03*
X238535Y58492D02*
D03*
X142028Y82677D02*
D03*
X146752D02*
D03*
X150984Y74114D02*
D03*
X151083Y71161D02*
D03*
X141732Y34646D02*
D03*
X110433Y69291D02*
D03*
X110335Y53543D02*
D03*
X111024Y44783D02*
D03*
X123425Y82677D02*
D03*
X136614Y34646D02*
D03*
X128150Y82677D02*
D03*
X132972D02*
D03*
X146653Y34646D02*
D03*
X151673D02*
D03*
X156398Y58071D02*
D03*
X125591Y22228D02*
D03*
X131496Y24335D02*
D03*
X146850D02*
D03*
X151969D02*
D03*
X166535Y75590D02*
D03*
X118110Y92693D02*
D03*
X113189Y92716D02*
D03*
X122835Y92693D02*
D03*
X127953D02*
D03*
X132677D02*
D03*
X146653D02*
D03*
X151476Y93520D02*
D03*
X134449Y109957D02*
D03*
X126969Y107457D02*
D03*
X188976Y86697D02*
D03*
X196457Y89157D02*
D03*
X213484Y87091D02*
D03*
X195965Y32858D02*
D03*
X203642Y32779D02*
D03*
X209449Y9610D02*
D03*
X218406Y9827D02*
D03*
X141732Y24335D02*
D03*
X136614D02*
D03*
X95555Y14567D02*
D03*
X100221Y44587D02*
D03*
Y53445D02*
D03*
X166732Y95653D02*
D03*
X141732Y92716D02*
D03*
X151409Y97268D02*
D03*
X148047Y97244D02*
D03*
X207087Y78448D02*
D03*
X167607Y47173D02*
D03*
D76*
X250000Y42795D02*
D03*
Y75315D02*
D03*
X267323Y41378D02*
D03*
Y76732D02*
D03*
D77*
X245118Y44882D02*
D03*
Y73228D02*
D03*
D78*
X183169Y28248D02*
D03*
X183563Y13091D02*
D03*
X183465Y18209D02*
D03*
X183268Y23228D02*
D03*
X133661Y37982D02*
D03*
X130578Y38775D02*
D03*
X129626Y42126D02*
D03*
X136614Y38287D02*
D03*
M02*
