M48
;Layer_Color=9474304
;FILE_FORMAT=2:4
INCH,TZ
;TYPE=PLATED
T01F00S00C0.0118
T02F00S00C0.0157
T04F00S00C0.0350
T05F00S00C0.0402
T06F00S00C0.0642
;TYPE=NON_PLATED
T07F00S00C0.0256
T08F00S00C0.1280
%
T01
X6447Y2549
X9556Y1457
X11220Y1673
Y1083
Y591
X11811
Y1083
Y1673
X12559Y2223
X13150Y2433
X13661
X14173
X14685
X15197
X15167Y3465
X14665
X14173
X13661
Y3829
X13366Y3798
X13058Y3877
X12963Y4213
X12992Y5118
X12992Y5512
X12992Y5906
Y6299
X12598Y6299
Y5906
X12598Y5512
X12598Y5118
X13386Y5118
X13780Y5118
X13780Y5512
X13386Y5512
X13386Y5906
X13780Y5906
Y6299
X13386Y6299
X13386Y6693
X13780Y6693
X14173
X14173Y6299
Y5906
X14173Y5512
X14173Y5118
X14803Y4567
X15630Y4724
X15640Y5807
X16033
X15256Y6496
X15108Y7116
X15098Y7411
X14675Y8268
X14203
X13297
X12815
X12343
X11822Y8280
X11811Y9269
X12283
X12795
X13268
X14173Y9272
X14665Y9269
X15148Y9352
X15141Y9727
X14805Y9724
X15699Y8406
X15709Y8110
X16063Y8110
X16053Y8406
X12992Y6693
X12598Y6693
X11043Y6929
Y6063
X11033Y5354
X11102Y4478
X10022Y4459
Y5344
Y6142
Y6919
X10827Y9269
X11319Y9272
X12697Y10746
X13445Y10996
X7598Y9606
X6437Y9163
X12539Y3465
X16754Y3868
X17096
Y4239
X16754
X16761Y4717
X16734Y6608
X16732Y7087
X16654Y7559
X16772Y8110
X16762Y8406
X16407
X16417Y8110
X16673Y9565
X17874Y9921
Y10236
Y10551
Y10866
X18268
Y10551
Y10236
Y9921
X18661
Y10236
Y10551
Y10866
X18898Y8670
X19646Y8916
X21348Y8709
X20709Y7845
X20243Y6486
X21486
X21758Y6476
X21831Y4695
X20315Y4753
Y5025
X19311Y5506
Y5778
X19596Y3286
X20364Y3278
X18317Y2825
X18327Y2323
X18346Y1821
X18356Y1309
X20945Y961
X21841Y983
X23789Y4982
Y5254
X23854Y5849
X23661Y6043
X23780Y6563
Y6834
X23386Y7953
Y8307
Y8701
X22992
Y8307
Y7953
Y9094
X23386
T02
X24768Y4803
X25043Y4961
Y5276
Y5591
X24768Y5433
Y5748
Y6063
Y6378
X25043Y6535
Y6220
Y6850
X24768Y7008
T04
X5531Y3654
Y4654
Y5654
Y6654
Y7654
X6532Y7157
Y6157
Y5157
Y4157
Y8157
T05
X1102Y3297
Y4297
Y7514
Y8514
T06
X4232Y2856
Y8955
T07
X24512Y4488
Y7323
T08
X3031Y3656
Y8156
M30
